<svg id="svg" xmlns="http://www.w3.org/2000/svg" xmlns:xlink="http://www.w3.org/1999/xlink" width="400" height="299.75136747886626" viewBox="0, 0, 400,299.75136747886626"><g id="svgg"><path id="path0" d="M174.341 0.211 C 150.095 1.445,126.666 8.218,95.297 23.063 C 42.949 47.835,6.093 84.110,0.595 116.272 C -2.209 132.674,7.472 150.535,29.295 169.222 C 36.625 175.498,43.384 180.501,59.871 191.851 C 72.362 200.450,78.919 205.489,78.233 205.961 C 78.034 206.098,76.171 207.084,74.092 208.153 C 49.112 220.998,30.908 234.352,21.810 246.506 C 10.427 261.714,10.186 282.794,21.269 293.784 C 24.428 296.917,26.035 297.720,31.203 298.752 C 60.923 304.684,92.566 285.089,102.206 254.781 C 106.979 239.773,106.579 221.377,101.229 209.862 C 100.766 208.865,100.423 208.015,100.467 207.973 C 100.566 207.878,107.258 203.951,112.183 201.097 C 116.039 198.863,122.800 195.127,122.987 195.127 C 123.047 195.127,122.742 196.179,122.310 197.464 C 118.841 207.779,116.974 223.637,118.218 232.223 C 120.290 246.526,125.974 258.604,132.178 261.893 C 136.430 264.146,142.856 263.754,146.839 260.998 C 151.175 257.998,157.585 246.439,164.838 228.543 C 165.437 227.066,165.986 225.794,166.060 225.715 C 166.133 225.637,166.032 226.755,165.836 228.201 C 164.245 239.906,165.776 250.868,169.576 254.973 C 175.458 261.325,185.375 256.463,192.248 243.859 C 192.695 243.038,193.739 241.159,194.567 239.682 C 206.306 218.743,216.181 198.145,225.271 175.636 C 226.843 171.743,227.344 170.682,227.430 171.062 C 227.491 171.334,227.774 172.720,228.058 174.142 C 230.047 184.097,231.960 189.682,236.822 199.733 C 238.285 202.759,239.483 205.340,239.483 205.467 C 239.483 205.595,238.677 206.769,237.693 208.077 C 236.708 209.385,235.903 210.508,235.903 210.571 C 235.903 210.795,231.325 216.545,228.325 220.090 C 211.410 240.071,210.024 242.022,210.053 245.808 C 210.146 257.874,242.495 251.735,254.983 237.282 C 262.857 228.170,263.849 216.419,257.985 201.701 L 257.189 199.703 259.253 196.669 C 265.860 186.953,272.796 175.156,279.333 162.512 C 280.377 160.492,281.273 158.970,281.323 159.131 C 281.373 159.292,281.611 160.453,281.851 161.711 C 283.660 171.194,285.792 177.678,289.857 186.057 L 292.260 191.010 291.569 191.626 C 291.189 191.965,289.771 193.226,288.418 194.428 C 270.770 210.106,263.135 232.825,273.709 238.196 C 276.912 239.823,280.653 239.583,286.412 237.380 C 287.458 236.980,289.030 236.379,289.906 236.045 C 295.959 233.736,302.046 229.680,307.112 224.582 C 316.020 215.616,317.747 206.769,313.209 193.342 L 312.340 190.771 313.157 190.438 C 336.064 181.101,368.679 185.514,382.895 199.874 C 395.351 212.457,394.401 227.806,380.607 236.837 C 378.053 238.509,377.524 239.006,377.524 239.732 C 377.524 242.790,383.248 241.391,389.264 236.863 C 408.425 222.439,400.602 191.831,374.457 178.930 C 356.679 170.158,331.645 170.355,311.293 179.426 C 308.569 180.640,308.177 180.766,307.972 180.489 C 307.591 179.976,303.443 171.724,302.433 169.468 C 297.747 159.004,297.748 148.355,302.436 134.089 C 304.362 128.227,304.261 127.562,301.228 126.173 C 296.807 124.149,283.592 125.174,280.128 127.809 C 279.378 128.379,278.018 132.298,276.783 137.444 C 275.283 143.700,274.540 145.621,270.361 154.040 C 265.977 162.874,252.964 186.057,251.604 187.456 C 251.246 187.824,247.051 178.559,246.349 175.849 C 243.877 166.309,244.473 157.644,248.417 145.798 C 250.299 140.144,250.222 139.564,247.393 138.120 C 242.379 135.562,226.588 137.334,225.332 140.596 C 225.220 140.886,224.683 142.824,224.138 144.903 C 222.250 152.111,222.010 152.741,215.670 167.181 C 212.436 174.547,204.009 193.483,201.199 199.702 C 200.185 201.944,198.574 205.525,197.619 207.658 C 192.041 220.121,186.488 231.257,184.849 233.267 C 183.473 234.956,183.288 234.439,183.302 228.941 C 183.318 222.396,184.756 215.663,191.286 191.546 C 194.370 180.158,194.402 179.039,191.703 177.023 C 188.126 174.351,183.732 174.433,180.833 177.227 L 180.109 177.924 180.464 175.934 C 182.559 164.178,179.545 155.149,172.674 152.601 C 163.199 149.087,144.629 159.473,133.624 174.441 C 132.546 175.908,132.475 175.961,129.367 177.651 C 119.528 183.000,109.457 188.504,101.659 192.791 L 92.826 197.647 89.717 194.547 C 84.793 189.636,78.994 184.733,69.120 177.132 C 42.122 156.350,33.760 146.840,30.725 133.466 C 24.063 104.112,52.588 71.984,110.465 43.653 C 153.682 22.498,199.168 17.966,220.924 32.647 C 240.799 46.059,228.689 80.561,196.262 102.909 C 183.112 111.973,167.787 118.490,151.367 122.001 C 126.996 127.214,108.965 124.281,97.663 113.266 C 94.762 110.439,94.407 110.215,93.531 110.668 C 92.385 111.261,92.054 112.141,92.326 113.876 C 93.407 120.773,101.965 129.177,112.382 133.572 C 134.132 142.749,178.247 136.563,205.110 120.569 C 246.343 96.018,264.503 47.970,242.494 21.659 C 230.166 6.921,204.043 -1.300,174.341 0.211 M169.484 167.818 C 172.513 169.608,168.850 183.327,157.566 212.455 C 148.860 234.925,144.864 241.494,141.660 238.599 C 137.480 234.823,136.853 218.606,140.352 204.782 C 143.006 194.297,150.281 180.439,156.527 173.971 C 161.204 169.127,167.023 166.364,169.484 167.818 M298.562 200.249 C 301.317 210.879,295.754 221.298,284.833 225.961 L 282.944 226.767 282.596 226.340 C 280.831 224.175,285.899 212.145,291.556 205.072 C 293.198 203.018,297.557 198.508,297.899 198.508 C 298.016 198.508,298.314 199.291,298.562 200.249 M89.183 218.797 C 93.228 241.266,82.014 263.694,61.705 273.753 C 46.914 281.079,37.177 278.007,37.653 266.164 C 38.295 250.180,51.522 235.818,83.143 216.767 L 88.016 213.831 88.340 214.872 C 88.518 215.444,88.897 217.210,89.183 218.797 M245.172 217.255 C 245.113 217.829,245.008 218.836,244.939 219.493 C 244.695 221.814,243.450 225.008,241.760 227.650 C 238.470 232.793,229.569 239.929,226.394 239.969 C 224.827 239.988,225.013 239.620,228.483 235.849 C 235.313 228.426,237.953 225.322,242.864 218.941 C 245.221 215.879,245.321 215.806,245.172 217.255 " stroke="none" fill="#cc649c" fill-rule="evenodd"></path><path id="path1" d="M0.019 59.523 C 0.036 110.677,0.077 118.794,0.311 117.255 C 5.245 84.803,42.747 47.645,95.674 22.769 C 126.496 8.283,148.954 1.678,172.352 0.219 C 173.774 0.130,135.577 0.045,87.469 0.029 L 0.000 0.000 0.019 59.523 M188.961 0.138 C 220.803 2.015,243.185 14.665,249.792 34.519 C 260.318 66.151,233.312 109.924,192.811 126.875 C 162.187 139.693,125.874 141.652,107.798 131.462 C 97.986 125.931,90.001 115.518,92.469 111.471 C 93.554 109.691,94.547 110.031,97.947 113.346 C 111.366 126.428,136.563 127.971,166.906 117.571 C 207.599 103.622,237.180 68.326,229.143 43.310 C 223.195 24.796,187.702 18.845,147.631 29.645 C 118.008 37.628,81.159 57.059,57.885 76.969 C 30.520 100.378,22.804 125.929,36.783 146.849 C 42.469 155.358,49.596 161.994,69.518 177.328 C 79.581 185.074,83.980 188.799,89.424 194.182 L 92.821 197.541 101.712 192.653 C 106.603 189.964,113.935 185.948,118.007 183.728 C 122.079 181.508,127.021 178.811,128.991 177.736 L 132.571 175.781 133.894 173.967 C 137.458 169.079,143.835 162.996,149.478 159.099 C 170.042 144.899,184.082 152.056,180.690 175.009 C 180.320 177.510,180.220 177.413,181.949 176.238 C 186.029 173.463,192.755 175.605,193.770 180.002 C 194.082 181.355,193.972 181.886,191.343 191.646 C 184.456 217.218,182.589 226.719,183.373 232.217 C 183.831 235.437,184.571 234.482,189.925 223.769 C 192.857 217.902,194.201 215.051,197.376 207.956 C 198.306 205.878,199.715 202.745,200.506 200.995 C 206.150 188.508,215.498 167.416,219.239 158.727 C 221.825 152.721,222.382 151.114,223.968 145.087 C 224.629 142.579,225.333 140.303,225.533 140.030 C 227.746 137.008,242.906 135.675,247.504 138.098 C 250.363 139.605,250.422 140.099,248.460 146.042 C 244.691 157.457,244.252 161.686,245.769 171.954 C 246.396 176.197,247.048 178.186,249.552 183.497 C 250.610 185.741,251.498 187.552,251.525 187.523 C 252.060 186.936,261.628 170.321,265.186 163.799 C 271.770 151.732,275.046 144.440,276.221 139.238 C 277.563 133.301,279.106 128.643,280.009 127.803 C 282.902 125.110,297.176 123.981,301.356 126.113 C 304.424 127.678,304.506 128.223,302.559 134.109 C 298.863 145.279,298.321 150.104,299.715 159.444 C 300.597 165.355,301.362 167.448,305.862 176.255 L 308.161 180.754 310.172 179.814 C 327.116 171.898,348.630 170.169,365.723 175.350 C 384.595 181.071,398.199 195.779,399.778 212.172 C 399.872 213.154,399.958 166.938,399.973 106.962 L 400.000 0.000 293.933 0.037 C 235.597 0.057,188.359 0.103,188.961 0.138 M0.018 212.680 L 0.000 299.751 17.951 299.732 C 33.722 299.715,35.695 299.680,34.192 299.446 C 27.070 298.336,24.116 297.046,20.839 293.616 C 10.090 282.363,10.457 261.502,21.666 246.554 C 30.851 234.305,48.294 221.436,73.347 208.425 C 76.109 206.991,78.364 205.761,78.358 205.693 C 78.333 205.426,73.452 201.599,69.344 198.626 C 66.106 196.282,63.761 194.641,57.384 190.254 C 44.192 181.177,37.478 176.219,30.731 170.574 C 12.858 155.619,2.922 141.397,0.290 127.001 C 0.082 125.860,0.033 141.312,0.018 212.680 M280.083 161.271 C 275.029 171.482,266.363 186.302,259.466 196.530 C 258.406 198.101,257.498 199.494,257.448 199.625 C 257.397 199.756,257.755 200.879,258.244 202.120 C 266.288 222.566,260.653 238.048,241.955 246.868 C 225.012 254.859,208.998 254.027,209.942 245.205 C 210.337 241.514,211.417 239.998,225.855 222.874 C 231.560 216.108,234.276 212.742,235.920 210.399 C 236.512 209.555,237.557 208.106,238.243 207.179 L 239.488 205.494 236.724 199.764 C 231.733 189.418,229.988 184.297,227.859 173.756 C 227.573 172.340,227.316 171.158,227.288 171.130 C 227.259 171.101,226.355 173.244,225.278 175.892 C 213.195 205.597,194.963 241.865,187.811 250.423 C 177.710 262.509,167.638 259.909,165.461 244.654 C 165.061 241.854,165.118 233.194,165.560 229.564 C 165.985 226.067,165.974 226.052,164.897 228.697 C 159.133 242.858,152.792 255.136,149.290 258.919 C 143.780 264.870,134.219 265.112,128.897 259.433 C 124.064 254.276,120.086 244.603,118.320 233.715 C 116.830 224.521,118.421 209.143,122.018 197.988 C 122.491 196.524,122.837 195.326,122.787 195.326 C 122.532 195.326,111.730 201.413,106.912 204.273 C 106.037 204.792,104.219 205.863,102.872 206.651 C 101.112 207.682,100.477 208.151,100.614 208.319 C 100.720 208.448,101.217 209.519,101.720 210.699 C 106.399 221.680,106.922 238.201,103.036 252.327 C 96.375 276.541,75.307 295.415,50.555 299.343 C 48.287 299.703,52.208 299.712,224.117 299.731 L 400.000 299.751 399.974 258.727 C 399.959 234.715,399.878 218.321,399.778 219.194 C 398.793 227.797,392.962 235.733,384.585 239.871 C 380.479 241.899,378.025 242.031,377.493 240.255 C 377.169 239.172,377.444 238.859,380.535 236.795 C 395.354 226.900,395.079 209.564,379.908 197.192 C 368.074 187.543,345.362 183.351,325.112 187.080 C 321.534 187.738,313.120 190.245,312.540 190.825 C 312.510 190.855,312.840 191.925,313.273 193.202 C 316.830 203.678,316.561 211.248,312.389 218.121 C 307.851 225.594,298.516 232.983,289.309 236.389 C 288.215 236.793,286.783 237.336,286.126 237.594 C 282.198 239.139,278.926 239.695,276.579 239.216 C 261.545 236.148,269.084 210.813,290.502 192.425 C 291.377 191.673,292.065 190.967,292.030 190.855 C 291.996 190.743,290.900 188.447,289.596 185.753 C 285.705 177.718,283.746 171.745,281.744 161.812 C 281.458 160.391,281.204 159.208,281.180 159.185 C 281.156 159.161,280.662 160.100,280.083 161.271 M166.882 167.616 C 159.201 168.902,150.533 179.256,143.617 195.409 C 137.922 208.709,136.382 228.683,140.432 236.706 C 143.639 243.060,147.791 237.317,156.862 213.980 C 164.020 195.566,167.480 185.367,169.590 176.464 C 171.296 169.265,170.600 166.994,166.882 167.616 M295.263 201.139 C 289.820 206.715,287.238 210.677,284.327 217.919 C 281.547 224.837,281.617 227.181,284.568 225.960 C 295.361 221.495,301.131 211.153,298.591 200.826 C 297.941 198.183,298.170 198.161,295.263 201.139 M82.579 217.209 C 66.277 227.079,53.291 237.052,47.100 244.455 C 37.275 256.206,34.544 272.248,41.710 276.126 C 49.700 280.450,66.540 273.747,76.593 262.241 C 88.396 248.733,92.432 233.375,88.610 216.513 C 88.338 215.311,88.115 214.260,88.115 214.176 C 88.115 213.878,87.761 214.072,82.579 217.209 M241.671 220.637 C 237.213 226.341,235.776 228.021,229.651 234.693 C 224.673 240.116,224.824 239.881,226.309 239.881 C 229.079 239.881,236.794 234.072,240.632 229.097 C 243.301 225.638,245.229 220.453,245.013 217.317 L 244.953 216.437 241.671 220.637 " stroke="none" fill="#ffffff" fill-rule="evenodd"></path><path id="path2" d="M187.021 0.137 C 187.213 0.187,187.526 0.187,187.718 0.137 C 187.909 0.087,187.752 0.046,187.369 0.046 C 186.987 0.046,186.830 0.087,187.021 0.137 M178.667 24.404 C 178.859 24.454,179.172 24.454,179.364 24.404 C 179.555 24.354,179.398 24.313,179.015 24.313 C 178.633 24.313,178.476 24.354,178.667 24.404 M251.865 52.213 C 251.867 52.650,251.908 52.806,251.956 52.559 C 252.003 52.311,252.001 51.953,251.952 51.763 C 251.902 51.573,251.863 51.775,251.865 52.213 M29.134 67.877 L 27.946 69.120 29.189 67.933 C 29.873 67.280,30.433 66.720,30.433 66.689 C 30.433 66.542,30.236 66.722,29.134 67.877 M227.343 102.984 L 226.256 104.127 227.399 103.040 C 228.462 102.030,228.634 101.840,228.486 101.840 C 228.455 101.840,227.941 102.355,227.343 102.984 M224.058 106.266 L 223.272 107.111 224.117 106.325 C 224.582 105.892,224.963 105.512,224.963 105.479 C 224.963 105.329,224.789 105.479,224.058 106.266 M98.558 114.172 C 98.985 114.610,99.380 114.968,99.434 114.968 C 99.489 114.968,99.184 114.610,98.757 114.172 C 98.330 113.734,97.935 113.376,97.880 113.376 C 97.826 113.376,98.131 113.734,98.558 114.172 M127.051 124.457 C 127.297 124.504,127.700 124.504,127.946 124.457 C 128.192 124.409,127.991 124.370,127.499 124.370 C 127.006 124.370,126.805 124.409,127.051 124.457 M132.123 124.453 C 132.315 124.503,132.628 124.503,132.819 124.453 C 133.011 124.403,132.854 124.362,132.471 124.362 C 132.089 124.362,131.932 124.403,132.123 124.453 M29.900 125.709 C 29.900 126.420,29.936 126.711,29.980 126.355 C 30.024 126.000,30.024 125.418,29.980 125.062 C 29.936 124.707,29.900 124.998,29.900 125.709 M292.146 125.054 C 292.393 125.101,292.751 125.099,292.941 125.050 C 293.131 125.000,292.929 124.961,292.491 124.963 C 292.054 124.965,291.898 125.006,292.146 125.054 M295.527 125.054 C 295.774 125.101,296.132 125.099,296.323 125.050 C 296.513 125.000,296.310 124.961,295.873 124.963 C 295.435 124.965,295.280 125.006,295.527 125.054 M135.507 137.985 C 135.810 138.030,136.257 138.029,136.502 137.982 C 136.747 137.935,136.499 137.897,135.952 137.899 C 135.405 137.900,135.205 137.939,135.507 137.985 M141.773 137.983 C 142.020 138.030,142.378 138.028,142.568 137.979 C 142.758 137.929,142.556 137.890,142.118 137.892 C 141.681 137.894,141.525 137.935,141.773 137.983 M43.859 155.743 C 44.286 156.181,44.680 156.539,44.735 156.539 C 44.790 156.539,44.485 156.181,44.058 155.743 C 43.630 155.306,43.236 154.948,43.181 154.948 C 43.127 154.948,43.431 155.306,43.859 155.743 M181.051 167.678 C 181.051 168.061,181.092 168.217,181.142 168.026 C 181.192 167.834,181.192 167.521,181.142 167.330 C 181.092 167.138,181.051 167.295,181.051 167.678 M170.509 170.462 C 170.509 170.845,170.550 171.002,170.600 170.811 C 170.650 170.619,170.650 170.306,170.600 170.114 C 170.550 169.923,170.509 170.080,170.509 170.462 M294.967 201.243 L 294.281 201.989 295.027 201.304 C 295.722 200.666,295.865 200.497,295.713 200.497 C 295.680 200.497,295.344 200.833,294.967 201.243 M315.728 206.266 C 315.728 206.977,315.764 207.268,315.808 206.912 C 315.852 206.556,315.852 205.975,315.808 205.619 C 315.764 205.264,315.728 205.554,315.728 206.266 M261.831 218.697 C 261.830 219.682,261.864 220.110,261.906 219.648 C 261.947 219.186,261.948 218.381,261.907 217.858 C 261.866 217.335,261.832 217.713,261.831 218.697 M138.106 221.084 C 138.107 221.850,138.143 222.139,138.186 221.726 C 138.229 221.313,138.228 220.687,138.184 220.334 C 138.140 219.981,138.105 220.318,138.106 221.084 M292.978 220.537 L 292.292 221.283 293.038 220.597 C 293.733 219.959,293.876 219.791,293.724 219.791 C 293.691 219.791,293.355 220.127,292.978 220.537 M138.102 224.068 C 138.104 224.724,138.141 224.969,138.185 224.611 C 138.229 224.254,138.228 223.717,138.183 223.418 C 138.138 223.119,138.101 223.411,138.102 224.068 M307.203 224.615 L 306.216 225.659 307.260 224.672 C 307.834 224.129,308.304 223.659,308.304 223.628 C 308.304 223.479,308.120 223.644,307.203 224.615 M89.956 226.852 C 89.958 227.290,89.999 227.446,90.046 227.198 C 90.094 226.951,90.092 226.593,90.042 226.402 C 89.992 226.212,89.953 226.415,89.956 226.852 M268.768 227.946 C 268.768 228.329,268.809 228.486,268.859 228.294 C 268.909 228.103,268.909 227.790,268.859 227.598 C 268.809 227.407,268.768 227.563,268.768 227.946 M268.768 229.736 C 268.768 230.119,268.809 230.276,268.859 230.085 C 268.909 229.893,268.909 229.580,268.859 229.388 C 268.809 229.197,268.768 229.354,268.768 229.736 M89.960 230.333 C 89.960 230.825,89.998 231.027,90.046 230.781 C 90.093 230.535,90.093 230.132,90.046 229.886 C 89.998 229.639,89.960 229.841,89.960 230.333 M28.836 238.439 L 27.548 239.781 28.891 238.494 C 30.138 237.299,30.325 237.096,30.178 237.096 C 30.148 237.096,29.544 237.700,28.836 238.439 M277.921 239.426 C 278.222 239.472,278.715 239.472,279.015 239.426 C 279.316 239.381,279.070 239.344,278.468 239.344 C 277.867 239.344,277.621 239.381,277.921 239.426 M50.124 240.975 C 49.641 241.467,49.291 241.870,49.345 241.870 C 49.400 241.870,49.840 241.467,50.323 240.975 C 50.806 240.482,51.157 240.080,51.102 240.080 C 51.048 240.080,50.607 240.482,50.124 240.975 M209.900 245.848 C 209.900 246.340,209.939 246.542,209.986 246.295 C 210.034 246.049,210.034 245.646,209.986 245.400 C 209.939 245.154,209.900 245.356,209.900 245.848 M219.045 252.350 C 219.237 252.400,219.550 252.400,219.741 252.350 C 219.933 252.300,219.776 252.259,219.393 252.259 C 219.010 252.259,218.854 252.300,219.045 252.350 M221.432 252.350 C 221.624 252.400,221.937 252.400,222.128 252.350 C 222.320 252.300,222.163 252.259,221.780 252.259 C 221.397 252.259,221.241 252.300,221.432 252.350 M138.190 263.492 C 138.436 263.539,138.839 263.539,139.085 263.492 C 139.331 263.445,139.130 263.406,138.637 263.406 C 138.145 263.406,137.944 263.445,138.190 263.492 M12.975 270.313 C 12.975 270.696,13.016 270.853,13.066 270.661 C 13.116 270.470,13.116 270.157,13.066 269.965 C 13.016 269.774,12.975 269.930,12.975 270.313 M12.975 274.291 C 12.975 274.674,13.016 274.831,13.066 274.639 C 13.116 274.448,13.116 274.135,13.066 273.943 C 13.016 273.752,12.975 273.909,12.975 274.291 " stroke="none" fill="#ebbed3" fill-rule="evenodd"></path><path id="path3" d="M176.780 0.141 C 177.027 0.188,177.385 0.186,177.576 0.137 C 177.766 0.087,177.563 0.048,177.126 0.050 C 176.688 0.052,176.533 0.093,176.780 0.141 M185.333 0.141 C 185.580 0.188,185.938 0.186,186.129 0.137 C 186.319 0.087,186.116 0.048,185.679 0.050 C 185.241 0.052,185.086 0.093,185.333 0.141 M181.750 24.208 C 181.997 24.255,182.399 24.255,182.645 24.208 C 182.892 24.161,182.690 24.122,182.198 24.122 C 181.706 24.122,181.504 24.161,181.750 24.208 M251.872 48.036 C 251.873 48.583,251.912 48.783,251.958 48.481 C 252.003 48.178,252.002 47.731,251.955 47.486 C 251.908 47.241,251.870 47.489,251.872 48.036 M251.865 50.423 C 251.867 50.860,251.908 51.016,251.956 50.768 C 252.003 50.521,252.001 50.163,251.952 49.973 C 251.902 49.783,251.863 49.985,251.865 50.423 M52.006 82.198 L 51.019 83.242 52.064 82.255 C 52.638 81.712,53.108 81.242,53.108 81.211 C 53.108 81.062,52.924 81.228,52.006 82.198 M48.822 85.380 L 48.036 86.226 48.881 85.439 C 49.667 84.708,49.818 84.535,49.667 84.535 C 49.635 84.535,49.255 84.915,48.822 85.380 M209.448 91.994 C 208.965 92.486,208.614 92.889,208.669 92.889 C 208.724 92.889,209.164 92.486,209.647 91.994 C 210.130 91.502,210.481 91.099,210.426 91.099 C 210.371 91.099,209.931 91.502,209.448 91.994 M96.569 112.183 C 97.108 112.730,97.593 113.178,97.648 113.178 C 97.703 113.178,97.307 112.730,96.768 112.183 C 96.229 111.636,95.743 111.188,95.689 111.188 C 95.634 111.188,96.030 111.636,96.569 112.183 M29.890 123.322 C 29.890 123.814,29.929 124.015,29.976 123.769 C 30.024 123.523,30.024 123.120,29.976 122.874 C 29.929 122.628,29.890 122.829,29.890 123.322 M167.531 151.908 C 167.834 151.954,168.281 151.953,168.526 151.905 C 168.770 151.858,168.523 151.821,167.976 151.822 C 167.429 151.824,167.229 151.862,167.531 151.908 M19.493 160.219 C 20.087 160.820,20.618 161.313,20.673 161.313 C 20.727 161.313,20.286 160.820,19.692 160.219 C 19.097 159.617,18.567 159.125,18.512 159.125 C 18.457 159.125,18.899 159.617,19.493 160.219 M22.476 163.202 C 22.847 163.585,23.196 163.899,23.251 163.899 C 23.305 163.899,23.046 163.585,22.675 163.202 C 22.304 162.819,21.956 162.506,21.901 162.506 C 21.846 162.506,22.105 162.819,22.476 163.202 M139.825 167.230 L 138.538 168.573 139.881 167.286 C 140.619 166.578,141.223 165.974,141.223 165.943 C 141.223 165.797,141.021 165.983,139.825 167.230 M181.055 169.170 C 181.057 169.607,181.098 169.763,181.145 169.515 C 181.193 169.268,181.191 168.910,181.141 168.720 C 181.091 168.530,181.052 168.732,181.055 169.170 M341.074 185.723 C 341.430 185.767,342.011 185.767,342.367 185.723 C 342.723 185.679,342.432 185.643,341.721 185.643 C 341.009 185.643,340.719 185.679,341.074 185.723 M387.966 188.563 C 388.505 189.110,388.991 189.557,389.045 189.557 C 389.100 189.557,388.704 189.110,388.165 188.563 C 387.626 188.016,387.141 187.568,387.086 187.568 C 387.031 187.568,387.427 188.016,387.966 188.563 M87.121 192.007 C 87.121 192.041,87.412 192.332,87.767 192.653 L 88.414 193.237 87.830 192.591 C 87.285 191.988,87.121 191.853,87.121 192.007 M296.656 199.552 L 296.072 200.199 296.718 199.615 C 297.321 199.070,297.456 198.906,297.302 198.906 C 297.268 198.906,296.977 199.197,296.656 199.552 M399.855 215.813 C 399.855 216.305,399.894 216.507,399.941 216.261 C 399.989 216.014,399.989 215.612,399.941 215.365 C 399.894 215.119,399.855 215.321,399.855 215.813 M245.004 216.708 C 245.056 216.982,245.133 217.205,245.175 217.205 C 245.217 217.205,245.251 216.982,245.251 216.708 C 245.251 216.435,245.174 216.211,245.080 216.211 C 244.986 216.211,244.951 216.435,245.004 216.708 M237.785 232.372 L 236.798 233.416 237.842 232.429 C 238.416 231.886,238.886 231.416,238.886 231.385 C 238.886 231.236,238.702 231.402,237.785 232.372 M392.033 234.460 L 391.348 235.206 392.093 234.521 C 392.788 233.883,392.931 233.715,392.779 233.715 C 392.746 233.715,392.410 234.050,392.033 234.460 M165.168 237.991 C 165.168 239.304,165.201 239.815,165.239 239.127 C 165.278 238.439,165.278 237.365,165.239 236.740 C 165.199 236.115,165.168 236.678,165.168 237.991 M185.273 253.058 L 184.286 254.102 185.331 253.115 C 186.301 252.198,186.466 252.014,186.318 252.014 C 186.286 252.014,185.816 252.484,185.273 253.058 M175.684 257.925 C 175.985 257.970,176.477 257.970,176.778 257.925 C 177.079 257.879,176.832 257.842,176.231 257.842 C 175.629 257.842,175.383 257.879,175.684 257.925 M148.572 259.523 L 147.887 260.269 148.633 259.583 C 149.327 258.945,149.470 258.777,149.318 258.777 C 149.285 258.777,148.949 259.112,148.572 259.523 M129.090 259.672 C 129.461 260.055,129.810 260.368,129.864 260.368 C 129.919 260.368,129.660 260.055,129.289 259.672 C 128.918 259.289,128.569 258.976,128.515 258.976 C 128.460 258.976,128.719 259.289,129.090 259.672 M12.986 272.402 C 12.987 272.949,13.026 273.149,13.072 272.847 C 13.117 272.544,13.116 272.097,13.069 271.852 C 13.022 271.607,12.984 271.855,12.986 272.402 M46.992 277.611 C 47.183 277.661,47.496 277.661,47.688 277.611 C 47.879 277.561,47.723 277.520,47.340 277.520 C 46.957 277.520,46.800 277.561,46.992 277.611 M21.076 293.834 C 21.563 294.354,21.989 294.779,22.021 294.779 C 22.170 294.779,22.012 294.600,21.134 293.776 L 20.189 292.889 21.076 293.834 " stroke="none" fill="#e4a4c4" fill-rule="evenodd"></path><path id="path4" d="M184.137 24.215 C 184.821 24.254,185.940 24.254,186.624 24.215 C 187.307 24.176,186.748 24.144,185.380 24.144 C 184.013 24.144,183.454 24.176,184.137 24.215 M50.313 83.889 L 49.627 84.635 50.373 83.949 C 51.067 83.311,51.210 83.143,51.058 83.143 C 51.025 83.143,50.690 83.478,50.313 83.889 M225.549 104.774 L 224.863 105.520 225.609 104.834 C 226.303 104.196,226.447 104.028,226.295 104.028 C 226.261 104.028,225.926 104.364,225.549 104.774 M293.635 125.055 C 293.936 125.101,294.428 125.101,294.729 125.055 C 295.030 125.010,294.784 124.973,294.182 124.973 C 293.580 124.973,293.334 125.010,293.635 125.055 M137.999 137.989 C 138.687 138.028,139.761 138.028,140.386 137.989 C 141.010 137.949,140.448 137.917,139.135 137.918 C 137.822 137.918,137.311 137.950,137.999 137.989 M338.295 185.725 C 338.763 185.767,339.479 185.767,339.886 185.724 C 340.293 185.681,339.910 185.647,339.035 185.648 C 338.160 185.648,337.827 185.683,338.295 185.725 M220.239 252.350 C 220.430 252.400,220.743 252.400,220.935 252.350 C 221.126 252.300,220.970 252.259,220.587 252.259 C 220.204 252.259,220.047 252.300,220.239 252.350 " stroke="none" fill="#e3acc4" fill-rule="evenodd"></path></g></svg>