<svg id="svg" xmlns="http://www.w3.org/2000/svg" xmlns:xlink="http://www.w3.org/1999/xlink" width="400" height="564.179104477612" viewBox="0, 0, 400,564.179104477612"><g id="svgg"><path id="path0" d="M99.907 0.280 C 154.958 0.332,245.042 0.332,300.093 0.280 C 355.145 0.228,310.103 0.185,200.000 0.185 C 89.897 0.185,44.855 0.228,99.907 0.280 M0.000 282.090 L 0.000 563.433 99.129 563.433 C 153.650 563.433,198.189 563.366,198.103 563.285 C 197.956 563.145,181.478 558.552,79.755 530.297 C 56.205 523.756,36.837 518.305,36.715 518.183 C 36.512 517.979,0.403 114.523,0.382 112.220 L 0.373 111.194 199.627 111.194 L 398.881 111.194 398.880 112.034 C 398.878 113.534,362.716 518.005,362.571 518.151 C 362.417 518.304,363.527 517.995,266.978 544.769 C 230.653 554.841,200.765 563.148,200.560 563.228 C 200.354 563.308,245.145 563.387,300.093 563.403 L 400.000 563.433 400.000 282.090 L 400.000 0.746 363.430 0.746 L 326.860 0.746 326.956 26.026 L 327.052 51.306 344.874 51.403 L 362.696 51.500 362.598 64.089 L 362.500 76.679 332.090 76.679 L 301.679 76.679 301.584 38.713 L 301.489 0.746 295.334 0.746 L 289.179 0.746 289.179 38.806 L 289.179 76.866 276.309 76.866 L 263.440 76.866 263.343 58.322 L 263.246 39.777 254.830 52.794 C 250.201 59.952,246.255 65.862,246.062 65.926 C 245.868 65.990,241.847 60.104,237.127 52.847 L 228.545 39.653 228.448 58.259 L 228.351 76.866 215.855 76.866 L 203.358 76.866 203.358 38.806 L 203.358 0.746 197.953 0.746 L 192.547 0.746 192.449 13.340 L 192.351 25.933 181.253 26.032 L 170.154 26.130 170.059 51.405 L 169.963 76.679 158.022 76.783 C 151.455 76.841,145.704 76.796,145.243 76.683 L 144.403 76.478 144.403 51.299 L 144.403 26.119 133.396 26.119 L 122.388 26.119 122.388 13.433 L 122.388 0.746 116.979 0.746 L 111.571 0.746 111.476 38.713 L 111.381 76.679 98.694 76.679 L 86.007 76.679 85.909 64.080 L 85.811 51.482 74.342 51.580 L 62.873 51.679 62.795 64.179 L 62.716 76.679 50.108 76.679 L 37.500 76.679 37.405 38.713 L 37.310 0.746 18.655 0.746 L 0.000 0.746 0.000 282.090 M62.687 12.656 C 62.687 19.206,62.788 24.831,62.913 25.156 C 63.113 25.676,64.483 25.746,74.480 25.746 L 85.821 25.746 85.821 13.246 L 85.821 0.746 74.254 0.746 L 62.687 0.746 62.687 12.656 M230.327 1.026 C 231.428 3.115,246.032 26.862,246.210 26.853 C 246.345 26.846,248.504 23.446,251.007 19.297 C 253.510 15.148,257.069 9.277,258.916 6.250 L 262.273 0.746 246.226 0.746 C 237.401 0.746,230.246 0.872,230.327 1.026 M137.034 194.683 C 102.710 194.735,74.627 194.888,74.627 195.022 C 74.627 195.558,87.702 341.365,87.908 343.129 L 88.130 345.026 174.359 345.282 C 221.785 345.423,260.664 345.615,260.758 345.708 C 261.023 345.973,255.260 409.816,254.944 410.114 C 254.593 410.445,200.680 424.989,199.534 425.062 C 198.937 425.100,144.258 410.620,143.788 410.299 C 143.713 410.248,140.299 371.935,140.299 371.145 C 140.299 370.570,138.385 370.522,115.256 370.522 L 90.214 370.522 90.431 372.108 C 90.551 372.980,92.082 389.981,93.832 409.888 C 95.583 429.795,97.142 446.663,97.295 447.372 L 97.575 448.662 148.555 462.874 C 182.166 472.243,199.774 476.990,200.234 476.805 C 200.618 476.651,223.517 470.283,251.119 462.655 C 278.722 455.026,301.411 448.680,301.539 448.553 C 301.730 448.364,315.341 297.543,315.308 295.989 C 315.301 295.617,296.874 295.522,224.447 295.522 L 133.596 295.522 133.418 294.683 C 133.197 293.648,129.096 246.853,129.101 245.429 L 129.104 244.403 224.433 244.403 L 319.762 244.403 319.944 243.563 C 320.127 242.717,323.678 203.730,324.124 197.668 L 324.364 194.403 261.902 194.495 C 227.548 194.546,171.357 194.630,137.034 194.683 " stroke="none" fill="#f7f7f7" fill-rule="evenodd"></path><path id="path1" d="M37.562 0.995 C 37.425 1.132,37.313 18.175,37.313 38.868 L 37.313 76.493 49.995 76.493 L 62.677 76.493 62.775 63.899 L 62.873 51.306 74.347 51.207 L 85.821 51.109 85.821 63.801 L 85.821 76.493 98.507 76.493 L 111.194 76.493 111.194 38.619 L 111.194 0.746 98.507 0.746 L 85.821 0.746 85.821 13.246 L 85.821 25.746 74.254 25.746 L 62.687 25.746 62.687 13.246 L 62.687 0.746 50.249 0.746 C 43.408 0.746,37.699 0.858,37.562 0.995 M122.388 13.241 L 122.388 25.735 133.489 25.834 L 144.590 25.933 144.685 51.213 L 144.781 76.493 157.372 76.493 L 169.963 76.493 169.963 51.213 L 169.963 25.933 181.063 25.834 L 192.164 25.735 192.164 13.241 L 192.164 0.746 157.276 0.746 L 122.388 0.746 122.388 13.241 M203.358 38.615 L 203.358 76.493 215.855 76.493 L 228.351 76.493 228.448 57.899 L 228.545 39.305 237.124 52.522 C 241.843 59.792,245.795 65.796,245.906 65.865 C 246.018 65.934,250.049 59.884,254.864 52.420 L 263.619 38.850 263.716 57.671 L 263.813 76.493 276.309 76.493 L 288.806 76.493 288.806 38.619 L 288.806 0.746 275.621 0.746 L 262.437 0.746 254.446 13.975 C 250.051 21.250,246.324 27.167,246.163 27.124 C 246.003 27.080,242.299 21.169,237.932 13.989 L 229.992 0.933 216.675 0.835 L 203.358 0.737 203.358 38.615 M301.493 38.619 L 301.493 76.493 332.095 76.493 L 362.697 76.493 362.598 64.086 L 362.500 51.679 344.683 51.582 L 326.866 51.485 326.866 26.116 L 326.866 0.746 314.179 0.746 L 301.493 0.746 301.493 38.619 M0.000 563.806 C 0.000 564.049,5.901 564.179,16.956 564.179 C 27.857 564.179,33.994 564.046,34.142 563.806 C 34.294 563.559,28.549 563.433,17.186 563.433 C 5.977 563.433,0.000 563.563,0.000 563.806 M58.026 563.812 C 58.344 564.326,140.299 564.316,140.299 563.803 C 140.299 563.552,126.536 563.430,99.049 563.436 C 72.126 563.442,57.878 563.573,58.026 563.812 M143.097 563.806 C 143.224 564.011,143.979 564.179,144.776 564.179 C 145.573 564.179,146.328 564.011,146.455 563.806 C 146.597 563.576,145.954 563.433,144.776 563.433 C 143.598 563.433,142.955 563.576,143.097 563.806 M149.254 563.806 C 149.254 564.011,150.177 564.179,151.306 564.179 C 152.435 564.179,153.358 564.011,153.358 563.806 C 153.358 563.601,152.435 563.433,151.306 563.433 C 150.177 563.433,149.254 563.601,149.254 563.806 M154.104 563.806 C 154.104 564.011,154.692 564.179,155.410 564.179 C 156.129 564.179,156.716 564.011,156.716 563.806 C 156.716 563.601,156.129 563.433,155.410 563.433 C 154.692 563.433,154.104 563.601,154.104 563.806 M157.463 563.806 C 157.463 564.023,158.699 564.179,160.426 564.179 C 162.055 564.179,163.493 564.011,163.619 563.806 C 163.766 563.568,162.690 563.433,160.656 563.433 C 158.776 563.433,157.463 563.586,157.463 563.806 M165.299 563.806 C 165.299 564.011,165.550 564.179,165.858 564.179 C 166.166 564.179,166.418 564.011,166.418 563.806 C 166.418 563.601,166.166 563.433,165.858 563.433 C 165.550 563.433,165.299 563.601,165.299 563.806 M168.284 563.806 C 168.284 564.023,169.520 564.179,171.247 564.179 C 172.876 564.179,174.313 564.011,174.440 563.806 C 174.587 563.568,173.511 563.433,171.477 563.433 C 169.597 563.433,168.284 563.586,168.284 563.806 M175.000 563.806 C 175.000 564.011,175.672 564.179,176.493 564.179 C 177.313 564.179,177.985 564.011,177.985 563.806 C 177.985 563.601,177.313 563.433,176.493 563.433 C 175.672 563.433,175.000 563.601,175.000 563.806 M178.545 563.806 C 178.698 564.053,216.049 564.179,289.388 564.179 C 362.880 564.179,400.000 564.054,400.000 563.806 C 400.000 563.558,362.804 563.433,289.157 563.433 C 215.357 563.433,178.391 563.558,178.545 563.806 " stroke="none" fill="#050405" fill-rule="evenodd"></path><path id="path2" d="M0.580 113.153 C 0.859 115.441,36.567 516.570,36.567 517.408 C 36.567 518.032,197.173 563.184,199.390 563.184 C 200.532 563.184,362.412 518.082,362.519 517.734 C 362.583 517.523,370.706 426.679,380.570 315.858 C 390.433 205.037,398.590 113.736,398.696 112.966 L 398.889 111.567 199.638 111.567 L 0.387 111.567 0.580 113.153 M324.422 196.549 C 321.417 229.840,320.149 243.974,320.149 244.166 C 320.149 244.296,277.152 244.403,224.600 244.403 L 129.051 244.403 129.272 246.362 C 129.602 249.280,133.582 294.045,133.582 294.839 C 133.582 295.500,136.617 295.522,224.640 295.522 L 315.697 295.522 315.480 297.295 C 315.360 298.270,312.259 332.708,308.588 373.826 C 304.917 414.943,301.835 448.662,301.740 448.758 C 301.644 448.853,278.575 455.300,250.475 463.083 L 199.385 477.234 148.314 463.047 C 120.224 455.244,97.206 448.822,97.162 448.777 C 97.117 448.731,95.510 431.021,93.589 409.422 L 90.096 370.149 115.197 370.149 C 129.003 370.149,140.311 370.191,140.327 370.243 C 140.342 370.294,141.159 379.199,142.142 390.031 C 143.125 400.863,144.024 409.820,144.139 409.935 C 144.254 410.050,156.715 413.496,171.831 417.593 L 199.314 425.043 226.616 417.696 C 241.632 413.655,254.166 410.217,254.468 410.057 C 254.910 409.822,255.546 403.884,257.692 379.976 C 259.162 363.592,260.461 349.137,260.579 347.854 L 260.793 345.522 174.324 345.522 L 87.855 345.522 85.694 321.362 C 84.506 308.074,81.537 274.785,79.096 247.388 C 76.655 219.991,74.571 196.861,74.463 195.989 L 74.268 194.403 199.442 194.403 L 324.615 194.403 324.422 196.549 M34.127 563.829 C 33.995 564.044,38.586 564.179,46.038 564.179 C 53.333 564.179,58.253 564.037,58.385 563.823 C 58.523 563.600,54.081 563.469,46.474 563.473 C 39.334 563.477,34.255 563.623,34.127 563.829 " stroke="none" fill="#e85326" fill-rule="evenodd"></path><path id="path3" d="M99.907 111.474 C 154.753 111.526,244.501 111.526,299.347 111.474 C 354.193 111.422,309.319 111.379,199.627 111.379 C 89.935 111.379,45.061 111.422,99.907 111.474 M320.236 241.045 C 320.236 241.763,320.313 242.057,320.406 241.698 C 320.500 241.339,320.500 240.751,320.406 240.392 C 320.313 240.033,320.236 240.326,320.236 241.045 M102.546 370.429 C 109.590 370.486,121.008 370.486,127.919 370.429 C 134.830 370.372,129.067 370.326,115.112 370.326 C 101.157 370.326,95.502 370.372,102.546 370.429 M258.296 373.134 C 258.296 373.853,258.372 374.146,258.466 373.787 C 258.560 373.428,258.560 372.840,258.466 372.481 C 258.372 372.122,258.296 372.416,258.296 373.134 M256.057 398.134 C 256.057 398.853,256.134 399.146,256.227 398.787 C 256.321 398.428,256.321 397.840,256.227 397.481 C 256.134 397.122,256.057 397.416,256.057 398.134 M255.684 402.239 C 255.684 402.957,255.760 403.251,255.854 402.892 C 255.948 402.533,255.948 401.945,255.854 401.586 C 255.760 401.227,255.684 401.521,255.684 402.239 M255.310 406.343 C 255.310 407.062,255.387 407.355,255.481 406.996 C 255.575 406.637,255.575 406.049,255.481 405.690 C 255.387 405.331,255.310 405.625,255.310 406.343 " stroke="none" fill="#e78f7b" fill-rule="evenodd"></path><path id="path4" d="M0.065 0.562 C 0.169 0.666,25.215 0.750,55.724 0.749 L 111.194 0.746 111.194 38.614 L 111.194 76.483 98.601 76.589 L 86.007 76.694 98.694 76.687 L 111.381 76.679 111.476 38.713 L 111.571 0.746 151.867 0.746 L 192.164 0.746 192.164 13.241 L 192.164 25.735 181.063 25.834 L 169.963 25.933 169.959 51.026 L 169.955 76.119 170.055 51.125 L 170.155 26.130 181.253 26.032 L 192.351 25.933 192.449 13.340 L 192.547 0.746 211.124 0.746 C 225.469 0.746,229.816 0.853,230.204 1.213 C 230.606 1.586,230.654 1.586,230.443 1.213 C 230.233 0.841,236.151 0.746,259.493 0.746 L 288.806 0.746 288.806 38.619 L 288.806 76.493 276.309 76.493 L 263.813 76.493 263.716 57.643 C 263.635 41.826,263.540 38.922,263.125 39.585 C 262.854 40.021,262.812 40.265,263.032 40.129 C 263.316 39.954,263.433 45.293,263.433 58.374 L 263.433 76.866 276.306 76.866 L 289.179 76.866 289.179 38.807 L 289.179 0.749 344.683 0.653 C 375.210 0.600,310.117 0.516,200.031 0.465 C 89.946 0.415,-0.039 0.458,0.065 0.562 M133.300 26.023 L 144.398 26.130 144.498 51.312 L 144.597 76.493 144.593 51.213 L 144.590 25.933 133.396 25.924 L 122.201 25.916 133.300 26.023 M62.930 51.399 C 62.835 51.553,66.141 51.636,70.278 51.584 C 84.585 51.402,85.960 51.279,74.556 51.199 C 68.257 51.155,63.026 51.245,62.930 51.399 M50.187 76.493 L 37.500 76.694 50.071 76.780 C 58.143 76.835,62.725 76.732,62.873 76.493 C 63.000 76.287,63.052 76.158,62.988 76.205 C 62.925 76.252,57.164 76.382,50.187 76.493 M151.213 76.772 C 154.650 76.833,160.275 76.833,163.713 76.772 C 167.150 76.710,164.338 76.660,157.463 76.660 C 150.588 76.660,147.775 76.710,151.213 76.772 M209.398 76.772 C 212.822 76.833,218.531 76.833,222.084 76.772 C 225.638 76.711,222.836 76.660,215.858 76.660 C 208.881 76.660,205.973 76.710,209.398 76.772 M316.884 76.772 C 325.247 76.828,338.932 76.828,347.295 76.772 C 355.658 76.716,348.815 76.670,332.090 76.670 C 315.364 76.670,308.521 76.716,316.884 76.772 M105.690 194.683 C 122.878 194.736,151.003 194.736,168.190 194.683 C 185.378 194.629,171.315 194.585,136.940 194.585 C 102.565 194.585,88.503 194.629,105.690 194.683 M115.765 345.429 C 131.105 345.483,156.208 345.483,171.549 345.429 C 186.889 345.375,174.338 345.331,143.657 345.331 C 112.976 345.331,100.424 345.375,115.765 345.429 M140.299 563.806 C 140.299 564.011,140.980 564.179,141.813 564.179 C 142.728 564.179,143.236 564.031,143.097 563.806 C 142.970 563.601,142.289 563.433,141.582 563.433 C 140.876 563.433,140.299 563.601,140.299 563.806 M146.455 563.806 C 146.316 564.031,146.824 564.179,147.739 564.179 C 148.572 564.179,149.254 564.011,149.254 563.806 C 149.254 563.601,148.676 563.433,147.970 563.433 C 147.264 563.433,146.582 563.601,146.455 563.806 M163.619 563.806 C 163.489 564.018,163.802 564.179,164.344 564.179 C 164.869 564.179,165.299 564.011,165.299 563.806 C 165.299 563.601,164.973 563.433,164.574 563.433 C 164.176 563.433,163.746 563.601,163.619 563.806 M166.418 563.806 C 166.418 564.011,166.838 564.179,167.351 564.179 C 167.864 564.179,168.284 564.011,168.284 563.806 C 168.284 563.601,167.864 563.433,167.351 563.433 C 166.838 563.433,166.418 563.601,166.418 563.806 " stroke="none" fill="#c7a8a1" fill-rule="evenodd"></path></g></svg>