<svg id="svg" xmlns="http://www.w3.org/2000/svg" xmlns:xlink="http://www.w3.org/1999/xlink" width="400" height="561.8661257606491" viewBox="0, 0, 400,561.8661257606491"><g id="svgg"><path id="path0" d="M0.000 280.800 L 0.000 561.600 200.000 561.600 L 400.000 561.600 400.000 280.800 L 400.000 0.000 335.300 -0.000 L 270.600 -0.001 270.713 10.400 L 270.826 20.800 254.613 20.800 C 243.863 20.800,238.400 20.937,238.400 21.208 C 238.400 21.579,242.791 26.407,264.690 50.114 L 272.000 58.028 272.000 67.016 L 272.000 76.004 236.700 75.902 L 201.400 75.800 201.400 65.400 L 201.400 55.000 218.257 54.800 L 235.113 54.600 218.144 36.200 L 201.174 17.800 201.287 8.900 L 201.400 -0.001 195.100 -0.000 L 188.800 0.000 188.800 38.000 L 188.800 76.000 158.400 76.000 L 128.000 76.000 128.000 63.400 L 128.000 50.800 145.594 50.800 L 163.188 50.800 163.294 25.400 L 163.400 -0.000 81.700 -0.000 L 0.000 0.000 0.000 280.800 M398.967 111.700 C 398.866 112.415,397.432 128.390,395.780 147.200 C 390.094 211.939,384.410 275.812,383.802 281.800 C 382.799 291.681,371.466 418.827,365.797 483.800 C 364.338 500.520,363.007 514.461,362.841 514.781 C 362.674 515.100,361.111 515.754,359.369 516.234 C 320.586 526.907,273.782 539.852,261.200 543.385 C 228.581 552.544,201.291 560.000,200.389 560.000 C 199.432 560.000,179.545 554.562,140.400 543.596 C 127.970 540.114,106.910 534.269,93.600 530.607 C 46.116 517.543,38.994 515.533,38.554 515.070 C 38.301 514.803,37.650 509.334,37.046 502.400 C 36.463 495.690,34.644 475.080,33.005 456.600 C 31.366 438.120,28.577 406.620,26.806 386.600 C 20.768 318.334,15.527 259.815,14.392 248.000 C 13.499 238.702,11.673 218.199,6.217 156.200 C 4.127 132.440,2.334 112.415,2.233 111.700 L 2.050 110.400 200.600 110.400 L 399.150 110.400 398.967 111.700 M108.168 162.451 C 107.783 163.074,104.608 195.557,101.215 233.600 C 98.155 267.899,97.265 277.756,95.997 291.400 C 93.827 314.763,91.600 340.064,91.600 341.358 L 91.600 342.800 176.392 342.800 L 261.185 342.800 260.978 344.500 C 260.779 346.136,259.478 360.846,256.760 392.200 C 256.054 400.340,255.435 407.054,255.385 407.120 C 255.335 407.186,250.277 408.583,244.147 410.225 C 238.016 411.867,225.558 415.210,216.461 417.654 L 199.922 422.098 172.499 414.740 C 154.606 409.939,144.970 407.176,144.773 406.791 C 144.606 406.466,143.811 398.460,143.006 389.000 C 142.200 379.540,141.440 370.855,141.316 369.700 L 141.090 367.600 116.145 367.600 C 102.425 367.600,91.203 367.735,91.207 367.900 C 91.210 368.065,92.188 379.000,93.379 392.200 C 94.569 405.400,96.120 422.680,96.825 430.600 C 97.570 438.983,98.292 445.183,98.553 445.438 C 98.799 445.679,107.370 448.171,117.600 450.977 C 127.830 453.783,140.970 457.431,146.800 459.085 C 152.630 460.738,166.989 464.745,178.708 467.989 L 200.016 473.889 215.108 469.730 C 229.895 465.655,250.487 459.926,267.600 455.127 C 272.330 453.800,281.920 451.139,288.911 449.213 C 295.902 447.287,301.713 445.621,301.823 445.511 C 302.012 445.321,302.407 441.099,305.796 403.000 C 306.559 394.420,307.904 379.300,308.785 369.400 C 310.944 345.139,312.107 332.009,313.781 313.000 C 314.556 304.200,315.300 296.145,315.433 295.100 L 315.675 293.200 230.861 293.200 C 184.213 293.200,145.975 293.065,145.886 292.900 C 145.798 292.735,146.055 289.090,146.457 284.800 C 146.859 280.510,148.460 263.146,150.015 246.213 C 151.569 229.280,152.895 215.372,152.961 215.306 C 153.158 215.108,194.417 214.011,202.400 213.991 C 208.992 213.974,260.320 216.693,260.786 217.083 C 260.916 217.192,265.261 263.434,265.580 268.100 C 265.591 268.265,276.867 268.400,290.638 268.400 L 315.675 268.400 315.441 266.500 C 315.313 265.455,314.937 261.540,314.607 257.800 C 314.277 254.060,312.839 237.950,311.411 222.000 C 308.991 194.973,307.841 181.657,306.783 168.400 C 306.546 165.430,306.279 162.775,306.189 162.500 C 305.962 161.808,108.596 161.760,108.168 162.451 " stroke="none" fill="#ffffff" fill-rule="evenodd"></path><path id="path1" d="M163.600 25.600 L 163.600 50.800 146.000 50.800 L 128.400 50.800 128.400 63.203 L 128.400 75.605 158.500 75.503 L 188.600 75.400 188.702 37.900 L 188.804 0.400 176.202 0.400 L 163.600 0.400 163.600 25.600 M201.600 9.039 L 201.600 17.677 203.100 19.367 C 204.360 20.788,216.050 33.497,231.768 50.537 C 233.766 52.702,235.460 54.637,235.533 54.837 C 235.612 55.051,228.659 55.200,218.626 55.200 L 201.586 55.200 201.693 65.300 L 201.800 75.400 236.700 75.502 L 271.600 75.604 271.600 66.848 L 271.600 58.092 266.100 52.123 C 263.075 48.841,255.425 40.550,249.100 33.700 C 242.775 26.850,237.600 21.146,237.600 21.023 C 237.600 20.900,244.980 20.800,254.000 20.800 L 270.400 20.800 270.400 10.600 L 270.400 0.400 236.000 0.400 L 201.600 0.400 201.600 9.039 " stroke="none" fill="#171717" fill-rule="evenodd"></path><path id="path2" d="M2.233 111.700 C 2.334 112.415,4.127 132.440,6.217 156.200 C 11.840 220.100,13.516 238.894,14.402 248.000 C 14.842 252.510,15.225 256.830,15.255 257.600 C 15.292 258.551,15.365 258.709,15.483 258.091 C 15.579 257.591,15.369 253.901,15.016 249.891 C 14.662 245.881,13.751 235.580,12.991 227.000 C 12.231 218.420,10.981 204.290,10.213 195.600 C 7.463 164.458,5.952 147.529,4.388 130.343 C 3.515 120.741,2.800 112.416,2.800 111.842 L 2.800 110.798 201.000 110.899 C 310.010 110.955,399.200 110.865,399.200 110.700 C 399.200 110.535,309.841 110.400,200.625 110.400 L 2.050 110.400 2.233 111.700 M398.501 114.200 C 398.505 115.080,398.587 115.393,398.683 114.895 C 398.779 114.398,398.775 113.678,398.675 113.295 C 398.575 112.913,398.496 113.320,398.501 114.200 M398.109 118.400 C 398.109 119.390,398.187 119.795,398.282 119.300 C 398.378 118.805,398.378 117.995,398.282 117.500 C 398.187 117.005,398.109 117.410,398.109 118.400 M397.709 123.200 C 397.709 124.190,397.787 124.595,397.882 124.100 C 397.978 123.605,397.978 122.795,397.882 122.300 C 397.787 121.805,397.709 122.210,397.709 123.200 M397.309 127.600 C 397.309 128.590,397.387 128.995,397.482 128.500 C 397.578 128.005,397.578 127.195,397.482 126.700 C 397.387 126.205,397.309 126.610,397.309 127.600 M396.909 132.000 C 396.909 132.990,396.987 133.395,397.082 132.900 C 397.178 132.405,397.178 131.595,397.082 131.100 C 396.987 130.605,396.909 131.010,396.909 132.000 M396.446 135.057 C 396.253 136.961,392.047 183.797,390.416 202.200 C 389.305 214.740,388.126 227.970,387.795 231.600 C 384.329 269.647,382.396 293.537,383.634 283.000 C 384.603 274.760,396.841 135.880,396.658 135.206 C 396.567 134.873,396.472 134.806,396.446 135.057 M200.000 152.198 L 200.000 161.597 153.900 161.698 L 107.800 161.800 107.704 162.800 C 107.609 163.785,107.614 163.787,107.991 162.900 L 108.374 162.000 207.200 162.000 C 285.906 162.000,306.058 162.102,306.189 162.500 C 306.279 162.775,306.546 165.430,306.783 168.400 C 307.841 181.657,308.991 194.973,311.411 222.000 C 312.839 237.950,314.277 254.060,314.607 257.800 C 314.937 261.540,315.313 265.455,315.441 266.500 L 315.675 268.400 290.638 268.400 C 276.867 268.400,265.591 268.265,265.580 268.100 C 265.261 263.434,260.916 217.192,260.786 217.083 C 260.320 216.693,208.992 213.974,202.400 213.991 C 194.418 214.011,153.158 215.108,152.961 215.306 C 152.779 215.488,147.592 272.052,147.652 273.200 C 147.721 274.528,148.233 270.042,149.180 259.800 C 151.646 233.161,153.287 215.791,153.345 215.727 C 153.382 215.688,160.159 215.465,168.406 215.234 C 176.653 215.002,187.135 214.696,191.700 214.554 L 200.000 214.296 200.000 253.548 L 200.000 292.800 173.033 292.800 C 155.016 292.800,145.999 292.664,145.863 292.390 C 145.751 292.165,145.706 292.210,145.763 292.490 C 145.847 292.901,162.344 293.020,230.771 293.101 L 315.675 293.202 315.433 295.101 C 315.300 296.145,314.557 304.200,313.783 313.000 C 311.785 335.696,306.932 390.329,303.216 431.955 C 302.560 439.300,301.933 445.400,301.823 445.511 C 301.713 445.621,295.902 447.287,288.911 449.213 C 281.920 451.139,272.240 453.826,267.400 455.185 C 253.589 459.061,227.029 466.445,213.000 470.308 L 200.200 473.833 200.097 499.744 C 200.000 524.300,200.031 525.645,200.697 525.454 C 201.084 525.343,205.450 524.149,210.400 522.800 C 215.350 521.452,221.920 519.650,225.000 518.797 C 228.080 517.944,234.290 516.230,238.800 514.987 C 243.310 513.745,250.420 511.767,254.600 510.593 C 290.693 500.452,289.225 500.860,318.745 492.784 C 325.865 490.836,331.743 489.188,331.807 489.121 C 331.870 489.055,332.394 483.690,332.970 477.200 C 334.527 459.661,336.613 436.091,338.422 415.600 C 340.810 388.549,342.682 367.525,343.784 355.400 C 344.323 349.460,345.132 340.550,345.582 335.600 C 346.031 330.650,346.841 321.740,347.382 315.800 C 349.940 287.669,352.545 258.775,354.196 240.200 C 355.194 228.980,356.453 214.850,356.994 208.800 C 357.535 202.750,358.705 189.520,359.595 179.400 C 360.484 169.280,361.569 157.092,362.006 152.316 C 362.443 147.540,362.800 143.445,362.800 143.216 C 362.800 142.929,337.507 142.800,281.400 142.800 L 200.000 142.800 200.000 152.198 M106.994 167.738 C 106.838 169.605,106.791 171.373,106.890 171.666 C 106.988 171.960,107.196 170.513,107.352 168.451 C 107.508 166.390,107.555 164.622,107.456 164.523 C 107.357 164.424,107.149 165.871,106.994 167.738 M106.446 172.948 C 106.421 173.360,105.681 180.920,104.803 189.748 C 102.809 209.781,97.582 268.598,97.652 270.207 C 97.739 272.216,98.248 267.001,101.181 234.000 C 102.736 216.510,104.648 195.757,105.430 187.883 C 106.212 180.009,106.771 173.259,106.672 172.883 C 106.517 172.292,106.487 172.300,106.446 172.948 M15.687 260.800 C 15.672 261.790,15.894 264.760,16.180 267.400 C 16.466 270.040,16.704 271.300,16.710 270.200 C 16.715 269.100,16.493 266.130,16.217 263.600 C 15.940 261.070,15.702 259.810,15.687 260.800 M97.324 273.800 C 97.326 275.120,97.401 275.612,97.490 274.893 C 97.579 274.174,97.577 273.094,97.486 272.493 C 97.395 271.892,97.322 272.480,97.324 273.800 M16.920 274.400 C 16.920 275.610,16.995 276.105,17.087 275.500 C 17.178 274.895,17.178 273.905,17.087 273.300 C 16.995 272.695,16.920 273.190,16.920 274.400 M147.320 276.400 C 147.320 277.610,147.395 278.105,147.487 277.500 C 147.578 276.895,147.578 275.905,147.487 275.300 C 147.395 274.695,147.320 275.190,147.320 276.400 M96.920 278.400 C 96.920 279.610,96.995 280.105,97.087 279.500 C 97.178 278.895,97.178 277.905,97.087 277.300 C 96.995 276.695,96.920 277.190,96.920 278.400 M17.320 278.800 C 17.320 280.010,17.395 280.505,17.487 279.900 C 17.578 279.295,17.578 278.305,17.487 277.700 C 17.395 277.095,17.320 277.590,17.320 278.800 M146.914 281.000 C 146.917 282.100,146.995 282.503,147.087 281.895 C 147.179 281.286,147.177 280.386,147.082 279.895 C 146.987 279.403,146.911 279.900,146.914 281.000 M96.218 284.818 C 96.060 287.044,96.017 288.950,96.121 289.054 C 96.225 289.159,96.441 287.424,96.600 285.200 C 96.759 282.976,96.803 281.070,96.697 280.964 C 96.592 280.858,96.376 282.593,96.218 284.818 M17.720 283.600 C 17.720 284.810,17.795 285.305,17.887 284.700 C 17.978 284.095,17.978 283.105,17.887 282.500 C 17.795 281.895,17.720 282.390,17.720 283.600 M146.520 285.600 C 146.520 286.810,146.595 287.305,146.687 286.700 C 146.778 286.095,146.778 285.105,146.687 284.500 C 146.595 283.895,146.520 284.390,146.520 285.600 M382.019 296.753 C 381.497 302.721,381.156 307.689,381.260 307.793 C 381.510 308.043,383.348 287.043,383.133 286.399 C 383.042 286.126,382.541 290.785,382.019 296.753 M18.109 288.000 C 18.109 288.990,18.187 289.395,18.282 288.900 C 18.378 288.405,18.378 287.595,18.282 287.100 C 18.187 286.605,18.109 287.010,18.109 288.000 M146.101 289.400 C 146.105 290.280,146.187 290.593,146.283 290.095 C 146.379 289.598,146.375 288.878,146.275 288.495 C 146.175 288.113,146.096 288.520,146.101 289.400 M95.720 291.600 C 95.720 292.810,95.795 293.305,95.887 292.700 C 95.978 292.095,95.978 291.105,95.887 290.500 C 95.795 289.895,95.720 290.390,95.720 291.600 M18.514 292.600 C 18.517 293.700,18.595 294.103,18.687 293.495 C 18.779 292.886,18.777 291.986,18.682 291.495 C 18.587 291.003,18.511 291.500,18.514 292.600 M95.314 295.800 C 95.317 296.900,95.395 297.303,95.487 296.695 C 95.579 296.086,95.577 295.186,95.482 294.695 C 95.387 294.203,95.311 294.700,95.314 295.800 M18.914 297.000 C 18.917 298.100,18.995 298.503,19.087 297.895 C 19.179 297.286,19.177 296.386,19.082 295.895 C 18.987 295.403,18.911 295.900,18.914 297.000 M94.920 300.400 C 94.920 301.610,94.995 302.105,95.087 301.500 C 95.178 300.895,95.178 299.905,95.087 299.300 C 94.995 298.695,94.920 299.190,94.920 300.400 M19.314 301.400 C 19.317 302.500,19.395 302.903,19.487 302.295 C 19.579 301.686,19.577 300.786,19.482 300.295 C 19.387 299.803,19.311 300.300,19.314 301.400 M94.514 305.000 C 94.517 306.100,94.595 306.503,94.687 305.895 C 94.779 305.286,94.777 304.386,94.682 303.895 C 94.587 303.403,94.511 303.900,94.514 305.000 M19.714 305.800 C 19.717 306.900,19.795 307.303,19.887 306.695 C 19.979 306.086,19.977 305.186,19.882 304.695 C 19.787 304.203,19.711 304.700,19.714 305.800 M94.109 309.600 C 94.109 310.590,94.187 310.995,94.282 310.500 C 94.378 310.005,94.378 309.195,94.282 308.700 C 94.187 308.205,94.109 308.610,94.109 309.600 M20.114 310.200 C 20.117 311.300,20.195 311.703,20.287 311.095 C 20.379 310.486,20.377 309.586,20.282 309.095 C 20.187 308.603,20.111 309.100,20.114 310.200 M380.920 310.400 C 380.920 311.610,380.995 312.105,381.087 311.500 C 381.178 310.895,381.178 309.905,381.087 309.300 C 380.995 308.695,380.920 309.190,380.920 310.400 M93.714 314.200 C 93.717 315.300,93.795 315.703,93.887 315.095 C 93.979 314.486,93.977 313.586,93.882 313.095 C 93.787 312.603,93.711 313.100,93.714 314.200 M20.514 315.000 C 20.517 316.100,20.595 316.503,20.687 315.895 C 20.779 315.286,20.777 314.386,20.682 313.895 C 20.587 313.403,20.511 313.900,20.514 315.000 M380.514 315.000 C 380.517 316.100,380.595 316.503,380.687 315.895 C 380.779 315.286,380.777 314.386,380.682 313.895 C 380.587 313.403,380.511 313.900,380.514 315.000 M93.309 318.800 C 93.309 319.790,93.387 320.195,93.482 319.700 C 93.578 319.205,93.578 318.395,93.482 317.900 C 93.387 317.405,93.309 317.810,93.309 318.800 M380.114 319.400 C 380.117 320.500,380.195 320.903,380.287 320.295 C 380.379 319.686,380.377 318.786,380.282 318.295 C 380.187 317.803,380.111 318.300,380.114 319.400 M20.909 319.600 C 20.909 320.590,20.987 320.995,21.082 320.500 C 21.178 320.005,21.178 319.195,21.082 318.700 C 20.987 318.205,20.909 318.610,20.909 319.600 M92.901 323.000 C 92.905 323.880,92.987 324.193,93.083 323.695 C 93.179 323.198,93.175 322.478,93.075 322.095 C 92.975 321.713,92.896 322.120,92.901 323.000 M379.709 324.000 C 379.709 324.990,379.787 325.395,379.882 324.900 C 379.978 324.405,379.978 323.595,379.882 323.100 C 379.787 322.605,379.709 323.010,379.709 324.000 M21.309 324.400 C 21.309 325.390,21.387 325.795,21.482 325.300 C 21.578 324.805,21.578 323.995,21.482 323.500 C 21.387 323.005,21.309 323.410,21.309 324.400 M92.509 327.200 C 92.509 328.190,92.587 328.595,92.682 328.100 C 92.778 327.605,92.778 326.795,92.682 326.300 C 92.587 325.805,92.509 326.210,92.509 327.200 M379.314 328.600 C 379.317 329.700,379.395 330.103,379.487 329.495 C 379.579 328.886,379.577 327.986,379.482 327.495 C 379.387 327.003,379.311 327.500,379.314 328.600 M21.701 328.600 C 21.705 329.480,21.787 329.793,21.883 329.295 C 21.979 328.798,21.975 328.078,21.875 327.695 C 21.775 327.313,21.696 327.720,21.701 328.600 M92.101 331.800 C 92.105 332.680,92.187 332.993,92.283 332.495 C 92.379 331.998,92.375 331.278,92.275 330.895 C 92.175 330.513,92.096 330.920,92.101 331.800 M22.114 333.000 C 22.117 334.100,22.195 334.503,22.287 333.895 C 22.379 333.286,22.377 332.386,22.282 331.895 C 22.187 331.403,22.111 331.900,22.114 333.000 M378.914 333.000 C 378.917 334.100,378.995 334.503,379.087 333.895 C 379.179 333.286,379.177 332.386,379.082 331.895 C 378.987 331.403,378.911 331.900,378.914 333.000 M91.709 336.400 C 91.709 337.390,91.787 337.795,91.882 337.300 C 91.978 336.805,91.978 335.995,91.882 335.500 C 91.787 335.005,91.709 335.410,91.709 336.400 M378.514 337.400 C 378.517 338.500,378.595 338.903,378.687 338.295 C 378.779 337.686,378.777 336.786,378.682 336.295 C 378.587 335.803,378.511 336.300,378.514 337.400 M22.509 337.600 C 22.509 338.590,22.587 338.995,22.682 338.500 C 22.778 338.005,22.778 337.195,22.682 336.700 C 22.587 336.205,22.509 336.610,22.509 337.600 M91.272 341.100 L 91.200 343.200 145.600 343.200 L 200.000 343.200 200.000 382.600 C 200.000 404.270,200.071 422.000,200.158 422.000 C 200.245 422.000,205.960 420.479,212.858 418.619 C 219.756 416.760,232.124 413.441,240.342 411.244 C 248.560 409.048,255.327 407.194,255.380 407.125 C 255.433 407.056,256.054 400.340,256.760 392.200 C 259.478 360.846,260.779 346.136,260.978 344.500 L 261.185 342.800 176.414 342.800 L 91.644 342.800 91.494 340.900 L 91.344 339.000 91.272 341.100 M378.114 341.800 C 378.117 342.900,378.195 343.303,378.287 342.695 C 378.379 342.086,378.377 341.186,378.282 340.695 C 378.187 340.203,378.111 340.700,378.114 341.800 M22.909 342.000 C 22.909 342.990,22.987 343.395,23.082 342.900 C 23.178 342.405,23.178 341.595,23.082 341.100 C 22.987 340.605,22.909 341.010,22.909 342.000 M377.709 346.400 C 377.709 347.390,377.787 347.795,377.882 347.300 C 377.978 346.805,377.978 345.995,377.882 345.500 C 377.787 345.005,377.709 345.410,377.709 346.400 M23.301 346.600 C 23.305 347.480,23.387 347.793,23.483 347.295 C 23.579 346.798,23.575 346.078,23.475 345.695 C 23.375 345.313,23.296 345.720,23.301 346.600 M377.314 351.000 C 377.317 352.100,377.395 352.503,377.487 351.895 C 377.579 351.286,377.577 350.386,377.482 349.895 C 377.387 349.403,377.311 349.900,377.314 351.000 M23.709 351.200 C 23.709 352.190,23.787 352.595,23.882 352.100 C 23.978 351.605,23.978 350.795,23.882 350.300 C 23.787 349.805,23.709 350.210,23.709 351.200 M376.909 355.600 C 376.909 356.590,376.987 356.995,377.082 356.500 C 377.178 356.005,377.178 355.195,377.082 354.700 C 376.987 354.205,376.909 354.610,376.909 355.600 M24.101 355.800 C 24.105 356.680,24.187 356.993,24.283 356.495 C 24.379 355.998,24.375 355.278,24.275 354.895 C 24.175 354.513,24.096 354.920,24.101 355.800 M376.509 360.000 C 376.509 360.990,376.587 361.395,376.682 360.900 C 376.778 360.405,376.778 359.595,376.682 359.100 C 376.587 358.605,376.509 359.010,376.509 360.000 M24.501 360.200 C 24.505 361.080,24.587 361.393,24.683 360.895 C 24.779 360.398,24.775 359.678,24.675 359.295 C 24.575 358.913,24.496 359.320,24.501 360.200 M24.909 364.800 C 24.909 365.790,24.987 366.195,25.082 365.700 C 25.178 365.205,25.178 364.395,25.082 363.900 C 24.987 363.405,24.909 363.810,24.909 364.800 M376.101 364.600 C 376.105 365.480,376.187 365.793,376.283 365.295 C 376.379 364.798,376.375 364.078,376.275 363.695 C 376.175 363.313,376.096 363.720,376.101 364.600 M91.067 367.467 C 90.920 367.613,90.803 367.928,90.806 368.167 C 90.810 368.426,90.939 368.400,91.128 368.103 C 91.373 367.718,97.052 367.582,116.422 367.500 L 141.400 367.394 116.367 367.297 C 102.598 367.244,91.213 367.320,91.067 367.467 M375.709 368.800 C 375.709 369.790,375.787 370.195,375.882 369.700 C 375.978 369.205,375.978 368.395,375.882 367.900 C 375.787 367.405,375.709 367.810,375.709 368.800 M25.309 369.200 C 25.309 370.190,25.387 370.595,25.482 370.100 C 25.578 369.605,25.578 368.795,25.482 368.300 C 25.387 367.805,25.309 368.210,25.309 369.200 M91.309 371.600 C 91.309 372.590,91.387 372.995,91.482 372.500 C 91.578 372.005,91.578 371.195,91.482 370.700 C 91.387 370.205,91.309 370.610,91.309 371.600 M25.709 373.600 C 25.709 374.590,25.787 374.995,25.882 374.500 C 25.978 374.005,25.978 373.195,25.882 372.700 C 25.787 372.205,25.709 372.610,25.709 373.600 M375.309 373.600 C 375.309 374.590,375.387 374.995,375.482 374.500 C 375.578 374.005,375.578 373.195,375.482 372.700 C 375.387 372.205,375.309 372.610,375.309 373.600 M141.701 373.800 C 141.705 374.680,141.787 374.993,141.883 374.495 C 141.979 373.998,141.975 373.278,141.875 372.895 C 141.775 372.513,141.696 372.920,141.701 373.800 M91.709 376.000 C 91.709 376.990,91.787 377.395,91.882 376.900 C 91.978 376.405,91.978 375.595,91.882 375.100 C 91.787 374.605,91.709 375.010,91.709 376.000 M374.909 378.000 C 374.909 378.990,374.987 379.395,375.082 378.900 C 375.178 378.405,375.178 377.595,375.082 377.100 C 374.987 376.605,374.909 377.010,374.909 378.000 M26.101 378.200 C 26.105 379.080,26.187 379.393,26.283 378.895 C 26.379 378.398,26.375 377.678,26.275 377.295 C 26.175 376.913,26.096 377.320,26.101 378.200 M142.093 378.400 C 142.093 379.170,142.175 379.485,142.276 379.100 C 142.376 378.715,142.376 378.085,142.276 377.700 C 142.175 377.315,142.093 377.630,142.093 378.400 M92.109 380.800 C 92.109 381.790,92.187 382.195,92.282 381.700 C 92.378 381.205,92.378 380.395,92.282 379.900 C 92.187 379.405,92.109 379.810,92.109 380.800 M26.509 382.800 C 26.509 383.790,26.587 384.195,26.682 383.700 C 26.778 383.205,26.778 382.395,26.682 381.900 C 26.587 381.405,26.509 381.810,26.509 382.800 M374.501 382.600 C 374.505 383.480,374.587 383.793,374.683 383.295 C 374.779 382.798,374.775 382.078,374.675 381.695 C 374.575 381.313,374.496 381.720,374.501 382.600 M142.501 383.000 C 142.505 383.880,142.587 384.193,142.683 383.695 C 142.779 383.198,142.775 382.478,142.675 382.095 C 142.575 381.713,142.496 382.120,142.501 383.000 M92.509 385.200 C 92.509 386.190,92.587 386.595,92.682 386.100 C 92.778 385.605,92.778 384.795,92.682 384.300 C 92.587 383.805,92.509 384.210,92.509 385.200 M374.101 387.000 C 374.105 387.880,374.187 388.193,374.283 387.695 C 374.379 387.198,374.375 386.478,374.275 386.095 C 374.175 385.713,374.096 386.120,374.101 387.000 M26.901 387.400 C 26.905 388.280,26.987 388.593,27.083 388.095 C 27.179 387.598,27.175 386.878,27.075 386.495 C 26.975 386.113,26.896 386.520,26.901 387.400 M142.893 387.200 C 142.893 387.970,142.975 388.285,143.076 387.900 C 143.176 387.515,143.176 386.885,143.076 386.500 C 142.975 386.115,142.893 386.430,142.893 387.200 M92.909 389.600 C 92.909 390.590,92.987 390.995,93.082 390.500 C 93.178 390.005,93.178 389.195,93.082 388.700 C 92.987 388.205,92.909 388.610,92.909 389.600 M143.293 391.600 C 143.293 392.370,143.375 392.685,143.476 392.300 C 143.576 391.915,143.576 391.285,143.476 390.900 C 143.375 390.515,143.293 390.830,143.293 391.600 M373.701 391.800 C 373.705 392.680,373.787 392.993,373.883 392.495 C 373.979 391.998,373.975 391.278,373.875 390.895 C 373.775 390.513,373.696 390.920,373.701 391.800 M27.293 392.000 C 27.293 392.770,27.375 393.085,27.476 392.700 C 27.576 392.315,27.576 391.685,27.476 391.300 C 27.375 390.915,27.293 391.230,27.293 392.000 M93.309 394.000 C 93.309 394.990,93.387 395.395,93.482 394.900 C 93.578 394.405,93.578 393.595,93.482 393.100 C 93.387 392.605,93.309 393.010,93.309 394.000 M143.701 396.200 C 143.705 397.080,143.787 397.393,143.883 396.895 C 143.979 396.398,143.975 395.678,143.875 395.295 C 143.775 394.913,143.696 395.320,143.701 396.200 M373.301 396.200 C 373.305 397.080,373.387 397.393,373.483 396.895 C 373.579 396.398,373.575 395.678,373.475 395.295 C 373.375 394.913,373.296 395.320,373.301 396.200 M27.701 396.600 C 27.705 397.480,27.787 397.793,27.883 397.295 C 27.979 396.798,27.975 396.078,27.875 395.695 C 27.775 395.313,27.696 395.720,27.701 396.600 M93.709 398.400 C 93.709 399.390,93.787 399.795,93.882 399.300 C 93.978 398.805,93.978 397.995,93.882 397.500 C 93.787 397.005,93.709 397.410,93.709 398.400 M372.909 400.400 C 372.909 401.390,372.987 401.795,373.082 401.300 C 373.178 400.805,373.178 399.995,373.082 399.500 C 372.987 399.005,372.909 399.410,372.909 400.400 M144.101 400.600 C 144.105 401.480,144.187 401.793,144.283 401.295 C 144.379 400.798,144.375 400.078,144.275 399.695 C 144.175 399.313,144.096 399.720,144.101 400.600 M28.101 401.000 C 28.105 401.880,28.187 402.193,28.283 401.695 C 28.379 401.198,28.375 400.478,28.275 400.095 C 28.175 399.713,28.096 400.120,28.101 401.000 M94.114 403.000 C 94.117 404.100,94.195 404.503,94.287 403.895 C 94.379 403.286,94.377 402.386,94.282 401.895 C 94.187 401.403,94.111 401.900,94.114 403.000 M28.514 405.000 C 28.517 406.100,28.595 406.503,28.687 405.895 C 28.779 405.286,28.777 404.386,28.682 403.895 C 28.587 403.403,28.511 403.900,28.514 405.000 M144.509 405.200 C 144.509 406.190,144.587 406.595,144.682 406.100 C 144.778 405.605,144.778 404.795,144.682 404.300 C 144.587 403.805,144.509 404.210,144.509 405.200 M372.501 405.000 C 372.505 405.880,372.587 406.193,372.683 405.695 C 372.779 405.198,372.775 404.478,372.675 404.095 C 372.575 403.713,372.496 404.120,372.501 405.000 M94.514 407.800 C 94.517 408.900,94.595 409.303,94.687 408.695 C 94.779 408.086,94.777 407.186,94.682 406.695 C 94.587 406.203,94.511 406.700,94.514 407.800 M147.400 407.946 C 147.840 408.139,148.830 408.410,149.600 408.550 C 150.561 408.724,150.749 408.694,150.200 408.454 C 149.760 408.261,148.770 407.990,148.000 407.850 C 147.039 407.676,146.851 407.706,147.400 407.946 M28.909 409.600 C 28.909 410.590,28.987 410.995,29.082 410.500 C 29.178 410.005,29.178 409.195,29.082 408.700 C 28.987 408.205,28.909 408.610,28.909 409.600 M372.109 409.600 C 372.109 410.590,372.187 410.995,372.282 410.500 C 372.378 410.005,372.378 409.195,372.282 408.700 C 372.187 408.205,372.109 408.610,372.109 409.600 M151.800 409.200 C 152.240 409.389,152.870 409.544,153.200 409.544 C 153.578 409.544,153.504 409.417,153.000 409.200 C 152.560 409.011,151.930 408.856,151.600 408.856 C 151.222 408.856,151.296 408.983,151.800 409.200 M94.914 412.200 C 94.917 413.300,94.995 413.703,95.087 413.095 C 95.179 412.486,95.177 411.586,95.082 411.095 C 94.987 410.603,94.911 411.100,94.914 412.200 M29.314 414.200 C 29.317 415.300,29.395 415.703,29.487 415.095 C 29.579 414.486,29.577 413.586,29.482 413.095 C 29.387 412.603,29.311 413.100,29.314 414.200 M371.701 414.200 C 371.705 415.080,371.787 415.393,371.883 414.895 C 371.979 414.398,371.975 413.678,371.875 413.295 C 371.775 412.913,371.696 413.320,371.701 414.200 M95.314 416.600 C 95.317 417.700,95.395 418.103,95.487 417.495 C 95.579 416.886,95.577 415.986,95.482 415.495 C 95.387 415.003,95.311 415.500,95.314 416.600 M29.714 418.600 C 29.717 419.700,29.795 420.103,29.887 419.495 C 29.979 418.886,29.977 417.986,29.882 417.495 C 29.787 417.003,29.711 417.500,29.714 418.600 M371.293 418.800 C 371.293 419.570,371.375 419.885,371.476 419.500 C 371.576 419.115,371.576 418.485,371.476 418.100 C 371.375 417.715,371.293 418.030,371.293 418.800 M95.720 420.800 C 95.720 422.010,95.795 422.505,95.887 421.900 C 95.978 421.295,95.978 420.305,95.887 419.700 C 95.795 419.095,95.720 419.590,95.720 420.800 M30.118 424.000 C 30.245 425.430,32.078 446.310,34.192 470.400 C 38.402 518.362,37.965 515.179,40.440 515.903 C 48.302 518.204,90.118 529.615,90.241 529.493 C 90.430 529.304,77.546 525.632,55.400 519.563 C 46.380 517.091,38.935 515.019,38.857 514.957 C 38.712 514.846,38.287 510.311,36.009 484.600 C 32.473 444.688,30.335 421.804,30.124 421.613 C 29.994 421.496,29.992 422.570,30.118 424.000 M370.901 423.400 C 370.905 424.280,370.987 424.593,371.083 424.095 C 371.179 423.598,371.175 422.878,371.075 422.495 C 370.975 422.113,370.896 422.520,370.901 423.400 M96.114 425.400 C 96.117 426.500,96.195 426.903,96.287 426.295 C 96.379 425.686,96.377 424.786,96.282 424.295 C 96.187 423.803,96.111 424.300,96.114 425.400 M370.501 427.800 C 370.505 428.680,370.587 428.993,370.683 428.495 C 370.779 427.998,370.775 427.278,370.675 426.895 C 370.575 426.513,370.496 426.920,370.501 427.800 M96.508 429.400 C 96.500 430.500,96.625 432.570,96.786 434.000 C 97.062 436.455,97.079 436.489,97.092 434.600 C 97.100 433.500,96.975 431.430,96.814 430.000 C 96.538 427.545,96.521 427.511,96.508 429.400 M370.093 432.400 C 370.093 433.170,370.175 433.485,370.276 433.100 C 370.376 432.715,370.376 432.085,370.276 431.700 C 370.175 431.315,370.093 431.630,370.093 432.400 M369.693 436.800 C 369.693 437.570,369.775 437.885,369.876 437.500 C 369.976 437.115,369.976 436.485,369.876 436.100 C 369.775 435.715,369.693 436.030,369.693 436.800 M97.471 441.000 C 97.692 445.562,97.778 446.000,98.447 446.000 C 98.673 446.000,98.706 445.782,98.524 445.500 C 98.346 445.225,97.988 443.110,97.729 440.800 L 97.258 436.600 97.471 441.000 M369.314 441.000 C 369.317 442.100,369.395 442.503,369.487 441.895 C 369.579 441.286,369.577 440.386,369.482 439.895 C 369.387 439.403,369.311 439.900,369.314 441.000 M368.909 445.600 C 368.909 446.590,368.987 446.995,369.082 446.500 C 369.178 446.005,369.178 445.195,369.082 444.700 C 368.987 444.205,368.909 444.610,368.909 445.600 M102.014 446.978 C 102.792 447.264,104.052 447.607,104.814 447.739 C 105.576 447.872,105.120 447.627,103.800 447.195 C 101.133 446.324,99.798 446.161,102.014 446.978 M106.437 448.171 C 106.608 448.341,121.808 452.619,141.345 457.996 C 147.035 459.562,151.763 460.770,151.853 460.681 C 152.033 460.501,149.158 459.680,124.131 452.769 C 107.423 448.155,106.070 447.803,106.437 448.171 M368.509 450.000 C 368.509 450.990,368.587 451.395,368.682 450.900 C 368.778 450.405,368.778 449.595,368.682 449.100 C 368.587 448.605,368.509 449.010,368.509 450.000 M368.000 453.132 C 368.000 453.502,365.634 479.942,362.864 510.526 C 362.669 512.685,362.349 514.599,362.154 514.779 C 361.959 514.960,354.510 517.108,345.600 519.552 C 322.563 525.873,313.934 528.329,313.649 528.644 C 313.330 528.996,311.341 529.525,338.600 522.004 C 351.580 518.422,362.396 515.291,362.636 515.046 C 363.114 514.557,368.637 453.304,368.239 452.906 C 368.108 452.774,368.000 452.876,368.000 453.132 M153.000 461.146 C 153.440 461.339,154.430 461.610,155.200 461.750 C 156.161 461.924,156.349 461.894,155.800 461.654 C 155.360 461.461,154.370 461.190,153.600 461.050 C 152.639 460.876,152.451 460.906,153.000 461.146 M309.800 529.600 C 309.296 529.817,309.222 529.944,309.600 529.944 C 309.930 529.944,310.560 529.789,311.000 529.600 C 311.504 529.383,311.578 529.256,311.200 529.256 C 310.870 529.256,310.240 529.411,309.800 529.600 M91.400 530.000 C 91.840 530.189,92.470 530.344,92.800 530.344 C 93.178 530.344,93.104 530.217,92.600 530.000 C 92.160 529.811,91.530 529.656,91.200 529.656 C 90.822 529.656,90.896 529.783,91.400 530.000 M98.600 532.000 C 99.040 532.189,99.670 532.344,100.000 532.344 C 100.378 532.344,100.304 532.217,99.800 532.000 C 99.360 531.811,98.730 531.656,98.400 531.656 C 98.022 531.656,98.096 531.783,98.600 532.000 M121.800 538.400 C 122.240 538.589,122.870 538.744,123.200 538.744 C 123.578 538.744,123.504 538.617,123.000 538.400 C 122.560 538.211,121.930 538.056,121.600 538.056 C 121.222 538.056,121.296 538.183,121.800 538.400 M277.800 538.400 C 277.296 538.617,277.222 538.744,277.600 538.744 C 277.930 538.744,278.560 538.589,279.000 538.400 C 279.504 538.183,279.578 538.056,279.200 538.056 C 278.870 538.056,278.240 538.211,277.800 538.400 M126.200 539.600 C 126.640 539.789,127.270 539.944,127.600 539.944 C 127.978 539.944,127.904 539.817,127.400 539.600 C 126.960 539.411,126.330 539.256,126.000 539.256 C 125.622 539.256,125.696 539.383,126.200 539.600 M130.600 540.799 C 131.920 541.228,133.540 541.669,134.200 541.779 C 134.860 541.890,134.320 541.629,133.000 541.201 C 131.680 540.772,130.060 540.331,129.400 540.221 C 128.740 540.110,129.280 540.371,130.600 540.799 M268.863 540.809 C 265.790 541.716,264.990 542.061,266.600 541.785 C 268.254 541.501,272.739 540.074,272.000 540.067 C 271.670 540.064,270.258 540.398,268.863 540.809 M137.200 542.651 C 141.474 544.009,186.514 556.420,186.655 556.278 C 186.818 556.115,180.277 554.224,163.400 549.553 C 157.900 548.031,149.520 545.708,144.777 544.393 C 136.835 542.189,132.897 541.284,137.200 542.651 M263.400 542.400 C 262.896 542.617,262.822 542.744,263.200 542.744 C 263.530 542.744,264.160 542.589,264.600 542.400 C 265.104 542.183,265.178 542.056,264.800 542.056 C 264.470 542.056,263.840 542.211,263.400 542.400 M245.800 547.198 C 237.220 549.591,227.812 552.217,224.893 553.034 C 221.975 553.851,219.665 554.598,219.760 554.693 C 219.937 554.870,262.053 543.280,262.364 542.970 C 262.820 542.513,260.230 543.174,245.800 547.198 M216.000 555.583 C 214.790 555.987,213.980 556.334,214.200 556.354 C 214.420 556.373,215.680 556.048,217.000 555.631 C 218.320 555.214,219.130 554.868,218.800 554.861 C 218.470 554.854,217.210 555.179,216.000 555.583 M192.200 558.000 C 192.640 558.189,193.270 558.344,193.600 558.344 C 193.978 558.344,193.904 558.217,193.400 558.000 C 192.960 557.811,192.330 557.656,192.000 557.656 C 191.622 557.656,191.696 557.783,192.200 558.000 M207.400 558.000 C 206.896 558.217,206.822 558.344,207.200 558.344 C 207.530 558.344,208.160 558.189,208.600 558.000 C 209.104 557.783,209.178 557.656,208.800 557.656 C 208.470 557.656,207.840 557.811,207.400 558.000 " stroke="none" fill="#fcd204" fill-rule="evenodd"></path><path id="path3" d="M163.384 0.500 C 163.279 0.775,163.241 12.250,163.299 26.000 L 163.406 51.000 163.503 25.706 L 163.600 0.411 176.300 0.300 L 189.000 0.188 176.287 0.094 C 166.416 0.021,163.532 0.112,163.384 0.500 M201.469 0.264 C 201.321 0.412,201.200 4.425,201.200 9.181 L 201.200 17.829 214.632 32.414 C 222.020 40.436,228.903 47.810,229.928 48.800 C 231.760 50.569,231.757 50.562,229.756 48.400 C 223.796 41.959,204.391 20.825,203.100 19.369 L 201.600 17.677 201.600 9.039 L 201.600 0.400 235.993 0.400 L 270.386 0.400 270.503 10.500 L 270.620 20.600 270.610 10.400 L 270.600 0.200 236.169 0.098 C 217.232 0.042,201.617 0.117,201.469 0.264 M237.600 21.023 C 237.600 21.146,242.775 26.850,249.100 33.700 C 255.425 40.550,263.075 48.841,266.100 52.123 L 271.600 58.092 271.600 66.848 L 271.600 75.604 236.700 75.502 L 201.800 75.400 201.693 65.300 L 201.586 55.200 218.626 55.200 C 228.426 55.200,235.610 55.049,235.533 54.844 C 235.328 54.296,232.020 50.800,231.707 50.800 C 231.555 50.800,232.315 51.698,233.396 52.796 L 235.361 54.791 218.381 54.896 L 201.400 55.000 201.400 65.400 L 201.400 75.800 236.700 75.902 L 272.000 76.004 272.000 67.026 L 272.000 58.048 255.500 40.176 C 246.425 30.345,238.837 21.965,238.639 21.551 C 238.307 20.861,237.600 20.501,237.600 21.023 M128.094 63.300 L 128.000 76.000 158.400 76.000 C 175.120 76.000,188.800 75.865,188.800 75.700 C 188.800 75.535,175.213 75.447,158.606 75.505 L 128.411 75.610 128.300 63.105 L 128.188 50.600 128.094 63.300 " stroke="none" fill="#949494" fill-rule="evenodd"></path><path id="path4" d="M2.800 111.843 C 2.800 112.416,3.515 120.741,4.388 130.343 C 6.273 151.059,7.937 169.769,13.200 229.400 C 14.093 239.520,15.444 254.820,16.201 263.400 C 16.959 271.980,18.307 287.280,19.198 297.400 C 20.088 307.520,21.349 321.830,22.001 329.200 C 22.652 336.570,24.000 351.870,24.997 363.200 C 27.127 387.410,28.081 398.028,29.399 412.200 C 31.737 437.324,34.453 467.050,35.795 482.200 C 38.291 510.375,38.709 514.843,38.857 514.958 C 38.935 515.020,46.740 517.191,56.200 519.783 C 65.660 522.375,78.080 525.841,83.800 527.484 C 95.128 530.738,102.079 532.675,121.000 537.851 C 127.820 539.717,137.630 542.415,142.800 543.847 C 147.970 545.278,155.800 547.442,160.200 548.655 C 164.600 549.868,175.440 552.925,184.288 555.449 L 200.377 560.038 215.088 555.847 C 223.180 553.542,236.730 549.743,245.200 547.404 C 253.670 545.066,263.120 542.452,266.200 541.596 C 269.280 540.739,275.760 538.962,280.600 537.646 C 290.449 534.968,309.240 529.784,312.000 528.983 C 321.059 526.355,331.965 523.294,345.600 519.552 C 354.510 517.108,361.959 514.960,362.154 514.779 C 362.349 514.599,362.669 512.685,362.864 510.526 C 364.642 490.896,368.195 452.208,368.808 445.800 C 369.230 441.400,370.125 431.590,370.798 424.000 C 373.063 398.446,374.777 379.080,375.984 365.400 C 378.440 337.557,380.869 309.992,383.986 274.600 C 385.749 254.580,387.462 235.230,387.794 231.600 C 388.125 227.970,389.305 214.740,390.416 202.200 C 392.214 181.910,394.465 157.154,397.401 125.400 C 397.930 119.680,398.474 114.055,398.610 112.900 L 398.858 110.800 200.829 110.800 L 2.800 110.800 2.800 111.843 M362.800 143.216 C 362.800 143.445,362.443 147.540,362.006 152.316 C 361.569 157.092,360.484 169.280,359.595 179.400 C 358.705 189.520,357.535 202.750,356.994 208.800 C 356.453 214.850,355.194 228.980,354.196 240.200 C 352.545 258.775,349.940 287.669,347.382 315.800 C 346.841 321.740,346.031 330.650,345.582 335.600 C 345.132 340.550,344.323 349.460,343.784 355.400 C 342.682 367.525,340.810 388.549,338.422 415.600 C 336.613 436.091,334.527 459.661,332.970 477.200 C 332.394 483.690,331.870 489.055,331.807 489.121 C 331.743 489.188,325.865 490.836,318.745 492.784 C 294.302 499.471,287.774 501.273,275.000 504.862 C 267.960 506.840,258.780 509.419,254.600 510.593 C 250.420 511.767,243.310 513.745,238.800 514.987 C 234.290 516.230,228.080 517.944,225.000 518.797 C 221.920 519.650,215.350 521.452,210.400 522.800 C 205.450 524.149,201.085 525.343,200.700 525.453 C 200.039 525.643,200.000 524.237,200.000 499.902 L 200.000 474.149 196.300 473.094 C 194.265 472.513,184.320 469.771,174.200 466.999 C 141.981 458.175,115.669 450.899,106.600 448.307 L 97.800 445.791 96.736 433.596 C 95.686 421.559,93.592 397.872,91.822 378.000 C 91.322 372.390,90.989 367.665,91.080 367.500 C 91.172 367.335,102.478 367.200,116.205 367.200 L 141.164 367.200 141.378 368.500 C 141.600 369.846,144.801 405.319,144.800 406.423 C 144.800 406.855,145.569 407.238,147.300 407.669 C 148.675 408.011,155.470 409.836,162.400 411.725 C 169.330 413.613,180.625 416.666,187.500 418.509 L 200.000 421.860 200.000 382.530 L 200.000 343.200 145.600 343.200 L 91.200 343.200 91.199 342.300 C 91.198 341.805,91.913 333.390,92.788 323.600 C 94.394 305.625,95.307 295.303,100.399 237.600 C 101.943 220.110,103.937 198.510,104.831 189.600 C 105.725 180.690,106.635 171.549,106.852 169.287 C 107.069 167.025,107.376 164.415,107.534 163.487 L 107.822 161.800 153.911 161.698 L 200.000 161.597 200.000 152.198 L 200.000 142.800 281.400 142.800 C 337.507 142.800,362.800 142.929,362.800 143.216 M188.400 214.684 C 187.410 214.730,179.136 214.964,170.013 215.204 C 160.890 215.444,153.393 215.677,153.352 215.720 C 153.312 215.764,152.532 223.810,151.618 233.600 C 150.705 243.390,149.612 255.090,149.189 259.600 C 148.766 264.110,147.967 272.660,147.414 278.600 C 146.860 284.540,146.295 290.165,146.158 291.100 L 145.909 292.800 172.955 292.800 L 200.000 292.800 200.000 253.579 L 200.000 214.357 195.100 214.479 C 192.405 214.545,189.390 214.638,188.400 214.684 " stroke="none" fill="#fcc404" fill-rule="evenodd"></path></g></svg>