<svg id="svg" xmlns="http://www.w3.org/2000/svg" xmlns:xlink="http://www.w3.org/1999/xlink" width="400" height="561.6473616473617" viewBox="0, 0, 400,561.6473616473617"><g id="svgg"><path id="path0" d="M1.072 116.900 C 1.346 121.135,1.754 125.680,1.978 127.000 C 2.203 128.320,2.575 132.280,2.806 135.800 C 3.036 139.320,3.414 143.730,3.647 145.600 C 4.033 148.714,4.468 153.710,6.189 174.800 C 6.521 178.870,6.988 183.640,7.227 185.400 C 7.465 187.160,8.000 192.830,8.415 198.000 C 8.830 203.170,9.445 210.820,9.782 215.000 C 10.120 219.180,10.591 224.040,10.830 225.800 C 11.069 227.560,11.607 233.320,12.026 238.600 C 13.588 258.303,14.004 263.081,14.427 266.200 C 14.665 267.960,15.212 273.720,15.641 279.000 C 17.097 296.909,17.950 306.596,18.194 308.000 C 18.327 308.770,18.799 313.900,19.242 319.400 C 20.485 334.844,21.539 346.838,21.807 348.600 C 21.941 349.480,22.404 354.520,22.836 359.800 C 24.355 378.360,25.153 387.414,25.394 388.800 C 25.527 389.570,25.999 394.700,26.442 400.200 C 27.803 417.102,28.736 427.734,28.989 429.200 C 29.122 429.970,29.598 435.100,30.048 440.600 C 31.599 459.565,33.240 478.121,34.204 487.600 C 34.550 491.010,35.105 497.220,35.436 501.400 C 36.163 510.574,36.611 514.744,36.901 515.034 C 37.114 515.247,38.028 515.521,44.800 517.402 C 46.670 517.922,49.550 518.732,51.200 519.204 C 52.850 519.675,55.460 520.402,57.000 520.820 C 64.304 522.799,70.286 524.457,76.400 526.196 C 80.972 527.497,84.708 528.508,89.000 529.606 C 90.760 530.056,92.560 530.589,93.000 530.790 C 93.743 531.130,96.742 531.948,102.600 533.409 C 103.920 533.739,105.360 534.175,105.800 534.380 C 106.240 534.584,107.770 535.029,109.200 535.369 C 113.706 536.438,118.170 537.631,119.000 537.988 C 119.440 538.177,120.970 538.621,122.400 538.973 C 124.833 539.574,126.656 540.078,135.500 542.597 C 137.425 543.145,140.170 543.870,141.600 544.208 C 143.030 544.546,144.560 544.988,145.000 545.189 C 145.743 545.530,148.735 546.347,154.600 547.809 C 155.920 548.139,157.360 548.571,157.800 548.770 C 158.240 548.969,159.770 549.421,161.200 549.775 C 162.630 550.129,165.420 550.875,167.400 551.434 C 169.380 551.992,172.080 552.713,173.400 553.035 C 174.720 553.358,176.160 553.793,176.600 554.002 C 177.040 554.211,178.750 554.678,180.400 555.039 C 182.050 555.400,183.580 555.808,183.800 555.946 C 184.020 556.083,185.370 556.498,186.800 556.867 C 190.713 557.878,196.442 559.456,197.831 559.906 C 198.730 560.197,199.484 560.155,200.631 559.749 C 201.494 559.444,203.460 558.915,205.000 558.573 C 206.540 558.232,208.160 557.785,208.600 557.580 C 209.040 557.375,210.480 556.939,211.800 556.609 C 217.668 555.146,220.657 554.330,221.400 553.989 C 221.840 553.787,223.280 553.361,224.600 553.042 C 225.920 552.724,228.350 552.081,230.000 551.614 C 231.650 551.148,234.620 550.322,236.600 549.779 C 238.580 549.237,241.550 548.410,243.200 547.941 C 244.850 547.473,247.730 546.678,249.600 546.174 C 251.470 545.671,254.620 544.799,256.600 544.237 C 258.580 543.675,261.370 542.926,262.800 542.573 C 264.230 542.221,265.760 541.769,266.200 541.570 C 266.640 541.371,268.080 540.937,269.400 540.607 C 272.472 539.837,278.009 538.340,282.600 537.037 C 284.580 536.475,287.370 535.726,288.800 535.373 C 290.230 535.021,291.760 534.573,292.200 534.378 C 292.640 534.183,294.440 533.651,296.200 533.195 C 300.193 532.161,303.960 531.139,308.600 529.833 C 310.580 529.275,313.370 528.529,314.800 528.175 C 316.230 527.821,317.760 527.373,318.200 527.178 C 318.640 526.983,320.440 526.456,322.200 526.006 C 326.492 524.908,330.228 523.897,334.800 522.596 C 343.703 520.064,347.010 519.146,353.400 517.439 C 355.380 516.909,357.540 516.294,358.200 516.071 C 358.860 515.848,359.877 515.562,360.459 515.436 C 361.861 515.131,362.227 513.438,362.802 504.600 C 363.045 500.860,363.428 496.270,363.653 494.400 C 364.037 491.201,364.617 484.667,366.371 463.800 C 366.778 458.960,367.321 453.110,367.578 450.800 C 368.036 446.674,368.644 439.683,369.786 425.400 C 370.103 421.440,370.651 415.500,371.004 412.200 C 371.628 406.372,372.197 399.873,373.386 385.000 C 373.703 381.040,374.251 375.100,374.604 371.800 C 375.260 365.676,375.849 358.952,377.169 342.550 C 377.578 337.463,378.033 332.588,378.180 331.718 C 378.439 330.185,379.205 321.477,380.795 302.006 C 381.216 296.839,381.671 291.965,381.804 291.174 C 382.033 289.820,382.622 283.136,384.375 262.000 C 384.786 257.050,385.327 251.110,385.578 248.800 C 386.142 243.604,387.000 233.920,387.987 221.600 C 388.402 216.430,388.931 210.670,389.163 208.800 C 389.395 206.930,389.777 202.610,390.012 199.200 C 390.247 195.790,390.604 192.010,390.807 190.800 C 391.010 189.590,391.370 185.540,391.607 181.800 C 391.844 178.060,392.292 172.840,392.602 170.200 C 392.913 167.560,393.366 162.430,393.610 158.800 C 393.853 155.170,394.158 151.840,394.286 151.400 C 394.414 150.960,394.844 146.640,395.241 141.800 C 395.639 136.960,396.317 128.680,396.749 123.400 C 397.181 118.120,397.648 112.765,397.787 111.500 L 398.040 109.200 199.307 109.200 L 0.574 109.200 1.072 116.900 M361.742 144.600 C 361.711 145.920,361.208 152.220,360.624 158.600 C 360.041 164.980,359.212 174.340,358.783 179.400 C 358.355 184.460,357.909 189.320,357.793 190.200 C 357.676 191.080,357.220 196.030,356.778 201.200 C 355.546 215.609,353.832 234.947,352.594 248.400 C 351.079 264.871,350.354 272.966,349.982 277.600 C 349.761 280.350,349.397 284.490,349.174 286.800 C 348.950 289.110,348.507 294.060,348.189 297.800 C 347.870 301.540,347.338 307.480,347.006 311.000 C 346.206 319.484,345.351 329.016,344.404 340.000 C 343.978 344.950,343.350 352.060,343.009 355.800 C 342.668 359.540,342.031 366.605,341.594 371.500 C 341.157 376.395,340.441 384.405,340.003 389.300 C 339.564 394.195,338.753 403.330,338.200 409.600 C 337.647 415.870,336.929 423.880,336.606 427.400 C 336.282 430.920,335.387 441.000,334.617 449.800 C 333.847 458.600,333.032 467.600,332.806 469.800 C 332.579 472.000,332.111 477.220,331.765 481.400 C 331.420 485.580,331.006 489.136,330.846 489.303 C 330.686 489.469,326.965 490.600,322.577 491.816 C 307.765 495.922,306.220 496.351,296.600 499.020 C 291.320 500.486,285.830 502.005,284.400 502.396 C 282.970 502.788,278.740 503.958,275.000 504.997 C 271.260 506.036,267.030 507.205,265.600 507.594 C 264.170 507.984,259.940 509.159,256.200 510.206 C 252.460 511.253,248.230 512.429,246.800 512.819 C 245.370 513.210,242.220 514.077,239.800 514.746 C 237.380 515.416,231.530 517.034,226.800 518.342 C 214.586 521.721,202.439 525.106,200.803 525.588 C 200.034 525.815,199.359 526.000,199.303 526.000 C 199.246 526.000,199.200 514.493,199.200 500.428 L 199.200 474.857 196.900 474.176 C 193.764 473.248,189.488 472.084,186.600 471.371 C 185.280 471.045,183.840 470.613,183.400 470.411 C 182.960 470.209,181.160 469.673,179.400 469.219 C 176.299 468.420,174.864 468.032,166.800 465.812 C 164.710 465.237,161.740 464.422,160.200 464.000 C 158.660 463.578,155.690 462.762,153.600 462.186 C 151.510 461.610,148.630 460.824,147.200 460.438 C 145.770 460.052,144.330 459.627,144.000 459.493 C 143.425 459.260,139.720 458.272,134.600 456.987 C 133.280 456.656,131.930 456.269,131.600 456.127 C 130.966 455.854,125.437 454.359,121.400 453.368 C 120.080 453.044,118.640 452.613,118.200 452.411 C 117.760 452.209,115.960 451.673,114.200 451.219 C 105.614 449.006,98.077 446.869,97.201 446.400 C 96.307 445.922,96.189 445.185,95.413 435.200 C 94.542 424.005,93.671 413.878,93.178 409.200 C 92.934 406.890,92.390 400.860,91.970 395.800 C 91.550 390.740,90.953 383.720,90.644 380.200 C 90.334 376.680,90.018 372.360,89.940 370.600 L 89.800 367.400 114.911 367.297 C 136.084 367.210,140.056 367.281,140.237 367.752 C 140.354 368.058,140.796 372.425,141.218 377.455 C 141.639 382.485,142.339 390.836,142.773 396.013 C 143.760 407.795,143.521 407.148,147.234 408.089 C 150.166 408.831,152.189 409.375,159.600 411.410 C 161.690 411.984,164.660 412.794,166.200 413.210 C 167.740 413.626,170.710 414.436,172.800 415.010 C 174.890 415.584,177.860 416.389,179.400 416.798 C 180.940 417.207,183.910 418.018,186.000 418.600 C 188.090 419.182,191.060 419.982,192.600 420.377 C 194.140 420.772,195.907 421.299,196.526 421.548 C 199.472 422.731,199.200 426.698,199.200 382.600 L 199.200 343.200 143.424 343.200 C 106.536 343.200,87.563 343.064,87.399 342.799 C 87.263 342.578,86.896 339.023,86.585 334.899 C 86.274 330.774,85.916 326.860,85.790 326.200 C 85.664 325.540,85.205 320.680,84.772 315.400 C 84.338 310.120,83.826 304.360,83.635 302.600 C 83.443 300.840,83.173 297.915,83.034 296.100 L 82.781 292.800 140.991 292.800 L 199.200 292.800 199.200 267.401 L 199.200 242.003 138.700 241.901 L 78.200 241.800 77.530 233.200 C 77.161 228.470,76.751 223.970,76.619 223.200 C 76.487 222.430,76.115 218.470,75.792 214.400 C 75.469 210.330,75.040 205.650,74.838 204.000 C 74.636 202.350,74.342 198.975,74.184 196.500 L 73.897 192.000 136.549 192.000 L 199.200 192.000 199.200 167.267 C 199.200 153.663,199.320 142.413,199.468 142.266 C 199.615 142.119,236.200 142.044,280.768 142.099 L 361.800 142.200 361.742 144.600 " stroke="none" fill="#244ce4" fill-rule="evenodd"></path><path id="path1" d="M0.000 54.400 L 0.000 108.800 199.248 108.800 L 398.495 108.800 398.217 112.700 C 398.064 114.845,397.683 119.300,397.370 122.600 C 397.057 125.900,396.621 130.760,396.401 133.400 C 396.029 137.859,395.318 145.785,393.781 162.600 C 393.440 166.340,392.902 172.550,392.587 176.400 C 392.272 180.250,391.836 185.020,391.617 187.000 C 391.399 188.980,391.026 193.120,390.788 196.200 C 390.550 199.280,390.108 204.320,389.805 207.400 C 389.501 210.480,389.153 214.260,389.029 215.800 C 388.774 219.000,387.470 233.535,386.590 243.000 C 386.263 246.520,385.628 253.630,385.179 258.800 C 384.731 263.970,384.015 272.070,383.589 276.800 C 383.162 281.530,382.456 289.630,382.019 294.800 C 381.582 299.970,381.126 304.920,381.007 305.800 C 380.887 306.680,380.437 311.540,380.006 316.600 C 379.576 321.660,378.761 330.930,378.196 337.200 C 377.631 343.470,376.821 352.560,376.396 357.400 C 375.972 362.240,375.162 371.330,374.596 377.600 C 374.031 383.870,373.220 392.960,372.792 397.800 C 372.082 405.848,371.643 410.771,369.202 438.000 C 367.145 460.939,366.335 470.071,365.599 478.600 C 365.163 483.660,364.715 488.430,364.603 489.200 C 364.492 489.970,364.226 492.940,364.011 495.800 C 363.334 504.846,362.284 514.988,361.991 515.326 C 361.835 515.505,360.469 515.981,358.954 516.382 C 357.439 516.784,352.870 518.052,348.800 519.200 C 344.730 520.348,340.500 521.520,339.400 521.804 C 338.300 522.089,335.780 522.774,333.800 523.327 C 325.467 525.656,315.261 528.490,313.400 528.993 C 312.300 529.290,309.690 530.012,307.600 530.598 C 302.356 532.069,300.221 532.661,287.400 536.202 C 276.708 539.155,274.234 539.841,268.100 541.554 C 262.916 543.002,251.780 546.091,249.200 546.797 C 247.770 547.189,244.620 548.060,242.200 548.733 C 232.553 551.416,218.456 555.324,216.000 555.996 C 214.570 556.388,210.340 557.567,206.600 558.616 C 202.860 559.665,199.440 560.523,199.000 560.523 C 198.560 560.523,195.140 559.665,191.400 558.616 C 187.660 557.567,183.430 556.391,182.000 556.003 C 180.570 555.614,176.070 554.351,172.000 553.195 C 167.930 552.039,163.700 550.865,162.600 550.586 C 160.567 550.070,159.112 549.668,146.000 545.992 C 141.930 544.852,136.080 543.236,133.000 542.403 C 129.920 541.569,127.130 540.790,126.800 540.670 C 126.470 540.551,123.770 539.799,120.800 538.998 C 117.830 538.197,114.590 537.299,113.600 537.003 C 112.610 536.707,110.000 535.983,107.800 535.395 C 105.600 534.807,102.990 534.085,102.000 533.792 C 101.010 533.498,97.770 532.602,94.800 531.800 C 91.830 530.998,88.590 530.098,87.600 529.800 C 86.610 529.503,82.740 528.424,79.000 527.404 C 71.686 525.409,69.017 524.668,58.800 521.800 C 55.170 520.781,50.580 519.501,48.600 518.955 C 41.425 516.979,40.565 516.736,38.400 516.073 L 36.200 515.400 35.530 508.200 C 35.161 504.240,34.664 498.660,34.424 495.800 C 34.185 492.940,33.641 486.820,33.215 482.200 C 32.790 477.580,32.255 471.640,32.028 469.000 C 31.800 466.360,31.338 461.140,31.001 457.400 C 30.664 453.660,30.026 446.550,29.584 441.600 C 29.141 436.650,28.595 430.620,28.371 428.200 C 28.147 425.780,27.616 419.660,27.191 414.600 C 26.766 409.540,26.318 404.590,26.195 403.600 C 25.973 401.807,25.079 391.690,23.597 374.200 C 23.169 369.140,22.718 364.190,22.595 363.200 C 22.369 361.376,21.412 350.530,20.000 333.800 C 19.574 328.740,19.126 323.880,19.007 323.000 C 18.887 322.120,18.437 317.260,18.006 312.200 C 17.576 307.140,16.761 297.870,16.196 291.600 C 15.631 285.330,14.820 276.240,14.392 271.400 C 13.965 266.560,13.157 257.470,12.595 251.200 C 10.890 232.153,10.085 223.128,9.006 211.000 C 8.439 204.620,7.629 195.530,7.206 190.800 C 6.783 186.070,5.973 176.980,5.406 170.600 C 4.839 164.220,4.028 155.130,3.605 150.400 C 3.182 145.670,2.465 137.660,2.014 132.600 C 1.562 127.540,0.946 120.880,0.645 117.800 C 0.175 112.996,0.091 144.139,0.049 336.900 L 0.000 561.600 200.000 561.600 L 400.000 561.600 400.000 280.800 L 400.000 0.000 349.600 0.000 L 299.200 0.000 299.200 10.400 L 299.200 20.800 281.800 20.800 L 264.400 20.800 264.400 22.800 L 264.400 24.800 281.800 24.800 L 299.200 24.800 299.200 50.200 L 299.200 75.600 269.000 75.600 L 238.800 75.600 238.800 63.800 L 238.800 52.000 256.200 52.000 L 273.600 52.000 273.600 50.000 L 273.600 48.000 256.200 48.000 L 238.800 48.000 238.800 24.000 L 238.800 0.000 232.807 -0.000 L 226.814 -0.000 226.707 10.300 L 226.600 20.600 209.078 20.704 L 191.557 20.808 191.678 22.704 L 191.800 24.600 209.303 24.704 L 226.806 24.808 226.703 50.104 L 226.600 75.400 196.400 75.400 L 166.200 75.400 166.200 63.800 L 166.200 52.200 183.700 52.096 L 201.200 51.992 201.200 50.000 L 201.200 48.008 183.700 47.904 L 166.200 47.800 166.097 23.900 L 165.994 -0.000 160.203 0.000 L 154.412 0.000 154.306 11.900 L 154.200 23.800 136.700 23.904 L 119.200 24.008 119.200 36.404 L 119.200 48.800 136.800 48.800 L 154.400 48.800 154.400 61.600 L 154.400 74.400 124.000 74.400 L 93.600 74.400 93.600 37.200 L 93.600 0.000 46.800 0.000 L 0.000 0.000 0.000 54.400 M74.563 194.300 C 74.695 195.565,74.986 198.940,75.209 201.800 C 75.432 204.660,75.700 207.450,75.805 208.000 C 75.909 208.550,76.359 213.320,76.804 218.600 C 77.249 223.880,77.875 230.900,78.194 234.200 C 78.514 237.500,78.781 240.560,78.788 241.000 C 78.800 241.792,79.027 241.799,102.900 241.671 C 116.155 241.600,159.042 241.667,198.205 241.820 L 269.410 242.098 268.731 250.149 C 267.389 266.035,266.417 277.106,265.814 283.364 C 265.476 286.865,265.200 290.390,265.200 291.198 L 265.200 292.668 215.700 292.934 C 188.475 293.080,147.615 293.200,124.900 293.200 L 83.600 293.200 83.615 294.900 C 83.624 295.835,83.885 299.390,84.195 302.800 C 84.505 306.210,85.036 312.240,85.376 316.200 C 85.716 320.160,86.263 326.010,86.592 329.200 C 86.921 332.390,87.309 336.755,87.454 338.900 L 87.718 342.800 174.059 342.800 L 260.400 342.800 260.395 343.700 C 260.386 345.105,259.280 358.553,258.808 363.000 C 258.574 365.200,258.118 370.150,257.794 374.000 C 256.539 388.931,254.813 407.308,254.648 407.481 C 254.606 407.526,247.288 409.538,238.386 411.952 C 229.483 414.366,217.070 417.737,210.800 419.442 C 197.572 423.040,199.398 422.852,193.600 421.214 C 191.070 420.500,188.100 419.685,187.000 419.405 C 185.900 419.124,180.230 417.596,174.400 416.009 C 156.343 411.093,149.062 409.134,147.400 408.746 C 143.242 407.776,143.330 407.855,143.074 404.886 C 142.265 395.509,141.123 382.936,140.612 377.800 C 140.285 374.500,140.013 370.854,140.008 369.697 L 140.000 367.594 115.100 367.697 L 90.200 367.800 90.320 369.600 C 90.437 371.364,91.211 380.646,92.771 399.000 C 93.201 404.060,93.655 408.920,93.780 409.800 C 93.905 410.680,94.364 415.720,94.799 421.000 C 95.235 426.280,95.758 432.220,95.961 434.200 C 96.165 436.180,96.454 439.558,96.603 441.706 C 96.934 446.449,95.889 445.729,106.600 448.592 C 107.700 448.886,110.670 449.704,113.200 450.409 C 115.730 451.114,118.970 452.013,120.400 452.407 C 121.830 452.801,126.330 454.045,130.400 455.172 C 134.470 456.299,140.140 457.865,143.000 458.652 C 145.860 459.438,150.270 460.674,152.800 461.397 C 155.330 462.120,159.200 463.198,161.400 463.792 C 167.229 465.366,172.239 466.752,175.200 467.610 C 176.630 468.024,178.790 468.628,180.000 468.951 C 181.210 469.274,183.910 470.019,186.000 470.608 C 188.090 471.197,190.790 471.926,192.000 472.228 C 193.210 472.530,195.290 473.116,196.621 473.528 L 199.043 474.279 222.621 467.759 C 235.590 464.174,249.440 460.335,253.400 459.229 C 260.032 457.376,277.920 452.410,286.000 450.177 C 287.870 449.660,291.966 448.538,295.102 447.683 C 298.238 446.828,300.896 446.037,301.009 445.924 C 301.233 445.700,301.972 438.183,303.203 423.600 C 303.640 418.430,304.093 413.480,304.211 412.600 C 304.329 411.720,304.778 406.860,305.209 401.800 C 306.904 381.893,307.589 374.125,307.800 372.400 C 307.920 371.410,308.373 366.460,308.806 361.400 C 310.658 339.752,312.889 314.907,314.807 294.600 C 315.243 289.980,315.688 285.120,315.796 283.800 C 315.996 281.355,316.968 270.536,318.392 254.900 C 318.828 250.115,319.370 243.860,319.595 241.000 C 319.821 238.140,320.096 235.170,320.206 234.400 C 320.397 233.063,321.093 225.176,322.803 205.000 C 323.231 199.940,323.693 194.945,323.829 193.900 L 324.075 192.000 199.198 192.000 L 74.321 192.000 74.563 194.300 " stroke="none" fill="#ffffff" fill-rule="evenodd"></path><path id="path2" d="M94.000 37.000 L 94.000 74.000 124.006 74.000 L 154.011 74.000 153.906 61.500 L 153.800 49.000 136.294 48.896 L 118.789 48.792 118.894 36.296 L 119.000 23.800 136.500 23.696 L 154.000 23.592 154.000 11.796 L 154.000 0.000 124.000 0.000 L 94.000 0.000 94.000 37.000 M166.400 24.000 L 166.400 48.000 184.021 48.000 L 201.642 48.000 201.521 50.100 L 201.400 52.200 183.900 52.304 L 166.400 52.408 166.400 63.804 L 166.400 75.200 196.400 75.200 L 226.400 75.200 226.400 50.000 L 226.400 24.800 209.000 24.800 L 191.600 24.800 191.600 22.600 L 191.600 20.400 209.000 20.400 L 226.400 20.400 226.400 10.200 L 226.400 0.000 196.400 0.000 L 166.400 0.000 166.400 24.000 M238.897 23.900 L 239.000 47.800 256.500 47.904 L 274.000 48.008 274.000 50.204 L 274.000 52.400 256.400 52.400 L 238.800 52.400 238.800 63.800 L 238.800 75.200 269.003 75.200 L 299.206 75.200 299.103 50.100 L 299.000 25.000 281.500 24.896 L 264.000 24.792 264.000 22.596 L 264.000 20.400 281.600 20.400 L 299.200 20.400 299.200 10.200 L 299.200 0.000 268.997 0.000 L 238.794 0.000 238.897 23.900 " stroke="none" fill="#040404" fill-rule="evenodd"></path><path id="path3" d="M0.368 110.700 C 0.559 112.081,0.587 112.109,0.719 111.051 C 0.798 110.419,0.705 109.745,0.512 109.552 C 0.310 109.350,0.249 109.840,0.368 110.700 M397.714 113.000 C 397.717 114.100,397.795 114.503,397.887 113.895 C 397.979 113.286,397.977 112.386,397.882 111.895 C 397.787 111.403,397.711 111.900,397.714 113.000 M2.109 129.600 C 2.109 130.590,2.187 130.995,2.282 130.500 C 2.378 130.005,2.378 129.195,2.282 128.700 C 2.187 128.205,2.109 128.610,2.109 129.600 M395.701 134.600 C 395.705 135.480,395.787 135.793,395.883 135.295 C 395.979 134.798,395.975 134.078,395.875 133.695 C 395.775 133.313,395.696 133.720,395.701 134.600 M199.468 142.266 C 199.320 142.413,199.200 153.663,199.200 167.267 L 199.200 192.000 261.762 192.000 L 324.324 192.000 324.132 194.500 C 324.026 195.875,323.767 198.710,323.557 200.800 C 323.185 204.498,322.276 214.750,321.022 229.400 C 320.683 233.360,320.135 239.300,319.803 242.600 C 319.472 245.900,318.934 251.975,318.608 256.099 C 318.282 260.223,317.927 264.003,317.819 264.499 C 317.711 264.995,317.338 269.360,316.991 274.200 C 316.644 279.040,316.279 283.277,316.180 283.616 C 316.080 283.955,315.639 288.455,315.198 293.616 C 314.757 298.777,314.219 304.710,314.001 306.800 C 313.606 310.598,313.014 317.242,311.594 333.800 C 311.179 338.640,310.653 344.490,310.425 346.800 C 310.026 350.844,309.619 355.419,308.007 374.000 C 307.597 378.730,307.064 384.670,306.822 387.200 C 306.292 392.755,305.461 402.223,304.416 414.600 C 303.989 419.660,303.541 424.340,303.422 425.000 C 303.302 425.660,302.928 429.890,302.591 434.400 C 302.253 438.910,301.875 443.412,301.750 444.404 L 301.522 446.208 298.461 447.091 C 294.967 448.100,283.943 451.177,278.600 452.635 C 276.620 453.176,274.010 453.909,272.800 454.265 C 271.590 454.620,269.700 455.143,268.600 455.426 C 266.721 455.909,263.121 456.901,256.600 458.733 C 255.060 459.166,252.000 460.014,249.800 460.617 C 243.445 462.361,234.897 464.727,230.400 465.987 C 228.750 466.450,226.140 467.168,224.600 467.583 C 223.060 467.999,220.090 468.817,218.000 469.402 C 215.910 469.987,212.670 470.886,210.800 471.400 C 201.900 473.846,199.883 474.425,199.555 474.628 C 199.254 474.814,199.002 526.000,199.303 526.000 C 199.359 526.000,200.034 525.815,200.803 525.588 C 202.439 525.106,214.586 521.721,226.800 518.342 C 231.530 517.034,237.380 515.416,239.800 514.746 C 242.220 514.077,245.370 513.210,246.800 512.819 C 248.230 512.429,252.460 511.253,256.200 510.206 C 259.940 509.159,264.170 507.984,265.600 507.594 C 267.030 507.205,271.260 506.036,275.000 504.997 C 278.740 503.958,282.970 502.788,284.400 502.396 C 285.830 502.005,291.320 500.486,296.600 499.020 C 306.220 496.351,307.765 495.922,322.577 491.816 C 326.965 490.600,330.686 489.469,330.846 489.303 C 331.006 489.136,331.420 485.580,331.765 481.400 C 332.111 477.220,332.579 472.000,332.806 469.800 C 333.032 467.600,333.847 458.600,334.617 449.800 C 335.387 441.000,336.282 430.920,336.606 427.400 C 336.929 423.880,337.647 415.870,338.200 409.600 C 338.753 403.330,339.564 394.195,340.003 389.300 C 340.441 384.405,341.157 376.395,341.594 371.500 C 342.031 366.605,342.668 359.540,343.009 355.800 C 343.350 352.060,343.978 344.950,344.404 340.000 C 345.351 329.016,346.206 319.484,347.006 311.000 C 347.338 307.480,347.870 301.540,348.189 297.800 C 348.507 294.060,348.950 289.110,349.174 286.800 C 349.397 284.490,349.761 280.350,349.982 277.600 C 350.354 272.966,351.079 264.871,352.594 248.400 C 353.832 234.947,355.546 215.609,356.778 201.200 C 357.220 196.030,357.676 191.080,357.793 190.200 C 357.909 189.320,358.355 184.460,358.783 179.400 C 359.212 174.340,360.041 164.980,360.624 158.600 C 361.208 152.220,361.711 145.920,361.742 144.600 L 361.800 142.200 280.768 142.099 C 236.200 142.044,199.615 142.119,199.468 142.266 M3.701 148.600 C 3.705 149.480,3.787 149.793,3.883 149.295 C 3.979 148.798,3.975 148.078,3.875 147.695 C 3.775 147.313,3.696 147.720,3.701 148.600 M4.093 151.600 C 4.093 152.370,4.175 152.685,4.276 152.300 C 4.376 151.915,4.376 151.285,4.276 150.900 C 4.175 150.515,4.093 150.830,4.093 151.600 M394.114 153.400 C 394.117 154.500,394.195 154.903,394.287 154.295 C 394.379 153.686,394.377 152.786,394.282 152.295 C 394.187 151.803,394.111 152.300,394.114 153.400 M5.709 170.000 C 5.709 170.990,5.787 171.395,5.882 170.900 C 5.978 170.405,5.978 169.595,5.882 169.100 C 5.787 168.605,5.709 169.010,5.709 170.000 M392.501 171.400 C 392.505 172.280,392.587 172.593,392.683 172.095 C 392.779 171.598,392.775 170.878,392.675 170.495 C 392.575 170.113,392.496 170.520,392.501 171.400 M392.101 175.000 C 392.105 175.880,392.187 176.193,392.283 175.695 C 392.379 175.198,392.375 174.478,392.275 174.095 C 392.175 173.713,392.096 174.120,392.101 175.000 M7.314 188.200 C 7.317 189.300,7.395 189.703,7.487 189.095 C 7.579 188.486,7.577 187.586,7.482 187.095 C 7.387 186.603,7.311 187.100,7.314 188.200 M7.693 192.000 C 7.693 192.770,7.775 193.085,7.876 192.700 C 7.976 192.315,7.976 191.685,7.876 191.300 C 7.775 190.915,7.693 191.230,7.693 192.000 M390.514 193.800 C 390.517 194.900,390.595 195.303,390.687 194.695 C 390.779 194.086,390.777 193.186,390.682 192.695 C 390.587 192.203,390.511 192.700,390.514 193.800 M74.493 200.800 C 74.493 201.570,74.575 201.885,74.676 201.500 C 74.776 201.115,74.776 200.485,74.676 200.100 C 74.575 199.715,74.493 200.030,74.493 200.800 M74.909 204.400 C 74.909 205.390,74.987 205.795,75.082 205.300 C 75.178 204.805,75.178 203.995,75.082 203.500 C 74.987 203.005,74.909 203.410,74.909 204.400 M9.309 210.400 C 9.309 211.390,9.387 211.795,9.482 211.300 C 9.578 210.805,9.578 209.995,9.482 209.500 C 9.387 209.005,9.309 209.410,9.309 210.400 M388.901 211.800 C 388.905 212.680,388.987 212.993,389.083 212.495 C 389.179 211.998,389.175 211.278,389.075 210.895 C 388.975 210.513,388.896 210.920,388.901 211.800 M388.501 215.400 C 388.505 216.280,388.587 216.593,388.683 216.095 C 388.779 215.598,388.775 214.878,388.675 214.495 C 388.575 214.113,388.496 214.520,388.501 215.400 M76.509 222.000 C 76.509 222.990,76.587 223.395,76.682 222.900 C 76.778 222.405,76.778 221.595,76.682 221.100 C 76.587 220.605,76.509 221.010,76.509 222.000 M10.914 228.600 C 10.917 229.700,10.995 230.103,11.087 229.495 C 11.179 228.886,11.177 227.986,11.082 227.495 C 10.987 227.003,10.911 227.500,10.914 228.600 M11.293 232.400 C 11.293 233.170,11.375 233.485,11.476 233.100 C 11.576 232.715,11.576 232.085,11.476 231.700 C 11.375 231.315,11.293 231.630,11.293 232.400 M386.914 234.200 C 386.917 235.300,386.995 235.703,387.087 235.095 C 387.179 234.486,387.177 233.586,387.082 233.095 C 386.987 232.603,386.911 233.100,386.914 234.200 M78.093 240.400 C 78.093 241.170,78.175 241.485,78.276 241.100 C 78.376 240.715,78.376 240.085,78.276 239.700 C 78.175 239.315,78.093 239.630,78.093 240.400 M199.200 267.402 L 199.200 292.805 231.900 292.702 L 264.600 292.600 264.875 290.000 C 265.026 288.570,265.432 283.890,265.779 279.600 C 266.125 275.310,266.586 270.360,266.802 268.600 C 267.019 266.840,267.474 261.620,267.813 257.000 C 268.153 252.380,268.602 247.520,268.812 246.200 C 269.022 244.880,269.195 243.395,269.197 242.900 L 269.200 242.000 234.200 242.000 L 199.200 242.000 199.200 267.402 M12.909 250.800 C 12.909 251.790,12.987 252.195,13.082 251.700 C 13.178 251.205,13.178 250.395,13.082 249.900 C 12.987 249.405,12.909 249.810,12.909 250.800 M385.301 252.200 C 385.305 253.080,385.387 253.393,385.483 252.895 C 385.579 252.398,385.575 251.678,385.475 251.295 C 385.375 250.913,385.296 251.320,385.301 252.200 M384.901 255.800 C 384.905 256.680,384.987 256.993,385.083 256.495 C 385.179 255.998,385.175 255.278,385.075 254.895 C 384.975 254.513,384.896 254.920,384.901 255.800 M14.514 269.000 C 14.517 270.100,14.595 270.503,14.687 269.895 C 14.779 269.286,14.777 268.386,14.682 267.895 C 14.587 267.403,14.511 267.900,14.514 269.000 M14.893 272.800 C 14.893 273.570,14.975 273.885,15.076 273.500 C 15.176 273.115,15.176 272.485,15.076 272.100 C 14.975 271.715,14.893 272.030,14.893 272.800 M383.309 273.600 C 383.309 274.590,383.387 274.995,383.482 274.500 C 383.578 274.005,383.578 273.195,383.482 272.700 C 383.387 272.205,383.309 272.610,383.309 273.600 M16.501 290.600 C 16.505 291.480,16.587 291.793,16.683 291.295 C 16.779 290.798,16.775 290.078,16.675 289.695 C 16.575 289.313,16.496 289.720,16.501 290.600 M381.701 292.600 C 381.705 293.480,381.787 293.793,381.883 293.295 C 381.979 292.798,381.975 292.078,381.875 291.695 C 381.775 291.313,381.696 291.720,381.701 292.600 M381.293 296.000 C 381.293 296.770,381.375 297.085,381.476 296.700 C 381.576 296.315,381.576 295.685,381.476 295.300 C 381.375 294.915,381.293 295.230,381.293 296.000 M83.709 303.600 C 83.709 304.590,83.787 304.995,83.882 304.500 C 83.978 304.005,83.978 303.195,83.882 302.700 C 83.787 302.205,83.709 302.610,83.709 303.600 M18.114 309.400 C 18.117 310.500,18.195 310.903,18.287 310.295 C 18.379 309.686,18.377 308.786,18.282 308.295 C 18.187 307.803,18.111 308.300,18.114 309.400 M18.493 313.200 C 18.493 313.970,18.575 314.285,18.676 313.900 C 18.776 313.515,18.776 312.885,18.676 312.500 C 18.575 312.115,18.493 312.430,18.493 313.200 M379.709 314.000 C 379.709 314.990,379.787 315.395,379.882 314.900 C 379.978 314.405,379.978 313.595,379.882 313.100 C 379.787 312.605,379.709 313.010,379.709 314.000 M20.101 331.000 C 20.105 331.880,20.187 332.193,20.283 331.695 C 20.379 331.198,20.375 330.478,20.275 330.095 C 20.175 329.713,20.096 330.120,20.101 331.000 M378.101 333.000 C 378.105 333.880,378.187 334.193,378.283 333.695 C 378.379 333.198,378.375 332.478,378.275 332.095 C 378.175 331.713,378.096 332.120,378.101 333.000 M377.693 336.000 C 377.693 336.770,377.775 337.085,377.876 336.700 C 377.976 336.315,377.976 335.685,377.876 335.300 C 377.775 334.915,377.693 335.230,377.693 336.000 M87.462 342.900 C 87.564 343.065,112.747 343.200,143.424 343.200 L 199.200 343.200 199.200 382.600 C 199.200 416.033,199.284 422.000,199.758 422.000 C 200.065 422.000,201.460 421.649,202.858 421.220 C 204.256 420.791,206.120 420.271,207.000 420.065 C 207.880 419.859,210.670 419.111,213.200 418.403 C 215.730 417.695,218.700 416.886,219.800 416.606 C 220.900 416.326,225.220 415.153,229.400 414.001 C 233.580 412.848,238.260 411.581,239.800 411.184 C 249.097 408.791,253.787 407.463,254.200 407.107 C 254.420 406.918,254.899 403.216,255.264 398.882 C 257.241 375.388,257.602 371.296,257.791 370.200 C 257.905 369.540,258.381 364.590,258.849 359.200 C 259.318 353.810,259.825 348.050,259.977 346.400 C 260.128 344.750,260.229 343.359,260.201 343.308 C 260.172 343.257,221.253 343.077,173.713 342.908 C 126.173 342.739,87.360 342.735,87.462 342.900 M21.714 349.800 C 21.717 350.900,21.795 351.303,21.887 350.695 C 21.979 350.086,21.977 349.186,21.882 348.695 C 21.787 348.203,21.711 348.700,21.714 349.800 M376.109 354.400 C 376.109 355.390,376.187 355.795,376.282 355.300 C 376.378 354.805,376.378 353.995,376.282 353.500 C 376.187 353.005,376.109 353.410,376.109 354.400 M114.973 367.498 C 139.607 367.605,139.948 367.617,140.126 368.409 C 140.275 369.072,140.297 369.054,140.253 368.306 L 140.200 367.400 115.100 367.395 L 90.000 367.391 114.973 367.498 M23.701 371.400 C 23.705 372.280,23.787 372.593,23.883 372.095 C 23.979 371.598,23.975 370.878,23.875 370.495 C 23.775 370.113,23.696 370.520,23.701 371.400 M374.501 373.400 C 374.505 374.280,374.587 374.593,374.683 374.095 C 374.779 373.598,374.775 372.878,374.675 372.495 C 374.575 372.113,374.496 372.520,374.501 373.400 M374.093 376.400 C 374.093 377.170,374.175 377.485,374.276 377.100 C 374.376 376.715,374.376 376.085,374.276 375.700 C 374.175 375.315,374.093 375.630,374.093 376.400 M90.901 384.200 C 90.905 385.080,90.987 385.393,91.083 384.895 C 91.179 384.398,91.175 383.678,91.075 383.295 C 90.975 382.913,90.896 383.320,90.901 384.200 M142.101 389.000 C 142.105 389.880,142.187 390.193,142.283 389.695 C 142.379 389.198,142.375 388.478,142.275 388.095 C 142.175 387.713,142.096 388.120,142.101 389.000 M25.314 390.200 C 25.317 391.300,25.395 391.703,25.487 391.095 C 25.579 390.486,25.577 389.586,25.482 389.095 C 25.387 388.603,25.311 389.100,25.314 390.200 M372.509 394.800 C 372.509 395.790,372.587 396.195,372.682 395.700 C 372.778 395.205,372.778 394.395,372.682 393.900 C 372.587 393.405,372.509 393.810,372.509 394.800 M92.493 402.800 C 92.493 403.570,92.575 403.885,92.676 403.500 C 92.776 403.115,92.776 402.485,92.676 402.100 C 92.575 401.715,92.493 402.030,92.493 402.800 M27.301 411.800 C 27.305 412.680,27.387 412.993,27.483 412.495 C 27.579 411.998,27.575 411.278,27.475 410.895 C 27.375 410.513,27.296 410.920,27.301 411.800 M370.901 413.800 C 370.905 414.680,370.987 414.993,371.083 414.495 C 371.179 413.998,371.175 413.278,371.075 412.895 C 370.975 412.513,370.896 412.920,370.901 413.800 M94.509 424.800 C 94.509 425.790,94.587 426.195,94.682 425.700 C 94.778 425.205,94.778 424.395,94.682 423.900 C 94.587 423.405,94.509 423.810,94.509 424.800 M28.914 430.600 C 28.917 431.700,28.995 432.103,29.087 431.495 C 29.179 430.886,29.177 429.986,29.082 429.495 C 28.987 429.003,28.911 429.500,28.914 430.600 M368.909 435.200 C 368.909 436.190,368.987 436.595,369.082 436.100 C 369.178 435.605,369.178 434.795,369.082 434.300 C 368.987 433.805,368.909 434.210,368.909 435.200 M96.101 443.000 C 96.105 443.880,96.187 444.193,96.283 443.695 C 96.379 443.198,96.375 442.478,96.275 442.095 C 96.175 441.713,96.096 442.120,96.101 443.000 M30.901 452.200 C 30.905 453.080,30.987 453.393,31.083 452.895 C 31.179 452.398,31.175 451.678,31.075 451.295 C 30.975 450.913,30.896 451.320,30.901 452.200 M367.293 454.000 C 367.293 454.770,367.375 455.085,367.476 454.700 C 367.576 454.315,367.576 453.685,367.476 453.300 C 367.375 452.915,367.293 453.230,367.293 454.000 M32.514 471.000 C 32.517 472.100,32.595 472.503,32.687 471.895 C 32.779 471.286,32.777 470.386,32.682 469.895 C 32.587 469.403,32.511 469.900,32.514 471.000 M365.309 475.600 C 365.309 476.590,365.387 476.995,365.482 476.500 C 365.578 476.005,365.578 475.195,365.482 474.700 C 365.387 474.205,365.309 474.610,365.309 475.600 M34.101 489.000 C 34.105 489.880,34.187 490.193,34.283 489.695 C 34.379 489.198,34.375 488.478,34.275 488.095 C 34.175 487.713,34.096 488.120,34.101 489.000 M34.501 492.600 C 34.505 493.480,34.587 493.793,34.683 493.295 C 34.779 492.798,34.775 492.078,34.675 491.695 C 34.575 491.313,34.496 491.720,34.501 492.600 M363.701 494.200 C 363.705 495.080,363.787 495.393,363.883 494.895 C 363.979 494.398,363.975 493.678,363.875 493.295 C 363.775 492.913,363.696 493.320,363.701 494.200 M36.114 511.400 C 36.117 512.500,36.195 512.903,36.287 512.295 C 36.379 511.686,36.377 510.786,36.282 510.295 C 36.187 509.803,36.111 510.300,36.114 511.400 M273.000 539.600 C 272.496 539.817,272.422 539.944,272.800 539.944 C 273.130 539.944,273.760 539.789,274.200 539.600 C 274.704 539.383,274.778 539.256,274.400 539.256 C 274.070 539.256,273.440 539.411,273.000 539.600 " stroke="none" fill="#2c63f3" fill-rule="evenodd"></path><path id="path4" d="M93.698 37.100 L 93.600 74.400 124.000 74.400 L 154.400 74.400 154.400 61.600 C 154.400 54.560,154.265 48.800,154.100 48.800 C 153.935 48.800,153.850 54.470,153.911 61.400 L 154.022 74.000 124.013 74.000 L 94.004 74.000 93.900 36.900 L 93.796 -0.200 93.698 37.100 M154.094 11.696 L 154.000 23.592 136.500 23.696 L 119.000 23.800 118.991 36.300 L 118.983 48.800 119.097 36.400 L 119.211 24.000 136.618 24.000 C 150.264 24.000,154.067 23.891,154.219 23.495 C 154.325 23.217,154.362 17.772,154.300 11.395 L 154.187 -0.200 154.094 11.696 M166.188 23.800 C 166.188 37.000,166.238 42.342,166.300 35.671 C 166.361 29.001,166.361 18.201,166.300 11.671 C 166.238 5.142,166.188 10.600,166.188 23.800 M226.493 10.096 L 226.400 20.392 208.900 20.500 L 191.400 20.609 208.913 20.704 C 222.757 20.780,226.466 20.694,226.620 20.293 C 226.727 20.014,226.763 15.289,226.700 9.793 L 226.585 -0.200 226.493 10.096 M264.074 22.700 L 264.148 25.000 264.295 22.904 L 264.442 20.808 281.921 20.700 L 299.400 20.591 281.700 20.496 L 264.000 20.400 264.074 22.700 M226.497 49.900 L 226.400 75.200 196.400 75.200 L 166.400 75.200 166.400 63.804 L 166.400 52.408 183.900 52.304 L 201.400 52.200 201.438 50.000 L 201.476 47.800 201.317 49.896 L 201.158 51.992 183.679 52.096 L 166.200 52.200 166.200 63.800 L 166.200 75.400 196.312 75.503 C 220.189 75.584,226.463 75.501,226.615 75.103 C 226.721 74.826,226.759 63.350,226.701 49.600 L 226.594 24.600 226.497 49.900 M273.600 49.996 L 273.600 51.992 256.100 52.100 L 238.600 52.209 256.300 52.304 L 274.000 52.400 274.000 50.200 C 274.000 48.990,273.910 48.000,273.800 48.000 C 273.690 48.000,273.600 48.898,273.600 49.996 M253.670 75.500 C 261.959 75.560,275.639 75.560,284.070 75.500 C 292.502 75.440,285.720 75.390,269.000 75.390 C 252.280 75.390,245.382 75.439,253.670 75.500 M99.500 109.100 C 154.335 109.156,244.065 109.156,298.900 109.100 C 353.735 109.044,308.870 108.998,199.200 108.998 C 89.530 108.998,44.665 109.044,99.500 109.100 M0.266 112.600 C 0.681 118.934,1.168 122.296,0.933 117.200 C 0.816 114.670,0.571 111.880,0.388 111.000 C 0.155 109.877,0.118 110.354,0.266 112.600 M398.101 111.400 C 398.105 112.280,398.187 112.593,398.283 112.095 C 398.379 111.598,398.375 110.878,398.275 110.495 C 398.175 110.113,398.096 110.520,398.101 111.400 M397.460 117.087 C 397.106 120.407,396.763 127.073,396.971 126.600 C 397.238 125.990,398.088 115.155,397.885 114.951 C 397.787 114.853,397.595 115.814,397.460 117.087 M1.309 123.600 C 1.309 124.590,1.387 124.995,1.482 124.500 C 1.578 124.005,1.578 123.195,1.482 122.700 C 1.387 122.205,1.309 122.610,1.309 123.600 M1.701 128.600 C 1.705 129.480,1.787 129.793,1.883 129.295 C 1.979 128.798,1.975 128.078,1.875 127.695 C 1.775 127.313,1.696 127.720,1.701 128.600 M396.501 129.000 C 396.505 129.880,396.587 130.193,396.683 129.695 C 396.779 129.198,396.775 128.478,396.675 128.095 C 396.575 127.713,396.496 128.120,396.501 129.000 M2.258 134.800 C 2.376 136.890,2.621 139.680,2.803 141.000 C 3.047 142.767,3.075 142.293,2.910 139.200 C 2.786 136.890,2.541 134.100,2.365 133.000 C 2.144 131.621,2.111 132.179,2.258 134.800 M396.101 134.200 C 396.105 135.080,396.187 135.393,396.283 134.895 C 396.379 134.398,396.375 133.678,396.275 133.295 C 396.175 132.913,396.096 133.320,396.101 134.200 M395.391 140.191 C 395.232 142.526,395.196 144.529,395.311 144.644 C 395.426 144.759,395.650 142.943,395.809 140.609 C 395.968 138.274,396.004 136.271,395.889 136.156 C 395.774 136.041,395.550 137.857,395.391 140.191 M3.301 146.200 C 3.305 147.080,3.387 147.393,3.483 146.895 C 3.579 146.398,3.575 145.678,3.475 145.295 C 3.375 144.913,3.296 145.320,3.301 146.200 M394.914 147.000 C 394.917 148.100,394.995 148.503,395.087 147.895 C 395.179 147.286,395.177 146.386,395.082 145.895 C 394.987 145.403,394.911 145.900,394.914 147.000 M3.877 153.200 C 3.997 155.070,4.244 157.680,4.425 159.000 C 4.675 160.825,4.701 160.452,4.535 157.439 C 4.415 155.260,4.168 152.650,3.987 151.639 C 3.753 150.331,3.721 150.782,3.877 153.200 M394.501 151.800 C 394.505 152.680,394.587 152.993,394.683 152.495 C 394.779 151.998,394.775 151.278,394.675 150.895 C 394.575 150.513,394.496 150.920,394.501 151.800 M393.860 157.487 C 393.506 160.807,393.163 167.473,393.371 167.000 C 393.638 166.390,394.488 155.555,394.285 155.351 C 394.187 155.253,393.995 156.214,393.860 157.487 M4.909 164.000 C 4.909 164.990,4.987 165.395,5.082 164.900 C 5.178 164.405,5.178 163.595,5.082 163.100 C 4.987 162.605,4.909 163.010,4.909 164.000 M5.301 169.000 C 5.305 169.880,5.387 170.193,5.483 169.695 C 5.579 169.198,5.575 168.478,5.475 168.095 C 5.375 167.713,5.296 168.120,5.301 169.000 M392.901 169.400 C 392.905 170.280,392.987 170.593,393.083 170.095 C 393.179 169.598,393.175 168.878,393.075 168.495 C 392.975 168.113,392.896 168.520,392.901 169.400 M5.858 175.200 C 5.976 177.290,6.221 180.080,6.403 181.400 C 6.647 183.167,6.675 182.693,6.510 179.600 C 6.386 177.290,6.141 174.500,5.965 173.400 C 5.744 172.021,5.711 172.579,5.858 175.200 M392.509 174.400 C 392.509 175.390,392.587 175.795,392.682 175.300 C 392.778 174.805,392.778 173.995,392.682 173.500 C 392.587 173.005,392.509 173.410,392.509 174.400 M391.791 180.591 C 391.632 182.926,391.596 184.929,391.711 185.044 C 391.826 185.159,392.050 183.343,392.209 181.009 C 392.368 178.674,392.404 176.671,392.289 176.556 C 392.174 176.441,391.950 178.257,391.791 180.591 M6.901 186.600 C 6.905 187.480,6.987 187.793,7.083 187.295 C 7.179 186.798,7.175 186.078,7.075 185.695 C 6.975 185.313,6.896 185.720,6.901 186.600 M391.309 187.200 C 391.309 188.190,391.387 188.595,391.482 188.100 C 391.578 187.605,391.578 186.795,391.482 186.300 C 391.387 185.805,391.309 186.210,391.309 187.200 M7.479 193.454 C 7.598 195.463,7.843 198.163,8.023 199.454 C 8.278 201.286,8.305 200.967,8.144 198.000 C 8.031 195.910,7.786 193.210,7.600 192.000 C 7.337 190.285,7.310 190.605,7.479 193.454 M390.901 192.200 C 390.905 193.080,390.987 193.393,391.083 192.895 C 391.179 192.398,391.175 191.678,391.075 191.295 C 390.975 190.913,390.896 191.320,390.901 192.200 M74.245 195.200 C 74.363 197.070,74.613 199.590,74.802 200.800 C 75.062 202.465,75.092 202.027,74.926 199.000 C 74.805 196.800,74.555 194.280,74.369 193.400 C 74.134 192.285,74.097 192.831,74.245 195.200 M323.437 197.700 C 322.792 206.657,322.803 206.386,323.175 204.400 C 323.602 202.128,324.170 194.000,323.903 194.000 C 323.793 194.000,323.583 195.665,323.437 197.700 M390.293 197.800 C 390.139 199.120,389.929 201.910,389.825 204.000 C 389.658 207.374,389.702 207.194,390.218 202.400 C 390.538 199.430,390.749 196.640,390.686 196.200 C 390.624 195.760,390.447 196.480,390.293 197.800 M8.509 204.400 C 8.509 205.390,8.587 205.795,8.682 205.300 C 8.778 204.805,8.778 203.995,8.682 203.500 C 8.587 203.005,8.509 203.410,8.509 204.400 M75.309 206.000 C 75.309 206.990,75.387 207.395,75.482 206.900 C 75.578 206.405,75.578 205.595,75.482 205.100 C 75.387 204.605,75.309 205.010,75.309 206.000 M8.901 209.400 C 8.905 210.280,8.987 210.593,9.083 210.095 C 9.179 209.598,9.175 208.878,9.075 208.495 C 8.975 208.113,8.896 208.520,8.901 209.400 M75.876 212.400 C 75.998 214.930,76.246 217.810,76.427 218.800 C 76.845 221.086,76.465 213.630,75.988 210.200 C 75.749 208.476,75.717 209.096,75.876 212.400 M322.501 209.400 C 322.505 210.280,322.587 210.593,322.683 210.095 C 322.779 209.598,322.775 208.878,322.675 208.495 C 322.575 208.113,322.496 208.520,322.501 209.400 M389.301 209.800 C 389.305 210.680,389.387 210.993,389.483 210.495 C 389.579 209.998,389.575 209.278,389.475 208.895 C 389.375 208.513,389.296 208.920,389.301 209.800 M9.458 215.600 C 9.576 217.690,9.821 220.480,10.003 221.800 C 10.247 223.567,10.275 223.093,10.110 220.000 C 9.986 217.690,9.741 214.900,9.565 213.800 C 9.344 212.421,9.311 212.979,9.458 215.600 M321.853 215.586 C 321.187 222.995,321.112 224.185,321.325 223.989 C 321.625 223.714,322.553 213.219,322.300 212.966 C 322.193 212.860,321.992 214.039,321.853 215.586 M388.901 214.600 C 388.905 215.480,388.987 215.793,389.083 215.295 C 389.179 214.798,389.175 214.078,389.075 213.695 C 388.975 213.313,388.896 213.720,388.901 214.600 M388.191 220.991 C 388.032 223.326,387.992 225.325,388.102 225.435 C 388.212 225.545,388.432 223.726,388.591 221.391 C 388.750 219.057,388.791 217.057,388.681 216.947 C 388.571 216.837,388.350 218.657,388.191 220.991 M76.909 223.200 C 76.909 224.190,76.987 224.595,77.082 224.100 C 77.178 223.605,77.178 222.795,77.082 222.300 C 76.987 221.805,76.909 222.210,76.909 223.200 M10.501 227.000 C 10.505 227.880,10.587 228.193,10.683 227.695 C 10.779 227.198,10.775 226.478,10.675 226.095 C 10.575 225.713,10.496 226.120,10.501 227.000 M320.893 227.200 C 320.893 227.970,320.975 228.285,321.076 227.900 C 321.176 227.515,321.176 226.885,321.076 226.500 C 320.975 226.115,320.893 226.430,320.893 227.200 M387.709 227.600 C 387.709 228.590,387.787 228.995,387.882 228.500 C 387.978 228.005,387.978 227.195,387.882 226.700 C 387.787 226.205,387.709 226.610,387.709 227.600 M77.213 227.433 C 77.227 228.642,77.775 235.126,78.234 239.518 C 78.379 240.903,78.581 241.952,78.685 241.849 C 78.897 241.636,77.617 226.690,77.364 226.433 C 77.274 226.342,77.206 226.792,77.213 227.433 M11.079 233.854 C 11.198 235.863,11.443 238.563,11.623 239.854 C 11.878 241.686,11.905 241.367,11.744 238.400 C 11.631 236.310,11.386 233.610,11.200 232.400 C 10.937 230.685,10.910 231.005,11.079 233.854 M320.509 232.000 C 320.509 232.990,320.587 233.395,320.682 232.900 C 320.778 232.405,320.778 231.595,320.682 231.100 C 320.587 230.605,320.509 231.010,320.509 232.000 M387.293 232.400 C 387.293 233.170,387.375 233.485,387.476 233.100 C 387.576 232.715,387.576 232.085,387.476 231.700 C 387.375 231.315,387.293 231.630,387.293 232.400 M319.791 238.591 C 319.632 240.926,319.596 242.929,319.711 243.044 C 319.826 243.159,320.050 241.343,320.209 239.009 C 320.368 236.674,320.404 234.671,320.289 234.556 C 320.174 234.441,319.950 236.257,319.791 238.591 M386.672 237.887 C 386.262 241.229,385.889 247.200,386.090 247.200 C 386.344 247.200,387.318 236.385,387.085 236.152 C 386.987 236.054,386.801 236.834,386.672 237.887 M109.331 241.900 C 125.794 241.958,152.614 241.958,168.931 241.900 C 185.249 241.842,171.780 241.795,139.000 241.795 C 106.220 241.795,92.869 241.842,109.331 241.900 M12.109 244.800 C 12.109 245.790,12.187 246.195,12.282 245.700 C 12.378 245.205,12.378 244.395,12.282 243.900 C 12.187 243.405,12.109 243.810,12.109 244.800 M319.301 245.000 C 319.305 245.880,319.387 246.193,319.483 245.695 C 319.579 245.198,319.575 244.478,319.475 244.095 C 319.375 243.713,319.296 244.120,319.301 245.000 M268.893 246.000 C 268.893 246.770,268.975 247.085,269.076 246.700 C 269.176 246.315,269.176 245.685,269.076 245.300 C 268.975 244.915,268.893 245.230,268.893 246.000 M268.254 251.000 C 268.103 252.980,267.869 255.950,267.735 257.600 C 267.602 259.250,267.594 260.508,267.718 260.395 C 268.022 260.119,268.937 248.611,268.710 247.934 C 268.611 247.640,268.406 249.020,268.254 251.000 M12.501 249.800 C 12.505 250.680,12.587 250.993,12.683 250.495 C 12.779 249.998,12.775 249.278,12.675 248.895 C 12.575 248.513,12.496 248.920,12.501 249.800 M318.901 249.800 C 318.905 250.680,318.987 250.993,319.083 250.495 C 319.179 249.998,319.175 249.278,319.075 248.895 C 318.975 248.513,318.896 248.920,318.901 249.800 M385.701 250.200 C 385.705 251.080,385.787 251.393,385.883 250.895 C 385.979 250.398,385.975 249.678,385.875 249.295 C 385.775 248.913,385.696 249.320,385.701 250.200 M13.053 256.000 C 13.168 258.090,13.412 260.790,13.596 262.000 C 13.841 263.608,13.871 263.124,13.707 260.200 C 13.583 258.000,13.339 255.300,13.163 254.200 C 12.943 252.816,12.909 253.371,13.053 256.000 M318.025 258.228 C 317.748 261.433,317.605 264.139,317.708 264.241 C 317.916 264.450,318.240 261.610,318.637 256.100 C 318.783 254.065,318.819 252.400,318.715 252.400 C 318.612 252.400,318.301 255.022,318.025 258.228 M385.301 255.000 C 385.305 255.880,385.387 256.193,385.483 255.695 C 385.579 255.198,385.575 254.478,385.475 254.095 C 385.375 253.713,385.296 254.120,385.301 255.000 M384.591 261.391 C 384.432 263.726,384.392 265.725,384.502 265.835 C 384.612 265.945,384.832 264.126,384.991 261.791 C 385.150 259.457,385.191 257.457,385.081 257.347 C 384.971 257.237,384.750 259.057,384.591 261.391 M267.301 263.800 C 267.305 264.680,267.387 264.993,267.483 264.495 C 267.579 263.998,267.575 263.278,267.475 262.895 C 267.375 262.513,267.296 262.920,267.301 263.800 M14.101 267.400 C 14.105 268.280,14.187 268.593,14.283 268.095 C 14.379 267.598,14.375 266.878,14.275 266.495 C 14.175 266.113,14.096 266.520,14.101 267.400 M317.293 267.600 C 317.293 268.370,317.375 268.685,317.476 268.300 C 317.576 267.915,317.576 267.285,317.476 266.900 C 317.375 266.515,317.293 266.830,317.293 267.600 M384.109 268.000 C 384.109 268.990,384.187 269.395,384.282 268.900 C 384.378 268.405,384.378 267.595,384.282 267.100 C 384.187 266.605,384.109 267.010,384.109 268.000 M266.411 272.288 C 266.140 275.103,265.987 277.854,266.070 278.403 C 266.153 278.951,266.452 276.726,266.735 273.457 C 267.017 270.189,267.170 267.437,267.075 267.342 C 266.980 267.247,266.681 269.473,266.411 272.288 M14.679 274.254 C 14.798 276.263,15.043 278.963,15.223 280.254 C 15.478 282.086,15.505 281.767,15.344 278.800 C 15.231 276.710,14.986 274.010,14.800 272.800 C 14.537 271.085,14.510 271.405,14.679 274.254 M316.914 272.600 C 316.917 273.700,316.995 274.103,317.087 273.495 C 317.179 272.886,317.177 271.986,317.082 271.495 C 316.987 271.003,316.911 271.500,316.914 272.600 M383.693 272.800 C 383.693 273.570,383.775 273.885,383.876 273.500 C 383.976 273.115,383.976 272.485,383.876 272.100 C 383.775 271.715,383.693 272.030,383.693 272.800 M316.245 278.300 C 315.605 286.745,315.603 286.782,315.979 284.800 C 316.411 282.520,316.975 274.800,316.710 274.800 C 316.600 274.800,316.391 276.375,316.245 278.300 M383.056 278.200 C 382.394 285.924,382.305 287.388,382.510 287.200 C 382.808 286.927,383.725 276.175,383.506 275.523 C 383.410 275.235,383.207 276.440,383.056 278.200 M265.714 281.400 C 265.717 282.500,265.795 282.903,265.887 282.295 C 265.979 281.686,265.977 280.786,265.882 280.295 C 265.787 279.803,265.711 280.300,265.714 281.400 M15.709 285.200 C 15.709 286.190,15.787 286.595,15.882 286.100 C 15.978 285.605,15.978 284.795,15.882 284.300 C 15.787 283.805,15.709 284.210,15.709 285.200 M265.301 286.600 C 265.305 287.480,265.387 287.793,265.483 287.295 C 265.579 286.798,265.575 286.078,265.475 285.695 C 265.375 285.313,265.296 285.720,265.301 286.600 M264.737 290.601 C 264.662 291.811,264.735 292.801,264.900 292.801 C 265.065 292.800,265.200 291.810,265.200 290.600 C 265.200 287.761,264.914 287.761,264.737 290.601 M16.101 290.200 C 16.105 291.080,16.187 291.393,16.283 290.895 C 16.379 290.398,16.375 289.678,16.275 289.295 C 16.175 288.913,16.096 289.320,16.101 290.200 M315.301 290.200 C 315.305 291.080,315.387 291.393,315.483 290.895 C 315.579 290.398,315.575 289.678,315.475 289.295 C 315.375 288.913,315.296 289.320,315.301 290.200 M382.101 290.600 C 382.105 291.480,382.187 291.793,382.283 291.295 C 382.379 290.798,382.375 290.078,382.275 289.695 C 382.175 289.313,382.096 289.720,382.101 290.600 M16.657 296.003 C 16.771 298.315,17.015 301.195,17.201 302.403 C 17.628 305.188,17.262 298.318,16.774 294.400 C 16.523 292.382,16.497 292.742,16.657 296.003 M83.083 293.100 C 82.904 293.426,83.489 300.623,83.773 301.600 C 83.869 301.930,83.846 300.176,83.723 297.701 L 83.497 293.203 141.449 293.100 L 199.400 292.997 141.324 292.899 C 109.382 292.844,83.173 292.935,83.083 293.100 M314.426 298.235 C 313.959 303.409,314.032 306.161,314.528 302.113 C 314.938 298.771,315.311 292.800,315.110 292.800 C 315.003 292.800,314.695 295.246,314.426 298.235 M381.701 295.400 C 381.705 296.280,381.787 296.593,381.883 296.095 C 381.979 295.598,381.975 294.878,381.875 294.495 C 381.775 294.113,381.696 294.520,381.701 295.400 M380.991 301.391 C 380.832 303.726,380.796 305.729,380.911 305.844 C 381.026 305.959,381.250 304.143,381.409 301.809 C 381.568 299.474,381.604 297.471,381.489 297.356 C 381.374 297.241,381.150 299.057,380.991 301.391 M84.101 304.600 C 84.105 305.480,84.187 305.793,84.283 305.295 C 84.379 304.798,84.375 304.078,84.275 303.695 C 84.175 303.313,84.096 303.720,84.101 304.600 M313.693 306.800 C 313.693 307.570,313.775 307.885,313.876 307.500 C 313.976 307.115,313.976 306.485,313.876 306.100 C 313.775 305.715,313.693 306.030,313.693 306.800 M17.701 307.800 C 17.705 308.680,17.787 308.993,17.883 308.495 C 17.979 307.998,17.975 307.278,17.875 306.895 C 17.775 306.513,17.696 306.920,17.701 307.800 M380.509 308.000 C 380.509 308.990,380.587 309.395,380.682 308.900 C 380.778 308.405,380.778 307.595,380.682 307.100 C 380.587 306.605,380.509 307.010,380.509 308.000 M84.400 308.713 C 84.400 310.393,85.650 323.783,85.823 323.956 C 86.108 324.241,86.037 322.857,85.377 315.331 C 84.829 309.073,84.400 306.168,84.400 308.713 M312.875 315.400 C 312.608 318.480,312.282 322.080,312.150 323.400 C 312.018 324.720,312.021 325.694,312.158 325.564 C 312.463 325.273,313.700 311.388,313.503 310.465 C 313.425 310.099,313.143 312.320,312.875 315.400 M18.279 314.654 C 18.398 316.663,18.643 319.363,18.823 320.654 C 19.078 322.486,19.105 322.167,18.944 319.200 C 18.831 317.110,18.586 314.410,18.400 313.200 C 18.137 311.485,18.110 311.805,18.279 314.654 M380.093 313.200 C 380.093 313.970,380.175 314.285,380.276 313.900 C 380.376 313.515,380.376 312.885,380.276 312.500 C 380.175 312.115,380.093 312.430,380.093 313.200 M379.456 318.600 C 378.794 326.324,378.705 327.788,378.910 327.600 C 379.208 327.327,380.125 316.575,379.906 315.923 C 379.810 315.635,379.607 316.840,379.456 318.600 M19.301 325.400 C 19.305 326.280,19.387 326.593,19.483 326.095 C 19.579 325.598,19.575 324.878,19.475 324.495 C 19.375 324.113,19.296 324.520,19.301 325.400 M86.101 327.400 C 86.105 328.280,86.187 328.593,86.283 328.095 C 86.379 327.598,86.375 326.878,86.275 326.495 C 86.175 326.113,86.096 326.520,86.101 327.400 M311.709 329.600 C 311.709 330.590,311.787 330.995,311.882 330.500 C 311.978 330.005,311.978 329.195,311.882 328.700 C 311.787 328.205,311.709 328.610,311.709 329.600 M19.701 330.600 C 19.705 331.480,19.787 331.793,19.883 331.295 C 19.979 330.798,19.975 330.078,19.875 329.695 C 19.775 329.313,19.696 329.720,19.701 330.600 M378.509 330.800 C 378.509 331.790,378.587 332.195,378.682 331.700 C 378.778 331.205,378.778 330.395,378.682 329.900 C 378.587 329.405,378.509 329.810,378.509 330.800 M86.653 333.600 C 86.768 335.910,87.017 338.880,87.206 340.200 C 87.475 342.078,87.504 341.686,87.338 338.400 C 87.221 336.090,86.972 333.120,86.785 331.800 C 86.519 329.929,86.490 330.325,86.653 333.600 M310.837 337.843 C 310.371 343.454,310.446 346.304,310.944 341.918 C 311.356 338.288,311.719 332.000,311.516 332.000 C 311.409 332.000,311.104 334.629,310.837 337.843 M20.257 336.403 C 20.371 338.715,20.615 341.595,20.801 342.803 C 21.228 345.588,20.862 338.718,20.374 334.800 C 20.123 332.782,20.097 333.142,20.257 336.403 M377.892 336.400 C 377.744 337.610,377.537 340.400,377.432 342.600 C 377.259 346.217,377.296 346.064,377.817 341.000 C 378.376 335.570,378.435 331.961,377.892 336.400 M214.700 343.100 C 223.115 343.160,236.885 343.160,245.300 343.100 C 253.715 343.040,246.830 342.990,230.000 342.990 C 213.170 342.990,206.285 343.040,214.700 343.100 M260.093 345.200 C 260.093 345.970,260.175 346.285,260.276 345.900 C 260.376 345.515,260.376 344.885,260.276 344.500 C 260.175 344.115,260.093 344.430,260.093 345.200 M310.101 347.000 C 310.105 347.880,310.187 348.193,310.283 347.695 C 310.379 347.198,310.375 346.478,310.275 346.095 C 310.175 345.713,310.096 346.120,310.101 347.000 M21.301 348.200 C 21.305 349.080,21.387 349.393,21.483 348.895 C 21.579 348.398,21.575 347.678,21.475 347.295 C 21.375 346.913,21.296 347.320,21.301 348.200 M376.909 348.400 C 376.909 349.390,376.987 349.795,377.082 349.300 C 377.178 348.805,377.178 347.995,377.082 347.500 C 376.987 347.005,376.909 347.410,376.909 348.400 M259.492 351.000 C 259.345 352.100,259.139 354.890,259.034 357.200 C 258.847 361.316,258.855 361.288,259.418 355.800 C 259.977 350.357,260.029 346.978,259.492 351.000 M309.275 355.800 C 309.008 358.880,308.682 362.480,308.550 363.800 C 308.418 365.120,308.421 366.094,308.558 365.964 C 308.863 365.673,310.100 351.788,309.903 350.865 C 309.825 350.499,309.543 352.720,309.275 355.800 M21.684 352.800 C 21.682 353.570,21.917 356.270,22.206 358.800 L 22.731 363.400 22.519 359.000 C 22.403 356.580,22.168 353.880,21.997 353.000 L 21.688 351.400 21.684 352.800 M376.493 353.600 C 376.493 354.370,376.575 354.685,376.676 354.300 C 376.776 353.915,376.776 353.285,376.676 352.900 C 376.575 352.515,376.493 352.830,376.493 353.600 M375.856 359.000 C 375.194 366.724,375.105 368.188,375.310 368.000 C 375.608 367.727,376.525 356.975,376.306 356.323 C 376.210 356.035,376.007 357.240,375.856 359.000 M258.501 363.000 C 258.505 363.880,258.587 364.193,258.683 363.695 C 258.779 363.198,258.775 362.478,258.675 362.095 C 258.575 361.713,258.496 362.120,258.501 363.000 M22.901 365.800 C 22.905 366.680,22.987 366.993,23.083 366.495 C 23.179 365.998,23.175 365.278,23.075 364.895 C 22.975 364.513,22.896 364.920,22.901 365.800 M258.101 368.200 C 258.105 369.080,258.187 369.393,258.283 368.895 C 258.379 368.398,258.375 367.678,258.275 367.295 C 258.175 366.913,258.096 367.320,258.101 368.200 M308.109 370.000 C 308.109 370.990,308.187 371.395,308.282 370.900 C 308.378 370.405,308.378 369.595,308.282 369.100 C 308.187 368.605,308.109 369.010,308.109 370.000 M140.149 372.400 C 140.675 379.301,141.352 385.745,141.502 385.293 C 141.719 384.642,140.427 369.489,140.132 369.220 C 139.999 369.099,140.007 370.530,140.149 372.400 M23.301 371.000 C 23.305 371.880,23.387 372.193,23.483 371.695 C 23.579 371.198,23.575 370.478,23.475 370.095 C 23.375 369.713,23.296 370.120,23.301 371.000 M90.258 373.800 C 90.374 376.220,90.622 379.280,90.807 380.600 C 91.062 382.408,91.093 381.914,90.933 378.600 C 90.816 376.180,90.569 373.120,90.384 371.800 C 90.131 369.996,90.099 370.492,90.258 373.800 M374.909 371.200 C 374.909 372.190,374.987 372.595,375.082 372.100 C 375.178 371.605,375.178 370.795,375.082 370.300 C 374.987 369.805,374.909 370.210,374.909 371.200 M257.234 376.121 C 256.945 379.598,256.796 382.529,256.902 382.635 C 257.167 382.900,258.129 371.548,257.924 370.580 C 257.833 370.151,257.522 372.645,257.234 376.121 M307.237 378.243 C 306.766 383.910,306.843 386.782,307.340 382.113 C 307.791 377.880,308.117 372.400,307.919 372.400 C 307.811 372.400,307.504 375.029,307.237 378.243 M23.857 376.803 C 23.971 379.115,24.215 381.995,24.401 383.203 C 24.828 385.988,24.462 379.118,23.974 375.200 C 23.723 373.182,23.697 373.542,23.857 376.803 M374.292 376.800 C 374.144 378.010,373.937 380.800,373.832 383.000 C 373.659 386.617,373.696 386.464,374.217 381.400 C 374.776 375.970,374.835 372.361,374.292 376.800 M91.301 385.000 C 91.305 385.880,91.387 386.193,91.483 385.695 C 91.579 385.198,91.575 384.478,91.475 384.095 C 91.375 383.713,91.296 384.120,91.301 385.000 M256.509 385.600 C 256.509 386.590,256.587 386.995,256.682 386.500 C 256.778 386.005,256.778 385.195,256.682 384.700 C 256.587 384.205,256.509 384.610,256.509 385.600 M306.501 387.400 C 306.505 388.280,306.587 388.593,306.683 388.095 C 306.779 387.598,306.775 386.878,306.675 386.495 C 306.575 386.113,306.496 386.520,306.501 387.400 M24.901 388.600 C 24.905 389.480,24.987 389.793,25.083 389.295 C 25.179 388.798,25.175 388.078,25.075 387.695 C 24.975 387.313,24.896 387.720,24.901 388.600 M141.632 387.676 C 141.573 388.923,142.829 402.963,143.016 403.149 C 143.333 403.466,143.221 401.172,142.586 394.375 C 142.012 388.226,141.706 386.081,141.632 387.676 M373.309 388.800 C 373.309 389.790,373.387 390.195,373.482 389.700 C 373.578 389.205,373.578 388.395,373.482 387.900 C 373.387 387.405,373.309 387.810,373.309 388.800 M91.600 389.313 C 91.600 392.434,93.097 406.499,93.163 404.000 C 93.208 402.319,92.017 389.084,91.802 388.868 C 91.691 388.757,91.600 388.958,91.600 389.313 M255.869 391.087 C 255.544 393.701,255.157 401.095,255.371 400.600 C 255.627 400.007,256.466 389.532,256.272 389.339 C 256.181 389.248,256.000 390.034,255.869 391.087 M305.675 396.200 C 305.408 399.280,305.082 402.880,304.950 404.200 C 304.818 405.520,304.821 406.494,304.958 406.364 C 305.263 406.073,306.500 392.188,306.303 391.265 C 306.225 390.899,305.943 393.120,305.675 396.200 M25.284 393.200 C 25.282 393.970,25.517 396.670,25.806 399.200 L 26.331 403.800 26.119 399.400 C 26.003 396.980,25.768 394.280,25.597 393.400 L 25.288 391.800 25.284 393.200 M372.901 393.800 C 372.905 394.680,372.987 394.993,373.083 394.495 C 373.179 393.998,373.175 393.278,373.075 392.895 C 372.975 392.513,372.896 392.920,372.901 393.800 M372.256 399.400 C 371.594 407.124,371.505 408.588,371.710 408.400 C 372.008 408.127,372.925 397.375,372.706 396.723 C 372.610 396.435,372.407 397.640,372.256 399.400 M254.909 403.200 C 254.909 404.190,254.987 404.595,255.082 404.100 C 255.178 403.605,255.178 402.795,255.082 402.300 C 254.987 401.805,254.909 402.210,254.909 403.200 M143.257 405.885 L 143.200 407.569 145.273 408.185 C 147.305 408.788,148.718 408.985,148.345 408.612 C 148.242 408.508,147.177 408.174,145.979 407.868 C 143.883 407.334,143.791 407.254,143.557 405.757 L 143.314 404.200 143.257 405.885 M26.501 406.200 C 26.505 407.080,26.587 407.393,26.683 406.895 C 26.779 406.398,26.775 405.678,26.675 405.295 C 26.575 404.913,26.496 405.320,26.501 406.200 M93.309 408.000 C 93.309 408.990,93.387 409.395,93.482 408.900 C 93.578 408.405,93.578 407.595,93.482 407.100 C 93.387 406.605,93.309 407.010,93.309 408.000 M251.000 408.215 C 249.423 408.761,249.420 408.765,250.800 408.532 C 252.432 408.257,254.100 407.648,253.200 407.656 C 252.870 407.659,251.880 407.911,251.000 408.215 M148.855 408.989 C 149.166 409.299,162.870 412.864,163.052 412.682 C 163.213 412.520,149.774 408.800,149.030 408.800 C 148.830 408.800,148.752 408.885,148.855 408.989 M304.509 410.400 C 304.509 411.390,304.587 411.795,304.682 411.300 C 304.778 410.805,304.778 409.995,304.682 409.500 C 304.587 409.005,304.509 409.410,304.509 410.400 M244.666 409.803 C 243.603 410.095,242.628 410.439,242.499 410.567 C 242.100 410.967,242.914 410.816,245.400 410.031 C 248.133 409.168,247.590 408.999,244.666 409.803 M26.901 411.400 C 26.905 412.280,26.987 412.593,27.083 412.095 C 27.179 411.598,27.175 410.878,27.075 410.495 C 26.975 410.113,26.896 410.520,26.901 411.400 M93.858 414.200 C 93.974 416.620,94.222 419.680,94.407 421.000 C 94.662 422.808,94.693 422.314,94.533 419.000 C 94.416 416.580,94.169 413.520,93.984 412.200 C 93.731 410.396,93.699 410.892,93.858 414.200 M371.301 411.400 C 371.305 412.280,371.387 412.593,371.483 412.095 C 371.579 411.598,371.575 410.878,371.475 410.495 C 371.375 410.113,371.296 410.520,371.301 411.400 M236.800 412.010 C 235.323 412.521,235.057 412.693,235.991 412.534 C 238.016 412.188,240.736 411.282,239.800 411.264 C 239.360 411.256,238.010 411.591,236.800 412.010 M163.650 412.983 C 163.857 413.191,175.599 416.393,176.167 416.397 C 177.208 416.405,175.594 415.877,170.103 414.414 C 164.059 412.804,163.303 412.637,163.650 412.983 M230.800 413.591 C 229.370 413.994,226.707 414.723,224.882 415.211 C 223.057 415.698,221.643 416.176,221.739 416.272 C 221.910 416.444,234.041 413.257,234.367 412.955 C 234.714 412.632,233.308 412.883,230.800 413.591 M303.866 416.000 C 303.708 417.870,303.470 420.660,303.337 422.200 C 303.204 423.740,303.199 424.905,303.325 424.789 C 303.636 424.504,304.521 414.303,304.317 413.355 C 304.228 412.940,304.025 414.130,303.866 416.000 M27.457 417.203 C 27.571 419.515,27.815 422.395,28.001 423.603 C 28.428 426.388,28.062 419.518,27.574 415.600 C 27.323 413.582,27.297 413.942,27.457 417.203 M370.692 417.000 C 370.545 418.100,370.339 420.890,370.234 423.200 C 370.047 427.316,370.055 427.288,370.618 421.800 C 371.177 416.357,371.229 412.978,370.692 417.000 M178.209 416.961 C 179.093 417.256,180.443 417.604,181.209 417.735 C 182.535 417.962,182.525 417.949,180.991 417.439 C 180.107 417.144,178.757 416.796,177.991 416.665 C 176.665 416.438,176.675 416.451,178.209 416.961 M216.800 417.427 L 215.400 417.993 216.800 417.745 C 217.570 417.608,218.560 417.351,219.000 417.173 L 219.800 416.851 219.000 416.856 C 218.560 416.859,217.570 417.116,216.800 417.427 M184.978 418.814 C 186.285 419.254,187.545 419.546,187.778 419.462 C 188.205 419.307,186.005 418.625,183.800 418.229 C 183.140 418.110,183.670 418.373,184.978 418.814 M211.000 419.015 C 209.423 419.561,209.420 419.565,210.800 419.332 C 212.432 419.057,214.100 418.448,213.200 418.456 C 212.870 418.459,211.880 418.711,211.000 419.015 M191.409 420.570 C 192.293 420.859,193.643 421.209,194.409 421.347 L 195.800 421.598 194.400 421.058 C 193.630 420.762,192.280 420.412,191.400 420.281 L 189.800 420.043 191.409 420.570 M204.400 420.783 C 201.464 421.764,202.325 421.796,205.600 420.829 C 207.030 420.407,207.840 420.058,207.400 420.055 C 206.960 420.052,205.610 420.379,204.400 420.783 M197.311 422.175 C 198.330 422.573,199.112 422.649,199.711 422.408 C 200.492 422.094,200.431 422.047,199.200 422.020 C 198.430 422.003,197.350 421.898,196.800 421.786 C 196.250 421.675,196.480 421.850,197.311 422.175 M94.909 425.600 C 94.909 426.590,94.987 426.995,95.082 426.500 C 95.178 426.005,95.178 425.195,95.082 424.700 C 94.987 424.205,94.909 424.610,94.909 425.600 M302.901 427.800 C 302.905 428.680,302.987 428.993,303.083 428.495 C 303.179 427.998,303.175 427.278,303.075 426.895 C 302.975 426.513,302.896 426.920,302.901 427.800 M28.493 428.800 C 28.493 429.570,28.575 429.885,28.676 429.500 C 28.776 429.115,28.776 428.485,28.676 428.100 C 28.575 427.715,28.493 428.030,28.493 428.800 M369.709 429.200 C 369.709 430.190,369.787 430.595,369.882 430.100 C 369.978 429.605,369.978 428.795,369.882 428.300 C 369.787 427.805,369.709 428.210,369.709 429.200 M95.472 432.800 C 95.588 435.110,95.835 438.080,96.019 439.400 C 96.262 441.132,96.293 440.520,96.131 437.200 C 96.008 434.670,95.762 431.700,95.584 430.600 C 95.367 429.254,95.331 429.974,95.472 432.800 M302.395 432.033 C 302.378 435.532,301.143 445.789,300.706 446.067 C 300.332 446.304,300.371 446.389,300.854 446.394 C 301.584 446.401,301.691 445.764,302.443 436.880 C 302.691 433.954,302.782 431.449,302.647 431.313 C 302.511 431.178,302.398 431.502,302.395 432.033 M28.884 433.600 C 28.882 434.370,29.117 437.070,29.406 439.600 L 29.931 444.200 29.719 439.800 C 29.603 437.380,29.368 434.680,29.197 433.800 L 28.888 432.200 28.884 433.600 M369.301 434.200 C 369.305 435.080,369.387 435.393,369.483 434.895 C 369.579 434.398,369.575 433.678,369.475 433.295 C 369.375 432.913,369.296 433.320,369.301 434.200 M368.664 439.486 C 368.103 445.775,367.910 448.988,368.105 448.800 C 368.386 448.529,369.334 437.201,369.095 436.962 C 368.991 436.858,368.797 437.994,368.664 439.486 M96.478 443.600 C 96.398 445.799,96.667 446.265,98.204 446.588 L 99.400 446.840 98.123 446.249 C 96.987 445.723,96.830 445.446,96.695 443.729 L 96.544 441.800 96.478 443.600 M30.101 446.600 C 30.105 447.480,30.187 447.793,30.283 447.295 C 30.379 446.798,30.375 446.078,30.275 445.695 C 30.175 445.313,30.096 445.720,30.101 446.600 M101.600 447.563 C 102.810 447.968,104.430 448.408,105.200 448.540 C 105.970 448.672,105.520 448.429,104.200 448.001 C 102.880 447.572,101.260 447.132,100.600 447.024 C 99.940 446.916,100.390 447.158,101.600 447.563 M296.200 447.389 C 295.320 447.679,294.960 447.921,295.400 447.928 C 295.840 447.934,296.830 447.697,297.600 447.400 C 299.402 446.706,298.298 446.697,296.200 447.389 M289.600 449.210 C 288.135 449.717,287.863 449.892,288.786 449.735 C 290.449 449.452,293.250 448.458,292.400 448.453 C 292.070 448.451,290.810 448.791,289.600 449.210 M108.000 449.400 C 108.770 449.697,109.760 449.939,110.200 449.939 C 110.703 449.939,110.481 449.739,109.600 449.400 C 108.830 449.103,107.840 448.861,107.400 448.861 C 106.897 448.861,107.119 449.061,108.000 449.400 M113.200 450.763 C 114.410 451.168,116.030 451.606,116.800 451.736 C 117.715 451.891,117.438 451.718,116.000 451.237 C 114.790 450.832,113.170 450.394,112.400 450.264 C 111.485 450.109,111.762 450.282,113.200 450.763 M283.281 450.879 C 281.676 451.328,280.444 451.777,280.544 451.877 C 280.744 452.077,287.200 450.408,287.200 450.156 C 287.200 449.874,286.240 450.051,283.281 450.879 M30.501 451.800 C 30.505 452.680,30.587 452.993,30.683 452.495 C 30.779 451.998,30.775 451.278,30.675 450.895 C 30.575 450.513,30.496 450.920,30.501 451.800 M367.701 451.800 C 367.705 452.680,367.787 452.993,367.883 452.495 C 367.979 451.998,367.975 451.278,367.875 450.895 C 367.775 450.513,367.696 450.920,367.701 451.800 M120.578 452.814 C 121.885 453.254,123.145 453.546,123.378 453.462 C 123.805 453.307,121.605 452.625,119.400 452.229 C 118.740 452.110,119.270 452.373,120.578 452.814 M276.600 452.800 C 275.280 453.204,274.560 453.539,275.000 453.543 C 275.440 453.547,276.790 453.221,278.000 452.817 C 280.867 451.860,279.716 451.846,276.600 452.800 M30.902 455.400 C 30.894 456.500,31.021 458.480,31.185 459.800 L 31.482 462.200 31.498 460.200 C 31.506 459.100,31.379 457.120,31.215 455.800 L 30.918 453.400 30.902 455.400 M125.633 454.161 C 125.982 454.498,136.060 457.247,136.460 457.113 C 136.690 457.037,134.448 456.305,131.477 455.487 C 126.217 454.039,125.289 453.828,125.633 454.161 M270.200 454.589 C 269.320 454.879,268.960 455.121,269.400 455.128 C 269.840 455.134,270.830 454.897,271.600 454.600 C 273.402 453.906,272.298 453.897,270.200 454.589 M367.105 457.200 C 366.956 458.410,366.746 461.290,366.638 463.600 C 366.448 467.702,366.457 467.669,367.021 462.200 C 367.582 456.754,367.649 452.792,367.105 457.200 M263.600 456.433 C 262.390 456.848,261.940 457.091,262.600 456.972 C 264.543 456.622,266.800 455.984,266.800 455.785 C 266.800 455.465,265.873 455.653,263.600 456.433 M139.200 457.963 C 140.410 458.368,142.030 458.806,142.800 458.936 C 143.715 459.091,143.438 458.918,142.000 458.437 C 140.790 458.032,139.170 457.594,138.400 457.464 C 137.485 457.309,137.762 457.482,139.200 457.963 M256.400 458.417 C 255.190 458.839,254.740 459.088,255.400 458.970 C 257.330 458.625,259.600 457.984,259.600 457.785 C 259.600 457.448,258.624 457.640,256.400 458.417 M146.400 459.963 C 147.610 460.368,149.230 460.806,150.000 460.936 C 150.915 461.091,150.638 460.918,149.200 460.437 C 147.990 460.032,146.370 459.594,145.600 459.464 C 144.685 459.309,144.962 459.482,146.400 459.963 M250.600 460.000 C 249.280 460.404,248.560 460.739,249.000 460.743 C 249.440 460.747,250.790 460.421,252.000 460.017 C 254.867 459.060,253.716 459.046,250.600 460.000 M151.600 461.353 C 151.600 461.574,153.651 462.175,155.800 462.584 C 156.896 462.792,156.877 462.764,155.586 462.257 C 153.836 461.569,151.600 461.062,151.600 461.353 M244.200 461.789 C 243.320 462.079,242.960 462.321,243.400 462.328 C 243.840 462.334,244.830 462.097,245.600 461.800 C 247.402 461.106,246.298 461.097,244.200 461.789 M31.709 464.400 C 31.709 465.390,31.787 465.795,31.882 465.300 C 31.978 464.805,31.978 463.995,31.882 463.500 C 31.787 463.005,31.709 463.410,31.709 464.400 M157.600 462.945 C 157.600 463.254,162.015 464.462,162.525 464.292 C 162.775 464.208,162.084 463.920,160.990 463.652 C 159.895 463.384,158.685 463.070,158.300 462.955 C 157.915 462.840,157.600 462.835,157.600 462.945 M237.881 463.487 C 236.606 463.822,235.641 464.175,235.738 464.271 C 235.942 464.475,240.366 463.368,240.706 463.028 C 241.022 462.711,240.548 462.788,237.881 463.487 M164.800 464.953 C 164.800 465.174,166.851 465.775,169.000 466.184 C 170.096 466.392,170.077 466.364,168.786 465.857 C 167.036 465.169,164.800 464.662,164.800 464.953 M230.400 465.633 C 229.190 466.048,228.740 466.291,229.400 466.172 C 231.343 465.822,233.600 465.184,233.600 464.985 C 233.600 464.665,232.673 464.853,230.400 465.633 M172.578 467.214 C 173.885 467.654,175.145 467.946,175.378 467.862 C 175.805 467.707,173.605 467.025,171.400 466.629 C 170.740 466.510,171.270 466.773,172.578 467.214 M224.600 467.200 C 223.280 467.604,222.560 467.939,223.000 467.943 C 223.440 467.947,224.790 467.621,226.000 467.217 C 228.867 466.260,227.716 466.246,224.600 467.200 M32.093 469.200 C 32.093 469.970,32.175 470.285,32.276 469.900 C 32.376 469.515,32.376 468.885,32.276 468.500 C 32.175 468.115,32.093 468.430,32.093 469.200 M366.101 469.400 C 366.105 470.280,366.187 470.593,366.283 470.095 C 366.379 469.598,366.375 468.878,366.275 468.495 C 366.175 468.113,366.096 468.520,366.101 469.400 M177.661 468.572 C 178.025 468.967,182.442 470.092,182.683 469.850 C 182.867 469.667,181.521 469.244,178.600 468.566 C 177.940 468.413,177.518 468.415,177.661 468.572 M218.200 469.015 C 216.623 469.561,216.620 469.565,218.000 469.332 C 219.632 469.057,221.300 468.448,220.400 468.456 C 220.070 468.459,219.080 468.711,218.200 469.015 M184.600 470.564 C 185.260 470.857,186.520 471.200,187.400 471.326 L 189.000 471.557 187.400 471.040 C 186.520 470.756,185.260 470.413,184.600 470.278 L 183.400 470.033 184.600 470.564 M211.600 470.833 C 210.390 471.248,209.940 471.491,210.600 471.372 C 212.543 471.022,214.800 470.384,214.800 470.185 C 214.800 469.865,213.873 470.053,211.600 470.833 M190.800 472.153 C 190.800 472.374,192.851 472.975,195.000 473.384 C 196.096 473.592,196.077 473.564,194.786 473.057 C 193.036 472.369,190.800 471.862,190.800 472.153 M204.400 472.833 C 203.190 473.248,202.740 473.491,203.400 473.372 C 205.343 473.022,207.600 472.384,207.600 472.185 C 207.600 471.865,206.673 472.053,204.400 472.833 M32.484 474.000 C 32.482 474.770,32.717 477.470,33.006 480.000 L 33.531 484.600 33.319 480.200 C 33.203 477.780,32.968 475.080,32.797 474.200 L 32.488 472.600 32.484 474.000 M365.693 474.400 C 365.693 475.170,365.775 475.485,365.876 475.100 C 365.976 474.715,365.976 474.085,365.876 473.700 C 365.775 473.315,365.693 473.630,365.693 474.400 M197.700 474.173 C 199.010 474.684,199.390 474.685,200.700 474.180 L 202.200 473.602 200.800 473.861 C 199.119 474.173,198.935 474.172,197.400 473.844 C 196.433 473.638,196.492 473.702,197.700 474.173 M364.996 480.506 C 364.842 482.356,364.790 484.214,364.880 484.635 C 364.970 485.056,365.181 483.627,365.349 481.460 C 365.517 479.294,365.569 477.436,365.465 477.332 C 365.361 477.228,365.150 478.657,364.996 480.506 M33.701 487.000 C 33.705 487.880,33.787 488.193,33.883 487.695 C 33.979 487.198,33.975 486.478,33.875 486.095 C 33.775 485.713,33.696 486.120,33.701 487.000 M364.514 487.400 C 364.517 488.500,364.595 488.903,364.687 488.295 C 364.779 487.686,364.777 486.786,364.682 486.295 C 364.587 485.803,364.511 486.300,364.514 487.400 M34.101 491.800 C 34.105 492.680,34.187 492.993,34.283 492.495 C 34.379 491.998,34.375 491.278,34.275 490.895 C 34.175 490.513,34.096 490.920,34.101 491.800 M364.093 492.000 C 364.093 492.770,364.175 493.085,364.276 492.700 C 364.376 492.315,364.376 491.685,364.276 491.300 C 364.175 490.915,364.093 491.230,364.093 492.000 M34.502 495.800 C 34.494 496.900,34.621 498.880,34.785 500.200 L 35.082 502.600 35.098 500.600 C 35.106 499.500,34.979 497.520,34.815 496.200 L 34.518 493.800 34.502 495.800 M363.471 497.690 C 363.044 501.430,362.685 507.406,362.900 507.200 C 363.172 506.940,364.117 495.984,363.888 495.754 C 363.791 495.658,363.604 496.529,363.471 497.690 M35.309 504.800 C 35.309 505.790,35.387 506.195,35.482 505.700 C 35.578 505.205,35.578 504.395,35.482 503.900 C 35.387 503.405,35.309 503.810,35.309 504.800 M362.509 509.600 C 362.509 510.590,362.587 510.995,362.682 510.500 C 362.778 510.005,362.778 509.195,362.682 508.700 C 362.587 508.205,362.509 508.610,362.509 509.600 M35.693 509.600 C 35.693 510.370,35.775 510.685,35.876 510.300 C 35.976 509.915,35.976 509.285,35.876 508.900 C 35.775 508.515,35.693 508.830,35.693 509.600 M36.060 514.120 C 35.999 515.265,38.173 516.695,39.337 516.275 C 39.592 516.184,39.047 515.900,38.126 515.646 C 36.759 515.268,36.421 514.983,36.286 514.092 L 36.120 513.000 36.060 514.120 M362.000 514.177 C 362.000 514.990,361.682 515.255,360.100 515.761 C 358.648 516.226,358.530 516.314,359.600 516.137 C 361.672 515.794,362.400 515.287,362.400 514.186 C 362.400 513.644,362.310 513.200,362.200 513.200 C 362.090 513.200,362.000 513.640,362.000 514.177 M43.600 517.528 C 43.930 517.727,44.830 518.002,45.600 518.138 C 46.471 518.293,46.773 518.255,46.400 518.039 C 45.569 517.558,42.819 517.056,43.600 517.528 M352.600 517.815 C 351.023 518.361,351.020 518.365,352.400 518.132 C 354.032 517.857,355.700 517.248,354.800 517.256 C 354.470 517.259,353.480 517.511,352.600 517.815 M49.400 519.146 C 49.840 519.339,50.830 519.610,51.600 519.750 C 52.561 519.924,52.749 519.894,52.200 519.654 C 51.760 519.461,50.770 519.190,50.000 519.050 C 49.039 518.876,48.851 518.906,49.400 519.146 M346.856 519.259 C 346.117 519.472,345.603 519.736,345.714 519.847 C 345.825 519.958,346.790 519.780,347.858 519.452 C 349.969 518.804,349.053 518.627,346.856 519.259 M56.600 521.139 C 57.837 521.668,59.910 522.077,59.200 521.651 C 58.870 521.454,57.970 521.180,57.200 521.044 C 56.256 520.877,56.060 520.908,56.600 521.139 M339.600 521.427 L 338.200 521.993 339.600 521.751 C 341.187 521.476,342.652 520.811,341.600 520.843 C 341.270 520.853,340.370 521.116,339.600 521.427 M62.200 522.755 C 63.427 523.279,65.915 523.705,65.200 523.269 C 64.870 523.067,63.880 522.792,63.000 522.658 C 61.958 522.498,61.679 522.532,62.200 522.755 M333.800 523.015 C 332.223 523.561,332.220 523.565,333.600 523.332 C 335.232 523.057,336.900 522.448,336.000 522.456 C 335.670 522.459,334.680 522.711,333.800 523.015 M68.814 524.551 C 69.592 524.852,70.852 525.211,71.614 525.348 L 73.000 525.598 71.586 525.049 C 70.808 524.748,69.548 524.389,68.786 524.252 L 67.400 524.002 68.814 524.551 M327.866 524.603 C 326.803 524.895,325.813 525.262,325.666 525.417 C 325.520 525.572,325.760 525.598,326.200 525.473 C 326.640 525.349,327.765 525.050,328.700 524.808 C 329.635 524.567,330.400 524.286,330.400 524.185 C 330.400 523.937,330.125 523.982,327.866 524.603 M75.400 526.346 C 75.840 526.539,76.830 526.810,77.600 526.950 C 78.561 527.124,78.749 527.094,78.200 526.854 C 77.760 526.661,76.770 526.390,76.000 526.250 C 75.039 526.076,74.851 526.106,75.400 526.346 M320.856 526.459 C 320.117 526.672,319.603 526.936,319.714 527.047 C 319.825 527.158,320.790 526.980,321.858 526.652 C 323.969 526.004,323.053 525.827,320.856 526.459 M80.400 527.707 C 80.683 528.018,85.333 529.200,85.523 529.010 C 85.671 528.862,84.160 528.406,81.400 527.766 C 80.740 527.613,80.290 527.586,80.400 527.707 M314.666 528.203 C 313.603 528.495,312.628 528.839,312.499 528.967 C 312.100 529.367,312.914 529.216,315.400 528.431 C 318.133 527.568,317.590 527.399,314.666 528.203 M88.200 529.955 C 89.427 530.479,91.915 530.905,91.200 530.469 C 90.870 530.267,89.880 529.992,89.000 529.858 C 87.958 529.698,87.679 529.732,88.200 529.955 M307.800 530.215 C 306.223 530.761,306.220 530.765,307.600 530.532 C 309.232 530.257,310.900 529.648,310.000 529.656 C 309.670 529.659,308.680 529.911,307.800 530.215 M94.814 531.751 C 95.592 532.052,96.852 532.411,97.614 532.548 L 99.000 532.798 97.586 532.249 C 96.808 531.948,95.548 531.589,94.786 531.452 L 93.400 531.202 94.814 531.751 M301.866 531.803 C 300.803 532.095,299.813 532.462,299.666 532.617 C 299.520 532.772,299.760 532.798,300.200 532.673 C 300.640 532.549,301.765 532.250,302.700 532.008 C 303.635 531.767,304.400 531.486,304.400 531.385 C 304.400 531.137,304.125 531.182,301.866 531.803 M102.000 533.773 C 102.770 534.084,103.760 534.341,104.200 534.344 L 105.000 534.349 104.200 534.027 C 103.760 533.849,102.770 533.592,102.000 533.455 L 100.600 533.207 102.000 533.773 M294.800 533.827 L 293.400 534.393 294.800 534.145 C 295.570 534.008,296.560 533.751,297.000 533.573 L 297.800 533.251 297.000 533.256 C 296.560 533.259,295.570 533.516,294.800 533.827 M106.400 534.907 C 106.683 535.218,111.333 536.400,111.523 536.210 C 111.671 536.062,110.160 535.606,107.400 534.966 C 106.740 534.813,106.290 534.786,106.400 534.907 M288.666 535.403 C 287.603 535.695,286.628 536.039,286.499 536.167 C 286.100 536.567,286.914 536.416,289.400 535.631 C 292.133 534.768,291.590 534.599,288.666 535.403 M114.200 537.146 C 114.640 537.339,115.630 537.610,116.400 537.750 C 117.361 537.924,117.549 537.894,117.000 537.654 C 116.560 537.461,115.570 537.190,114.800 537.050 C 113.839 536.876,113.651 536.906,114.200 537.146 M281.800 537.415 C 280.223 537.961,280.220 537.965,281.600 537.732 C 283.232 537.457,284.900 536.848,284.000 536.856 C 283.670 536.859,282.680 537.111,281.800 537.415 M120.814 538.951 C 121.592 539.252,122.852 539.611,123.614 539.748 L 125.000 539.998 123.586 539.449 C 122.808 539.148,121.548 538.789,120.786 538.652 L 119.400 538.402 120.814 538.951 M275.400 539.200 C 274.896 539.417,274.822 539.544,275.200 539.544 C 275.530 539.544,276.160 539.389,276.600 539.200 C 277.104 538.983,277.178 538.856,276.800 538.856 C 276.470 538.856,275.840 539.011,275.400 539.200 M127.200 540.737 C 127.530 540.941,128.430 541.227,129.200 541.371 C 130.130 541.546,130.399 541.510,130.000 541.263 C 129.670 541.059,128.770 540.773,128.000 540.629 C 127.070 540.454,126.801 540.490,127.200 540.737 M268.800 541.027 L 267.400 541.593 268.800 541.351 C 270.387 541.076,271.852 540.411,270.800 540.443 C 270.470 540.453,269.570 540.716,268.800 541.027 M133.000 542.346 C 133.440 542.539,134.430 542.810,135.200 542.950 C 136.161 543.124,136.349 543.094,135.800 542.854 C 135.360 542.661,134.370 542.390,133.600 542.250 C 132.639 542.076,132.451 542.106,133.000 542.346 M262.400 542.810 C 260.935 543.317,260.663 543.492,261.586 543.335 C 263.249 543.052,266.050 542.058,265.200 542.053 C 264.870 542.051,263.610 542.391,262.400 542.810 M140.200 544.346 C 140.640 544.539,141.630 544.810,142.400 544.950 C 143.361 545.124,143.549 545.094,143.000 544.854 C 142.560 544.661,141.570 544.390,140.800 544.250 C 139.839 544.076,139.651 544.106,140.200 544.346 M255.800 544.615 C 254.223 545.161,254.220 545.165,255.600 544.932 C 257.232 544.657,258.900 544.048,258.000 544.056 C 257.670 544.059,256.680 544.311,255.800 544.615 M249.866 546.203 C 247.753 546.784,246.661 547.447,248.601 546.971 C 250.801 546.432,253.007 545.679,252.400 545.675 C 252.070 545.673,250.930 545.911,249.866 546.203 M147.400 546.346 C 147.840 546.539,148.830 546.810,149.600 546.950 C 150.561 547.124,150.749 547.094,150.200 546.854 C 149.760 546.661,148.770 546.390,148.000 546.250 C 147.039 546.076,146.851 546.106,147.400 546.346 M153.200 547.937 C 153.530 548.141,154.430 548.427,155.200 548.571 C 156.130 548.746,156.399 548.710,156.000 548.463 C 155.670 548.259,154.770 547.973,154.000 547.829 C 153.070 547.654,152.801 547.690,153.200 547.937 M242.800 548.227 L 241.400 548.793 242.800 548.545 C 243.570 548.408,244.560 548.151,245.000 547.973 L 245.800 547.651 245.000 547.656 C 244.560 547.659,243.570 547.916,242.800 548.227 M159.600 549.773 C 160.370 550.084,161.360 550.341,161.800 550.344 L 162.600 550.349 161.800 550.027 C 161.360 549.849,160.370 549.592,159.600 549.455 L 158.200 549.207 159.600 549.773 M236.400 550.010 C 234.935 550.517,234.663 550.692,235.586 550.535 C 237.249 550.252,240.050 549.258,239.200 549.253 C 238.870 549.251,237.610 549.591,236.400 550.010 M166.200 551.546 C 166.640 551.739,167.630 552.010,168.400 552.150 C 169.361 552.324,169.549 552.294,169.000 552.054 C 168.560 551.861,167.570 551.590,166.800 551.450 C 165.839 551.276,165.651 551.306,166.200 551.546 M230.056 551.659 C 229.317 551.872,228.790 552.123,228.885 552.218 C 228.980 552.313,229.854 552.140,230.829 551.835 C 232.818 551.211,232.145 551.058,230.056 551.659 M173.400 553.539 C 174.637 554.068,176.710 554.477,176.000 554.051 C 175.670 553.854,174.770 553.580,174.000 553.444 C 173.056 553.277,172.860 553.308,173.400 553.539 M222.856 553.659 C 222.117 553.872,221.590 554.123,221.685 554.218 C 221.780 554.313,222.654 554.140,223.629 553.835 C 225.618 553.211,224.945 553.058,222.856 553.659 M179.000 555.141 C 180.228 555.686,182.724 556.113,182.000 555.654 C 181.670 555.444,180.680 555.163,179.800 555.029 C 178.708 554.863,178.454 554.898,179.000 555.141 M217.000 555.415 C 215.423 555.961,215.420 555.965,216.800 555.732 C 218.432 555.457,220.100 554.848,219.200 554.856 C 218.870 554.859,217.880 555.111,217.000 555.415 M185.614 556.951 C 186.392 557.252,187.652 557.611,188.414 557.748 L 189.800 557.998 188.386 557.449 C 187.608 557.148,186.348 556.789,185.586 556.652 L 184.200 556.402 185.614 556.951 M210.400 557.210 C 208.935 557.717,208.663 557.892,209.586 557.735 C 211.249 557.452,214.050 556.458,213.200 556.453 C 212.870 556.451,211.610 556.791,210.400 557.210 M192.200 558.739 C 193.437 559.268,195.510 559.677,194.800 559.251 C 194.470 559.054,193.570 558.780,192.800 558.644 C 191.856 558.477,191.660 558.508,192.200 558.739 M204.056 558.859 C 203.317 559.072,202.790 559.323,202.885 559.418 C 202.980 559.513,203.854 559.340,204.829 559.035 C 206.818 558.411,206.145 558.258,204.056 558.859 M197.999 560.478 C 198.521 560.671,199.387 560.671,199.966 560.478 C 200.825 560.192,200.668 560.133,199.034 560.133 C 197.479 560.133,197.262 560.205,197.999 560.478 " stroke="none" fill="#748ede" fill-rule="evenodd"></path></g></svg>