<svg id="svg" xmlns="http://www.w3.org/2000/svg" xmlns:xlink="http://www.w3.org/1999/xlink" width="400" height="426.578073089701" viewBox="0, 0, 400,426.578073089701"><g id="svgg"><path id="path0" d="M245.289 16.874 C 235.201 23.916,228.417 31.526,223.772 41.011 C 203.021 83.387,236.515 143.627,289.172 158.634 C 323.527 168.425,361.183 156.443,392.525 125.746 C 395.083 123.240,396.952 121.339,396.678 121.521 C 367.374 140.938,309.572 136.112,277.311 111.553 C 250.125 90.859,239.064 55.175,247.793 16.326 C 247.963 15.569,248.081 14.956,248.054 14.964 C 248.028 14.971,246.784 15.831,245.289 16.874 M143.991 48.920 C 117.198 76.245,105.659 107.283,109.501 141.694 C 116.204 201.737,171.577 259.616,237.542 275.529 C 296.581 289.772,352.049 267.340,389.135 214.223 C 391.956 210.182,393.312 208.149,396.598 203.035 L 397.744 201.252 395.134 203.404 C 366.083 227.364,302.432 234.948,250.457 220.643 C 198.262 206.277,162.909 172.128,150.497 124.086 C 149.373 119.737,148.753 116.690,147.185 107.807 C 144.517 92.698,144.751 64.583,147.694 46.595 C 147.955 44.998,147.647 45.192,143.991 48.920 M43.727 79.783 C 3.193 126.234,-9.013 184.492,9.502 243.136 C 31.194 311.844,91.446 371.953,162.791 396.062 C 244.652 423.725,322.939 399.446,378.265 329.236 C 384.372 321.486,393.837 308.033,396.497 303.322 C 396.652 303.048,395.224 304.326,393.323 306.162 C 360.897 337.483,281.069 353.910,215.947 342.663 C 98.922 322.451,38.464 229.400,47.190 82.926 C 47.415 79.149,47.524 75.985,47.432 75.893 C 47.341 75.802,45.673 77.552,43.727 79.783 " stroke="none" fill="#3c84ac" fill-rule="evenodd"></path><path id="path1" d="M0.000 213.289 L 0.000 426.578 200.000 426.578 L 400.000 426.578 400.000 213.289 L 400.000 0.000 200.000 0.000 L 0.000 0.000 0.000 213.289 M248.173 15.126 C 248.173 15.223,247.808 17.279,247.363 19.695 C 237.622 72.529,260.843 112.587,309.967 127.693 C 339.870 136.888,377.399 134.236,395.987 121.613 C 399.312 119.355,398.693 120.186,393.115 125.468 C 360.161 156.677,326.796 167.863,291.597 159.503 C 264.915 153.166,239.479 132.159,226.589 105.814 C 211.652 75.283,214.771 45.462,235.033 25.087 C 239.369 20.727,248.173 14.053,248.173 15.126 M147.655 48.344 C 134.464 140.625,177.192 205.366,263.289 223.553 C 312.701 233.991,372.383 224.215,396.745 201.694 L 399.046 199.566 395.744 204.719 C 368.300 247.549,334.172 271.862,292.359 278.368 C 243.081 286.035,187.574 264.676,149.290 223.314 C 99.809 169.854,95.124 103.379,137.473 55.648 C 139.309 53.579,147.945 44.845,148.051 44.950 C 148.094 44.993,147.915 46.520,147.655 48.344 M47.345 83.415 C 37.830 240.175,108.956 335.793,242.359 345.584 C 302.653 350.009,373.170 330.206,396.988 302.159 C 402.663 295.477,386.752 318.767,378.264 329.568 C 328.152 393.333,257.695 419.536,183.056 402.166 C 92.900 381.185,15.147 300.292,2.655 214.477 C -4.519 165.197,9.794 118.355,44.010 79.132 C 45.972 76.883,47.636 75.100,47.708 75.172 C 47.779 75.243,47.616 78.952,47.345 83.415 " stroke="none" fill="#ffffff" fill-rule="evenodd"></path><path id="path2" d="M235.037 25.000 L 233.389 26.744 235.133 25.096 C 236.754 23.564,237.029 23.256,236.782 23.256 C 236.729 23.256,235.944 24.041,235.037 25.000 M245.267 49.336 C 245.270 50.066,245.338 50.326,245.418 49.913 C 245.497 49.500,245.494 48.902,245.411 48.584 C 245.328 48.267,245.263 48.605,245.267 49.336 M217.353 64.120 C 217.353 64.759,217.421 65.021,217.505 64.701 C 217.588 64.381,217.588 63.858,217.505 63.538 C 217.421 63.218,217.353 63.480,217.353 64.120 M145.302 80.399 C 145.302 82.135,145.358 82.845,145.427 81.977 C 145.495 81.109,145.495 79.689,145.427 78.821 C 145.358 77.953,145.302 78.663,145.302 80.399 M46.611 98.339 C 46.611 99.344,46.673 99.755,46.750 99.252 C 46.826 98.750,46.826 97.928,46.750 97.425 C 46.673 96.923,46.611 97.334,46.611 98.339 M46.595 122.757 C 46.599 123.488,46.667 123.748,46.747 123.335 C 46.826 122.922,46.823 122.324,46.740 122.006 C 46.657 121.688,46.592 122.027,46.595 122.757 M394.002 124.502 L 392.857 125.748 394.103 124.603 C 394.788 123.973,395.349 123.412,395.349 123.357 C 395.349 123.103,395.068 123.342,394.002 124.502 M46.928 132.060 C 46.931 132.791,46.999 133.051,47.079 132.637 C 47.158 132.224,47.155 131.626,47.072 131.308 C 46.989 130.991,46.924 131.329,46.928 132.060 M183.887 183.389 C 185.156 184.668,186.270 185.714,186.361 185.714 C 186.452 185.714,185.489 184.668,184.219 183.389 C 182.950 182.110,181.837 181.063,181.745 181.063 C 181.654 181.063,182.618 182.110,183.887 183.389 M0.748 188.206 C 0.752 188.937,0.820 189.197,0.899 188.784 C 0.979 188.370,0.976 187.772,0.893 187.455 C 0.810 187.137,0.745 187.475,0.748 188.206 M0.748 191.196 C 0.752 191.927,0.820 192.187,0.899 191.774 C 0.979 191.360,0.976 190.762,0.893 190.445 C 0.810 190.127,0.745 190.465,0.748 191.196 M397.989 200.517 C 397.551 200.984,397.416 201.280,397.689 201.175 C 398.122 201.009,399.197 199.668,398.898 199.668 C 398.837 199.668,398.428 200.050,397.989 200.517 M299.086 227.813 C 299.589 227.889,300.411 227.889,300.914 227.813 C 301.416 227.737,301.005 227.674,300.000 227.674 C 298.995 227.674,298.584 227.737,299.086 227.813 M311.881 227.810 C 312.294 227.889,312.892 227.886,313.210 227.803 C 313.527 227.720,313.189 227.655,312.458 227.659 C 311.728 227.662,311.468 227.730,311.881 227.810 M156.811 231.063 C 157.430 231.703,158.012 232.226,158.104 232.226 C 158.195 232.226,157.763 231.703,157.143 231.063 C 156.523 230.424,155.941 229.900,155.850 229.900 C 155.758 229.900,156.191 230.424,156.811 231.063 M270.349 279.975 C 270.943 280.048,271.914 280.048,272.508 279.975 C 273.102 279.901,272.616 279.841,271.429 279.841 C 270.241 279.841,269.755 279.901,270.349 279.975 M274.502 279.963 C 274.821 280.047,275.345 280.047,275.664 279.963 C 275.984 279.880,275.723 279.811,275.083 279.811 C 274.444 279.811,274.182 279.880,274.502 279.963 M249.917 346.076 C 250.237 346.160,250.760 346.160,251.080 346.076 C 251.400 345.993,251.138 345.924,250.498 345.924 C 249.859 345.924,249.597 345.993,249.917 346.076 M268.854 346.076 C 269.174 346.160,269.697 346.160,270.017 346.076 C 270.336 345.993,270.075 345.924,269.435 345.924 C 268.796 345.924,268.534 345.993,268.854 346.076 M237.462 407.212 C 237.876 407.291,238.474 407.288,238.791 407.205 C 239.109 407.122,238.771 407.057,238.040 407.061 C 237.309 407.064,237.049 407.132,237.462 407.212 " stroke="none" fill="#b3cdde" fill-rule="evenodd"></path><path id="path3" d="M397.214 121.117 C 397.098 121.421,396.841 121.537,396.597 121.396 C 396.367 121.264,396.293 121.281,396.432 121.434 C 396.570 121.586,396.348 122.096,395.938 122.567 C 395.528 123.037,395.825 122.831,396.599 122.109 C 398.092 120.716,398.178 120.598,397.710 120.598 C 397.547 120.598,397.324 120.832,397.214 121.117 " stroke="none" fill="#9cbcd4" fill-rule="evenodd"></path><path id="path4" d="M217.390 68.272 C 217.391 69.734,217.449 70.291,217.519 69.509 C 217.590 68.728,217.589 67.532,217.517 66.852 C 217.446 66.171,217.388 66.811,217.390 68.272 M145.282 74.086 C 145.282 75.091,145.345 75.502,145.421 75.000 C 145.497 74.498,145.497 73.675,145.421 73.173 C 145.345 72.670,145.282 73.081,145.282 74.086 M145.273 85.714 C 145.273 86.537,145.338 86.873,145.417 86.462 C 145.496 86.051,145.496 85.378,145.417 84.967 C 145.338 84.556,145.273 84.892,145.273 85.714 M46.602 94.352 C 46.602 95.174,46.667 95.511,46.746 95.100 C 46.825 94.689,46.825 94.016,46.746 93.605 C 46.667 93.194,46.602 93.530,46.602 94.352 M266.113 101.433 C 266.113 101.490,266.599 101.976,267.193 102.513 L 268.272 103.488 267.297 102.409 C 266.387 101.402,266.113 101.176,266.113 101.433 M269.435 104.755 C 269.435 104.812,269.921 105.298,270.515 105.835 L 271.595 106.811 270.619 105.731 C 269.709 104.724,269.435 104.498,269.435 104.755 M46.270 106.312 C 46.270 107.135,46.335 107.471,46.414 107.060 C 46.493 106.649,46.493 105.976,46.414 105.565 C 46.335 105.154,46.270 105.490,46.270 106.312 M108.715 124.917 C 108.715 125.556,108.783 125.818,108.867 125.498 C 108.950 125.179,108.950 124.655,108.867 124.336 C 108.783 124.016,108.715 124.277,108.715 124.917 M46.589 125.914 C 46.589 126.553,46.657 126.815,46.741 126.495 C 46.824 126.175,46.824 125.652,46.741 125.332 C 46.657 125.012,46.589 125.274,46.589 125.914 M344.601 133.461 C 345.104 133.537,345.926 133.537,346.429 133.461 C 346.931 133.384,346.520 133.322,345.515 133.322 C 344.510 133.322,344.099 133.384,344.601 133.461 M349.252 133.461 C 349.755 133.537,350.577 133.537,351.080 133.461 C 351.582 133.384,351.171 133.322,350.166 133.322 C 349.161 133.322,348.750 133.384,349.252 133.461 M316.532 162.029 C 316.945 162.108,317.543 162.105,317.861 162.022 C 318.179 161.939,317.841 161.874,317.110 161.878 C 316.379 161.881,316.119 161.950,316.532 162.029 M1.080 181.561 C 1.084 182.292,1.152 182.552,1.232 182.139 C 1.311 181.726,1.308 181.128,1.225 180.810 C 1.142 180.492,1.077 180.831,1.080 181.561 M1.080 197.841 C 1.084 198.571,1.152 198.831,1.232 198.418 C 1.311 198.005,1.308 197.407,1.225 197.089 C 1.142 196.772,1.077 197.110,1.080 197.841 M153.142 227.326 C 154.519 228.792,154.817 229.056,154.817 228.807 C 154.817 228.753,154.107 228.043,153.239 227.229 L 151.661 225.748 153.142 227.326 M295.266 227.809 C 295.677 227.888,296.350 227.888,296.761 227.809 C 297.172 227.730,296.836 227.665,296.013 227.665 C 295.191 227.665,294.855 227.730,295.266 227.809 M314.701 227.804 C 315.021 227.887,315.544 227.887,315.864 227.804 C 316.184 227.720,315.922 227.652,315.282 227.652 C 314.643 227.652,314.381 227.720,314.701 227.804 M371.914 235.299 L 370.266 237.043 372.010 235.395 C 372.969 234.488,373.754 233.703,373.754 233.650 C 373.754 233.402,373.446 233.678,371.914 235.299 M279.485 279.631 C 279.805 279.715,280.328 279.715,280.648 279.631 C 280.968 279.547,280.706 279.479,280.066 279.479 C 279.427 279.479,279.165 279.547,279.485 279.631 M70.432 339.307 C 70.432 339.364,70.918 339.850,71.512 340.386 L 72.591 341.362 71.616 340.282 C 70.706 339.276,70.432 339.050,70.432 339.307 M362.117 347.757 L 359.967 350.000 362.209 347.850 C 364.292 345.853,364.604 345.515,364.359 345.515 C 364.308 345.515,363.299 346.524,362.117 347.757 M271.512 346.076 C 271.831 346.160,272.355 346.160,272.674 346.076 C 272.994 345.993,272.733 345.924,272.093 345.924 C 271.453 345.924,271.192 345.993,271.512 346.076 M258.555 346.408 C 258.875 346.492,259.398 346.492,259.718 346.408 C 260.037 346.325,259.776 346.256,259.136 346.256 C 258.497 346.256,258.235 346.325,258.555 346.408 M220.017 407.215 C 220.519 407.291,221.341 407.291,221.844 407.215 C 222.346 407.139,221.935 407.076,220.930 407.076 C 219.925 407.076,219.514 407.139,220.017 407.215 M234.140 407.212 C 234.553 407.291,235.151 407.288,235.469 407.205 C 235.787 407.122,235.449 407.057,234.718 407.061 C 233.987 407.064,233.727 407.132,234.140 407.212 " stroke="none" fill="#94bcd4" fill-rule="evenodd"></path></g></svg>